<svg width="512" height="512" xmlns="http://www.w3.org/2000/svg"><path fill="#969493" d="M346.8 26H165.2c-18.2 0-33 12.6-33 28.1v119.3h247.7V54.1c0-15.5-14.8-28.1-33.1-28.1Z"/><path fill="#afadac" d="M346.8 26H206.5v21.1c0 19.4 18.5 35.1 41.3 35.1h132.1V54.1c0-15.5-14.8-28.1-33.1-28.1Z"/><path fill="#ffe1a0" d="m410.2 378.1-79.8-23.5c-10.4-3.1-17.5-12.6-17.5-23.4v-38.6H199.1v38.6c0 10.8-7.1 20.3-17.5 23.4l-79.8 23.5C77.6 385.2 61 407.4 61 432.7v55c0 13.5 10.9 24.4 24.4 24.4h341.3c13.5 0 24.4-10.9 24.4-24.4v-55c-.1-25.3-16.7-47.5-40.9-54.6Z"/><path fill="#a06e50" d="M199.1 310.7c17.1 9.1 36.4 14.4 56.9 14.4s39.8-5.3 56.9-14.4v-18.1H199.1v18.1Z"/><path fill="#f7d291" d="M199.1 310.7c17.1 9.1 36.4 14.4 56.9 14.4s39.8-5.3 56.9-14.4v-18.1H199.1v18.1Z"/><path fill="#d3a062" d="M312.9 512h113.8c13.5 0 24.4-10.9 24.4-24.4v-55c0-25.2-16.6-47.5-40.8-54.6l-79.8-23.5c-9.7-2.9-16.5-11.4-17.3-21.4h-.2V512Z"/><path fill="#c17f44" d="m361.7 512 14-62.9c1.4-6.2-1-12.7-6.1-16.5l-16.4-12.3c-4.7-3.6-7.2-9.4-6.3-15.3l5.8-40.4c.7-4.7-.7-9.4-3.8-13-6.5-7.4-19.3-19-35.8-20.3V512h48.6Z"/><path fill="#d3a062" d="M199.1 512H85.3C71.9 512 61 501.1 61 487.6v-55c0-25.2 16.6-47.5 40.8-54.6l79.8-23.5c9.7-2.9 16.5-11.4 17.3-21.4h.2V512Z"/><path fill="#c17f44" d="m150.3 512-14-62.9c-1.4-6.2 1-12.7 6.1-16.5l16.4-12.3c4.7-3.6 7.2-9.4 6.3-15.3l-5.8-40.4c-.7-4.7.7-9.4 3.8-13 6.5-7.4 19.3-19 35.8-20.3V512h-48.6Z"/><path fill="#6ec6ed" d="M256 414.5c-21.6 0-41.4-7.7-56.9-20.4v118h113.8V394c-15.5 12.8-35.3 20.5-56.9 20.5Z"/><path fill="#6ea4e5" d="M312.9 414v-43c-13.4 16.6-33.9 27.3-56.9 27.3s-43.5-10.7-56.9-27.3v43c16.4 10.6 35.9 16.8 56.9 16.8s40.4-6.3 56.9-16.8Z"/><path fill="#ffe1a0" d="M364.6 170.7h-2.9c-9 0-16.3-7.3-16.3-16.3v-40.6c0-9-7.3-16.3-16.3-16.3H182.9c-9 0-16.3 7.3-16.3 16.3v40.6c0 9-7.3 16.3-16.3 16.3h-2.9c-10.6 0-20.3 7.6-21.4 18.2-1.2 12.2 8.3 22.4 20.2 22.4h4.5c4.2 54.5 49.6 97.5 105.2 97.5s101.1-43 105.2-97.5h4.5c11.9 0 21.4-10.3 20.2-22.4-.9-10.6-10.6-18.2-21.2-18.2Z"/><path fill="#f7d291" d="M329.1 97.5H182.9c-9 0-16.3 7.3-16.3 16.3v40.6c0 9-7.3 16.3-16.3 16.3h-2.9c-10.6 0-20.3 7.6-21.4 18.2-1.2 12.2 8.3 22.4 20.2 22.4h4.5c4.2 54.5 49.6 97.5 105.2 97.5 5.6 0 11-.5 16.3-1.4-50.6-7.8-89.4-51.5-89.4-104.3v-56.9c0-18 14.6-32.5 32.5-32.5h97.5c9.1.1 16.3-7.2 16.3-16.2Z"/><path fill="#1a5284" d="M207.2 195c-4.5 0-8.1-3.6-8.1-8.1v-8.1h16.3v8.1c0 4.5-3.7 8.1-8.2 8.1ZM304.8 195c-4.5 0-8.1-3.6-8.1-8.1v-8.1H313v8.1c-.1 4.5-3.8 8.1-8.2 8.1Z"/><path fill="#afadac" d="M275.1 223h-38.2c-12.6 0-23.2 9.5-24.6 22l-3.9 35.1c-1.1 10.3 4.3 20.3 13.5 24.9l23 11.5c7 3.5 15.2 3.5 22.2 0l23-11.5c9.3-4.6 14.7-14.6 13.5-24.9l-3.9-35.1c-1.4-12.5-12-22-24.6-22Z"/><path fill="#969493" d="M253.2 307.6c-9.3-5.7-14.7-18-13.5-30.7l3.9-43.3c.3-3.8 1.3-7.4 2.6-10.6h-9.3c-12.6 0-23.2 9.5-24.6 22l-3.9 35.1c-1.1 10.3 4.3 20.3 13.5 24.9l23 11.5c7 3.5 15.2 3.5 22.2 0l.3-.2-14.2-8.7Z"/><path fill="#969493" d="M257 272.6c-12.2 0-23.4-3.9-30.1-10.5a8.18 8.18 0 0 1-.1-11.5c3.2-3.2 8.3-3.2 11.5-.1 2.7 2.7 9.2 5.8 18.7 5.8s16-3.1 18.7-5.8c3.2-3.2 8.3-3.1 11.5.1 3.2 3.2 3.1 8.3-.1 11.5-6.7 6.6-17.9 10.5-30.1 10.5Z"/><path fill="#5a4650" d="M272.5 189.9c-4.6 0-8.3-3.7-8.3-8.3 0-4.6-3.7-8.3-8.3-8.3-4.6 0-8.3 3.7-8.3 8.3 0 4.6-3.7 8.3-8.3 8.3-4.6 0-8.3-3.7-8.3-8.3 0-13.7 11.1-24.8 24.8-24.8 13.7 0 24.8 11.1 24.8 24.8.2 4.6-3.5 8.3-8.1 8.3ZM181.7 173.4h-41.3c-4.6 0-8.3-3.7-8.3-8.3 0-4.6 3.7-8.3 8.3-8.3h41.3c4.6 0 8.3 3.7 8.3 8.3 0 4.6-3.8 8.3-8.3 8.3ZM371.6 173.4h-41.3c-4.6 0-8.3-3.7-8.3-8.3 0-4.6 3.7-8.3 8.3-8.3h41.3c4.6 0 8.3 3.7 8.3 8.3 0 4.6-3.7 8.3-8.3 8.3Z"/><path fill="#6e5a64" d="M223 206.5h-24.8c-13.7 0-24.8-11.1-24.8-24.8v-24.8c0-4.6 3.7-8.3 8.3-8.3h57.8c4.6 0 8.3 3.7 8.3 8.3v24.8c-.1 13.6-11.2 24.8-24.8 24.8Zm-33.1-41.3v16.5c0 4.6 3.7 8.3 8.3 8.3H223c4.6 0 8.3-3.7 8.3-8.3v-16.5h-41.4ZM313.8 206.5H289c-13.7 0-24.8-11.1-24.8-24.8v-24.8c0-4.6 3.7-8.3 8.3-8.3h57.8c4.6 0 8.3 3.7 8.3 8.3v24.8c0 13.6-11.1 24.8-24.8 24.8Zm-33-41.3v16.5c0 4.6 3.7 8.3 8.3 8.3h24.8c4.6 0 8.3-3.7 8.3-8.3v-16.5h-41.4Z"/></svg>