<svg width="512" height="512" xmlns="http://www.w3.org/2000/svg"><path fill="#dbd9dc" d="M248.3 122.7c0 7 3 12.7 6.7 12.7s6.7-5.7 6.7-12.7v-1.5 1.5h-13.4ZM255 42.8c-3.1 0-5.7 4.1-6.5 9.6h12.9c-.6-5.6-3.2-9.6-6.4-9.6ZM261.7 55.5V54v2.9-1.4Z"/><path fill="#dbd9dc" d="M248.3 52.3v70.4h13.4V52.3h-13.2Z"/><path fill="#aeb9bf" d="M351.6 295.7H158.4c-13.7 0-24.8-18.6-24.8-41.6V138.9c0-23 11.1-41.6 24.8-41.6h193.2c13.7 0 24.8 18.6 24.8 41.6V254c0 23-11.1 41.7-24.8 41.7Z"/><path fill="#dbd9dc" d="M302.2 137.6h-94.3c-18.8 0-34.1 5.8-34.1 13.1v48.4h162.5v-48.4c0-7.2-15.3-13.1-34.1-13.1Z"/><path fill="#6e5a64" d="M214.8 185.2h-.1c-7 0-12.7-5.7-12.7-12.7 0-7 5.7-12.7 12.7-12.7 7 0 12.7 5.7 12.7 12.7 0 7.1-5.6 12.7-12.6 12.7ZM295.4 185.2h-.1c-7 0-12.7-5.7-12.7-12.7 0-7 5.7-12.7 12.7-12.7 7 0 12.7 5.7 12.7 12.7 0 7.1-5.6 12.7-12.6 12.7Z"/><path fill="#ff8250" d="M255.1 59.5h-.1c-9.6 0-17.3-7.8-17.3-17.3s7.8-17.3 17.3-17.3 17.3 7.8 17.3 17.3c0 9.6-7.6 17.3-17.2 17.3ZM221.4 242.8c-7 0-12.7 5.7-12.7 12.7 0 7 5.7 12.7 12.7 12.7h.1c.5 0 .9 0 1.4-.1h-1.5v-25.3ZM301.3 255.5c0-5.9-4.1-10.9-9.6-12.3v24.6c5.6-1.3 9.6-6.3 9.6-12.3ZM288.6 268.2h.1c.5 0 .9 0 1.4-.1h-2.9c.5.1.9.1 1.4.1Z"/><path fill="#ff8250" d="M291.7 242.8h-70.3v25.3h70.3V243.2Z"/><path fill="#aeb9bf" d="M392.3 511.7H115.1c-19.7 0-35.6-18.6-35.6-41.6V355c0-23 15.9-41.6 35.6-41.6h277.2c19.7 0 35.6 18.6 35.6 41.6v115.1c0 23-16 41.6-35.6 41.6Z"/><path fill="#aeb9bf" d="M133.2 348.8c0 23.859-19.341 43.2-43.2 43.2s-43.2-19.341-43.2-43.2 19.341-43.2 43.2-43.2 43.2 19.341 43.2 43.2ZM463.2 348.8c0 23.859-19.341 43.2-43.2 43.2s-43.2-19.341-43.2-43.2 19.341-43.2 43.2-43.2 43.2 19.341 43.2 43.2Z"/><path fill="#aeb9bf" d="M122.5 512.1H79.3c-1.6 0-2.8-1.3-2.8-2.8v-126c0-1.6 1.3-2.8 2.8-2.8h43.2c1.6 0 2.8 1.3 2.8 2.8v126c0 1.5-1.2 2.8-2.8 2.8ZM386.1 380.4H435v131.7h-48.9Z"/><path fill="#dbd9dc" d="M265.5 440.4H154.6c-7.9 0-14.2-7.4-14.2-16.6v-46.1c0-9.2 6.4-16.6 14.2-16.6h110.9c7.9 0 14.2 7.4 14.2 16.6v46.1c.1 9.1-6.3 16.6-14.2 16.6ZM359.1 396.7h-61.3c-4.3 0-7.9-3.3-7.9-7.5v-20.7c0-4.1 3.5-7.5 7.9-7.5h61.3c4.3 0 7.9 3.3 7.9 7.5v20.7c0 4.1-3.5 7.5-7.9 7.5ZM359.1 439.9h-61.3c-4.3 0-7.9-3.3-7.9-7.5v-20.7c0-4.1 3.5-7.5 7.9-7.5h61.3c4.3 0 7.9 3.3 7.9 7.5v20.7c0 4.2-3.5 7.5-7.9 7.5Z"/><path fill="#1d1d1b" d="m194.6 374.3 4.6 25.4-46 34.6 76-13.9-4.6-25.3 35.7-19.7Z"/><path fill="#6e5a64" d="M130 512.1h-4.2c-1.6 0-2.8-1.3-2.8-2.8v-66.5c0-1.6 1.3-2.8 2.8-2.8h4.2c1.6 0 2.8 1.3 2.8 2.8v66.5c0 1.5-1.3 2.8-2.8 2.8ZM386.7 512.1h-4.2c-1.6 0-2.8-1.3-2.8-2.8v-66.5c0-1.6 1.3-2.8 2.8-2.8h4.2c1.6 0 2.8 1.3 2.8 2.8v66.5c0 1.5-1.2 2.8-2.8 2.8Z" opacity=".4"/></svg>