<svg width="512" height="512" xmlns="http://www.w3.org/2000/svg"><path fill="#f7d291" d="m418.6 377.9-87-25.6c-10.5-3.1-17.8-12.8-17.8-23.8v-56.1H198.2v56.1c0 11-7.2 20.7-17.8 23.8l-87 25.6c-21.1 6.2-35.6 25.6-35.6 47.5v61.7c0 13.7 11.1 24.8 24.8 24.8h346.8c13.7 0 24.8-11.1 24.8-24.8v-61.7c0-21.9-14.5-41.3-35.6-47.5Z"/><path fill="#a5cdff" d="m418.6 377.9-85.2-25.1c-16 26.1-44.6 43.5-77.4 43.5-32.8 0-61.5-17.4-77.4-43.5l-85.2 25.1c-21.1 6.2-35.6 25.6-35.6 47.5v61.7c0 13.7 11.1 24.8 24.8 24.8h346.8c13.7 0 24.8-11.1 24.8-24.8v-61.7c0-21.9-14.5-41.3-35.6-47.5Z"/><path fill="#8cb4eb" d="M162.2 357.7c18.3 32.9 53.4 55.2 93.8 55.2s75.5-22.3 93.8-55.2l-16.4-4.8c-16 26.1-44.6 43.5-77.4 43.5-32.8 0-61.5-17.4-77.4-43.5l-16.4 4.8Z"/><path fill="#2f49c9" d="M165.2 356.8 123.9 369v101.7h41.3ZM346.8 356.8l41.3 12.2v101.7h-41.3Z"/><path fill="#2f49c9" d="M363.4 437.7H148.6c-13.7 0-24.8 11.1-24.8 24.8V512h264.3v-49.5c0-13.7-11.1-24.8-24.7-24.8Z"/><path fill="#f0c382" d="M198.2 307.5c17.3 9.3 37 14.6 57.8 14.6 20.8 0 40.5-5.3 57.8-14.6v-26.7H198.2v26.7Z"/><path fill="#ffe1a0" d="M371.6 165.6v-33.5c0-63.9-51.8-115.6-115.6-115.6S140.4 68.3 140.4 132.1v33.5c-9.4 1.9-16.5 10.3-16.5 20.2 0 11.4 9.3 20.6 20.6 20.6h4.5c4.2 55.4 50.4 99.1 106.9 99.1 56.5 0 102.7-43.7 106.9-99.1h4.5c11.4 0 20.6-9.3 20.6-20.6.2-9.9-6.9-18.3-16.3-20.2Z"/><path fill="#efc652" d="M256 8.3c-73 0-132.1 59.2-132.1 132.1h264.3C388.1 67.4 329 8.3 256 8.3Z"/><path fill="#f4a70f" d="M256 8.3c-73 0-132.1 59.2-132.1 132.1h74.3C198.2 95 221.1 55 256 31.3v-23Z"/><path fill="#f7d291" d="M355.1 148.6v-8.3H140.4v25.2c-10.6 2.2-18.2 12.4-16.2 24 1.8 10 11.1 16.9 21.3 16.9h3.6c4.2 55.4 50.4 99.1 106.9 99.1 8.4 0 16.4-1.1 24.2-2.9-51.7-11.6-90.3-57.6-90.3-112.7 0-13.7 11.1-24.8 24.8-24.8h123.9c9.1.1 16.5-7.3 16.5-16.5Z"/><path fill="#cd916e" d="M275.1 223h-38.2c-12.6 0-23.2 9.5-24.6 22l-3.9 35.1c-1.1 10.3 4.3 20.3 13.5 24.9l23 11.5c7 3.5 15.2 3.5 22.2 0l23-11.5c9.3-4.6 14.7-14.6 13.5-24.9l-3.9-35.1c-1.4-12.5-12-22-24.6-22Z"/><path fill="#b67f5f" d="M253.2 307.6c-9.3-5.7-14.7-18-13.5-30.7l3.9-43.3c.3-3.8 1.3-7.4 2.6-10.6h-9.3c-12.6 0-23.2 9.5-24.6 22l-3.9 35.1c-1.1 10.3 4.3 20.3 13.5 24.9l23 11.5c7 3.5 15.2 3.5 22.2 0l.3-.2-14.2-8.7Z"/><path fill="#f7d291" d="M256 264.3c-9.6 0-18.3-4.4-23.4-11.9-2.5-3.8-1.6-8.9 2.2-11.5 3.8-2.5 8.9-1.5 11.5 2.2 3.8 5.7 15.5 5.7 19.3 0 2.5-3.8 7.7-4.8 11.5-2.2 3.8 2.6 4.8 7.7 2.2 11.5-5 7.4-13.7 11.9-23.3 11.9Z"/><path fill="#6e5a64" d="M210.6 189.9c-4.6 0-8.3-3.7-8.3-8.3v-8.3c0-4.6 3.7-8.3 8.3-8.3 4.6 0 8.3 3.7 8.3 8.3v8.3c-.1 4.6-3.8 8.3-8.3 8.3ZM301.4 189.9c-4.6 0-8.3-3.7-8.3-8.3v-8.3c0-4.6 3.7-8.3 8.3-8.3 4.6 0 8.3 3.7 8.3 8.3v8.3c0 4.6-3.7 8.3-8.3 8.3Z"/><path fill="#ffedb1" d="M272.5 107.4h-33c-4.6 0-8.3-3.7-8.3-8.3V8.3c0-4.6 3.7-8.3 8.3-8.3h33c4.6 0 8.3 3.7 8.3 8.3v90.8c0 4.6-3.7 8.3-8.3 8.3ZM346.8 107.4h-16.5c-4.6 0-8.3-3.7-8.3-8.3v-72c0-4.4 5-6.9 8.5-4.3l17.9 13.4c4.2 3.1 6.6 8 6.6 13.2v49.5c.1 4.8-3.6 8.5-8.2 8.5Z"/><path fill="#ffe17d" d="M165.2 107.4h16.5c4.6 0 8.3-3.7 8.3-8.3v-72c0-4.4-5-6.9-8.5-4.3l-17.9 13.4c-4.2 3.1-6.6 8-6.6 13.2v49.5c-.1 4.8 3.6 8.5 8.2 8.5Z"/><path fill="#f4a70f" d="M396.4 148.6H115.6c-4.6 0-8.3-3.7-8.3-8.3 0-4.6 3.7-8.3 8.3-8.3h280.8c4.6 0 8.3 3.7 8.3 8.3-.1 4.6-3.8 8.3-8.3 8.3ZM165.2 470.7a8.3 8.3 0 1 1-16.6 0 8.3 8.3 0 0 1 16.6 0ZM363.4 470.7a8.3 8.3 0 1 1-16.6 0 8.3 8.3 0 0 1 16.6 0Z"/><path fill="#8cb4eb" d="M123.9 437.7V512H99.1v-49.5c0-13.7 11.1-24.8 24.8-24.8ZM388.1 437.7V512h24.8v-49.5c0-13.7-11.1-24.8-24.8-24.8Z"/></svg>