<svg width="512" height="512" xmlns="http://www.w3.org/2000/svg"><path fill="#aeb9bf" d="M400.8 185.8c0 79.97-64.83 144.8-144.8 144.8-79.97 0-144.8-64.83-144.8-144.8C111.2 105.83 176.03 41 256 41c79.97 0 144.8 64.83 144.8 144.8Z"/><path fill="#353231" d="M205.8 201.9h-.1c-7 0-12.7-5.7-12.7-12.7 0-7 5.7-12.7 12.7-12.7 7 0 12.7 5.7 12.7 12.7 0 7.1-5.6 12.7-12.6 12.7ZM305.4 201.9h-.1c-7 0-12.7-5.7-12.7-12.7 0-7 5.7-12.7 12.7-12.7 7 0 12.7 5.7 12.7 12.7 0 7.1-5.6 12.7-12.6 12.7Z"/><path fill="#aeb9bf" d="M441.5 512.6c3.7-15.3 5.5-31.4 5.5-48.1 0-110.2-85.5-199.6-191-199.6S65 354.4 65 464.5c0 16.6 2 32.7 5.5 48.1h371ZM214.4 58.2c5.7 12.6-9 31.6-32.7 42.3-23.7 10.7-47.7 9.2-53.4-3.4-10.4-22.9 12-88.1 12-88.1s63.8 26.3 74.1 49.2ZM375.9 10.4s22.3 65.2 12 88.1c-5.7 12.6-29.7 14.1-53.4 3.4s-38.4-29.7-32.7-42.3c10.3-23 74.1-49.2 74.1-49.2Z"/><path fill="#353231" d="M272.759 212.517c-4.1-3.5-10.3-2.9-14.1 1l-1.5 1.5-1.5-1.5c-3.8-3.9-9.9-4.6-14.1-1-4.7 4-5 11.3-.7 15.7l14.5 15c.9 1 2.4 1 3.4.1l.1-.1 14.6-15c4.3-4.4 4-11.6-.7-15.7Z"/><path fill="#ead6e7" d="M361.1 41s12 35.1 6.4 47.4c-3.1 6.8-15.9 7.6-28.7 1.8-12.8-5.8-20.7-16-17.6-22.8 5.7-12.3 39.9-26.4 39.9-26.4Z"/><path fill="#fff" d="M114.9 214c35.6 8.3 85.8 7.3 85.8 7.3s-37-71.5-66.4-89c-3.4-2-7.1-3.2-10.9-3.7C116.1 146 112 165 112 185.1c0 9.9 1 19.5 2.9 28.9Z" opacity=".55"/><path fill="#aeb9bf" d="M27.6 204.3c-6.2 4.1-10.8 10.6-12.5 18.4-3.6 16.2 6.6 32.2 22.8 35.8 6.4 1.4 14.7 4.1 17.6 8.8 6.3 10.2-1 39.1-6.4 60.1-7.5 29.4-15.2 59.7-7 87.2 9.2 31.1 31 54.7 62.9 68.1 22.2 9.3 41.8 10.5 44 10.6l2.8-59.9h.2c-1.7-.1-42.8-3.1-52.5-35.9-3.4-11.6 2.5-34.9 7.7-55.4 8.9-34.9 18.9-74.5-.7-106.3-11.2-18.1-29.9-30.2-55.7-35.9-8.3-1.8-16.6 0-23.2 4.4Z"/><path fill="#353231" d="m302.175 231.918 104.314 18.836-.675 3.74L301.5 235.656ZM304.6 223.8h106v3.8h-106Z" opacity=".9"/><path fill="#fff" d="M390.5 132c-.7.3-1.3.7-2 1-29.4 17.5-66.4 89-66.4 89s40.1.7 74.1-5c2.5-10.7 3.8-21.8 3.8-33.2.1-18.3-3.3-35.7-9.5-51.8Z" opacity=".55"/><path fill="#9a9fa0" d="M103.3 512c-19.1-41.8-20.1-95.1 1.4-145.4 13.1-30.7 32.9-56.1 56.2-74.7 25.4 22.2 58.7 35.6 95.1 35.6 44.9 0 85.1-20.4 111.6-52.6-25.1 20.7-57.1 33.2-92.2 33.2-80 0-144.8-64.8-144.8-144.8 0-35.1 12.5-67.1 33.2-92.2-32.2 26.6-52.6 66.7-52.6 111.6 0 42.2 18 80.2 46.8 106.6-33.5 18.5-62.4 49.9-79.8 90.6-19.3 45.1-20.4 92.6-6.8 132h31.9Z"/><path fill="#fff" d="M286.9 511.6c24-30.1 52.9-71.9 52.9-98.3-.1-24.8-38-44.8-84.7-44.7-46.7.1-84.5 20.3-84.4 45.1.1 26.3 29.1 67.9 53.2 97.8h63Z" opacity=".55"/><path fill="#ead6e7" d="M195 73.8c3.1 6.8-4.8 17-17.6 22.8-12.8 5.8-25.6 5-28.7-1.8-5.6-12.3 6.4-47.4 6.4-47.4s34.3 14.1 39.9 26.4Z"/><path fill="#353231" d="M213.518 234.125 109.203 252.96l-.675-3.74 104.314-18.836ZM210.42 226.082h-106v-3.8h106Z" opacity=".9"/></svg>