<svg width="512" height="512" xmlns="http://www.w3.org/2000/svg"><path fill="#e3aa75" d="M417.4 378.6 331 353.2c-10.5-3.1-17.7-12.7-17.7-23.6v-39H198.6v39c0 10.9-7.2 20.5-17.7 23.6l-86.4 25.4c-20.9 6.2-35.3 25.4-35.3 47.2v61.6c0 13.6 11 24.6 24.6 24.6h344.3c13.6 0 24.6-11 24.6-24.6v-61.6c.1-21.8-14.3-41-35.3-47.2Z"/><path fill="#e6646e" d="M417.4 378.6 331 353.2c-1.5-.4-2.8-1-4.2-1.7L256 364.4l-70.9-12.9c-1.3.7-2.7 1.3-4.2 1.7l-86.4 25.4c-20.9 6.2-35.3 25.4-35.3 47.2v61.6c0 13.6 11 24.6 24.6 24.6h344.3c13.6 0 24.6-11 24.6-24.6v-61.6c.1-21.8-14.3-41-35.3-47.2Z"/><path fill="#dc4655" d="m159 372 40.6 34.8c5.9 5.1 13.5 7.9 21.3 7.9 10 0 19.4-4.5 25.6-12.3l9.4-11.7 9.4 11.7c6.3 7.8 15.6 12.3 25.6 12.3 7.8 0 15.4-2.8 21.3-7.9L353 372c3.3-2.8 5.6-6.4 6.8-10.3l-28.8-8.5c-1.5-.4-2.8-1-4.2-1.7L256 364.4l-70.9-12.9c-1.3.7-2.7 1.3-4.2 1.7l-28.8 8.5c1.4 3.9 3.6 7.5 6.9 10.3Z"/><path fill="#d29b6e" d="M198.6 308.9c17.2 9.2 36.8 14.5 57.4 14.5s40.2-5.3 57.4-14.5v-18.3H198.6v18.3Z"/><path fill="#f5b97d" d="M366.7 167.7h-4.1V77.5H149.4v90.2h-4.1c-11.3 0-20.5 9.2-20.5 20.5s9.2 20.5 20.5 20.5h4.5c4.2 55 50.1 98.4 106.2 98.4s102-43.4 106.2-98.4h4.5c11.3 0 20.5-9.2 20.5-20.5s-9.2-20.5-20.5-20.5Z"/><path fill="#e3aa75" d="M329.8 93.9V77.5H149.4v90.2h-2.9c-10.7 0-20.5 7.7-21.6 18.4-1.2 12.3 8.4 22.6 20.4 22.6h4.5c4.2 55 50.1 98.4 106.2 98.4 5.6 0 11.1-.5 16.4-1.4-51.1-7.9-90.2-51.9-90.2-105.2v-57.4c0-18.1 14.7-32.8 32.8-32.8h98.4c9 0 16.4-7.3 16.4-16.4Z"/><path fill="#e6646e" d="m256 364.4-66.3-36.8c-4.1-2.3-9.2-.7-11.3 3.5l-10.3 20.6c-1.3 2.7-.7 6 1.6 7.9l40.6 34.8c7 6 17.7 5 23.5-2.2l22.2-27.8ZM256 364.4l66.3-36.8c4.1-2.3 9.2-.7 11.3 3.5l10.3 20.6c1.3 2.7.7 6-1.6 7.9l-40.6 34.8c-7 6-17.7 5-23.5-2.2L256 364.4Z"/><path fill="#5a4650" d="M206.8 193c-4.5 0-8.2-3.7-8.2-8.2v-8.2c0-4.5 3.7-8.2 8.2-8.2 4.5 0 8.2 3.7 8.2 8.2v8.2c0 4.5-3.7 8.2-8.2 8.2ZM305.2 193c-4.5 0-8.2-3.7-8.2-8.2v-8.2c0-4.5 3.7-8.2 8.2-8.2 4.5 0 8.2 3.7 8.2 8.2v8.2c0 4.5-3.7 8.2-8.2 8.2Z"/><path fill="#6e5a64" d="M215 159.5h-16.4c-4.5 0-8.2-3.7-8.2-8.2 0-4.5 3.7-8.2 8.2-8.2H215c4.5 0 8.2 3.7 8.2 8.2 0 4.5-3.7 8.2-8.2 8.2ZM313.4 159.5H297c-4.5 0-8.2-3.7-8.2-8.2 0-4.5 3.7-8.2 8.2-8.2h16.4c4.5 0 8.2 3.7 8.2 8.2 0 4.5-3.7 8.2-8.2 8.2Z"/><path fill="#fff" d="M223.6 221.7c-2.6 0-4.5 2.4-4.1 4.9 2.7 15.8 18 27.9 36.5 27.9s33.8-12.1 36.5-27.9c.4-2.5-1.5-4.9-4.1-4.9h-64.8Z"/><path fill="#ffc350" d="M264.2 430a8.2 8.2 0 1 1-16.4 0 8.2 8.2 0 0 1 16.4 0ZM264.2 479.2a8.2 8.2 0 1 1-16.4 0 8.2 8.2 0 0 1 16.4 0Z"/><path fill="#5a4650" d="M347.9 61.1H164.1c-25 0-44.2 22.2-40.5 47l9.4 63.6 18.4-2.3c8.2-1 14.4-8 14.4-16.3v-42.9c0-9.1 7.3-16.4 16.4-16.4h147.6c9.1 0 16.4 7.3 16.4 16.4v42.9c0 8.3 6.2 15.3 14.4 16.3l18.4 2.3 9.4-63.6c3.7-24.8-15.5-47-40.5-47Z"/><path fill="#64505a" d="M366.4 5.8c-1.6-4.9-7.2-7.3-11.7-4.8-8.5 4.8-24.4 10.9-49.5 10.9h-82c-31.7 0-57.4 25.7-57.4 57.4 0 13.6 11 24.6 24.6 24.6h131.2c30.8 0 61.6-36.2 44.8-88.1Z"/><path fill="#dc4655" d="M133 438.2V512h-24.6v-49.2c0-13.6 11-24.6 24.6-24.6ZM379 438.2V512h24.6v-49.2c0-13.6-11-24.6-24.6-24.6Z"/><path fill="#ffe17d" d="M133 512h32.8V357.7l-32.8 9.6ZM379 512h-32.8V357.7l32.8 9.6Z"/><path fill="#ffd164" d="M133 512h16.4v-57.4c0-9.1-7.3-16.4-16.4-16.4V512ZM379 512h-16.4v-57.4c0-9.1 7.3-16.4 16.4-16.4V512Z"/><path fill="#6e5a64" d="M214.6 40.5c.1 11.6 10.4 20.6 22 20.6h111.2c5.9 0 11.5 1.3 16.5 3.5 7.5-15.2 9.7-35.4 2.1-58.9-1.6-4.9-7.2-7.2-11.7-4.7-8.5 4.8-24.4 10.9-49.5 10.9h-82c-.5.3-1.1.6-1.6.9-4.4 8.1-7 17.4-7 27.4v.3Z"/><path fill="#c5f3f8" d="M192.5 212.4h126.3c4.2 0 7.5 3.4 7.5 7.5v50.4c0 4.2-3.4 7.5-7.5 7.5H192.5c-4.2 0-7.5-3.4-7.5-7.5V220c-.1-4.2 3.3-7.6 7.5-7.6Z"/><path fill="none" stroke="#fff" stroke-width="5" stroke-linecap="round" d="m160.5 165.4 27.8 47.4M350 165.4l-27.8 47.4M361.3 208.3l-39.1 66.9M150.7 208.3l37.6 66.2"/><path fill="#6e5a64" d="M190.2 221.5H321c2.9 0 5.3 2.4 5.3 5.3s-2.4 5.3-5.3 5.3H190.2c-2.9 0-5.3-2.4-5.3-5.3 0-3 2.4-5.3 5.3-5.3ZM190.2 238.8H321c2.9 0 5.3 2.4 5.3 5.3s-2.4 5.3-5.3 5.3H190.2c-2.9 0-5.3-2.4-5.3-5.3 0-3 2.4-5.3 5.3-5.3ZM187.2 256.8H318c2.9 0 5.3 2.4 5.3 5.3s-2.4 5.3-5.3 5.3H187.2c-2.9 0-5.3-2.4-5.3-5.3s2.4-5.3 5.3-5.3Z" opacity=".139"/></svg>