<svg width="512" height="512" xmlns="http://www.w3.org/2000/svg"><path fill="#f7d291" d="m418.6 361.2-87-25.6c-10.5-3.1-17.8-12.8-17.8-23.8v-47.5H198.2v47.5c0 11-7.2 20.7-17.8 23.8l-87 25.6c-21.1 6.2-35.6 25.6-35.6 47.5v78.5c0 13.7 11.1 24.8 24.8 24.8h346.8c13.7 0 24.8-11.1 24.8-24.8v-78.5c0-22-14.5-41.3-35.6-47.5Z"/><path fill="#f0c382" d="M198.2 290.9c17.4 9.3 37 14.6 57.8 14.6 20.8 0 40.5-5.3 57.8-14.6v-26.7H198.2v26.7Z"/><path fill="#ffe1a0" d="M371.6 149.1v-33.4C371.6 51.8 319.9 0 256 0c-63.9 0-115.6 51.8-115.6 115.6V149c-9.4 1.9-16.5 10.2-16.5 20.2 0 11.4 9.2 20.6 20.6 20.6h4.5c4.2 55.4 50.4 99.1 106.9 99.1 56.5 0 102.7-43.7 106.9-99.1h4.5c11.4 0 20.6-9.2 20.6-20.6.2-9.9-6.9-18.2-16.3-20.1Z"/><path fill="#f7d291" d="M189.9 181.7V61c0-16.3-21.2-22.8-30.3-9.3-12.1 18.3-19.2 40.3-19.2 63.9V149c-10.6 2.1-18.2 12.3-16.2 23.9 1.7 10 11 17 21.2 17h3.7c4.2 55.4 50.4 99.1 106.9 99.1 7.1 0 14-.7 20.8-2-49.5-9.6-86.9-53.1-86.9-105.3Z"/><path fill="#5a4650" d="M210.6 173.4c-4.6 0-8.3-3.7-8.3-8.3v-8.3c0-4.6 3.7-8.3 8.3-8.3 4.6 0 8.3 3.7 8.3 8.3v8.3c-.1 4.6-3.8 8.3-8.3 8.3Z"/><path fill="#493c36" d="M189.9 140.4c-3.7 0-7.1-2.5-8-6.3-1.1-4.4 1.6-8.9 6-10l33-8.3c4.4-1.1 8.9 1.6 10 6 1.1 4.4-1.6 8.9-6 10l-33 8.3c-.6.2-1.3.3-2 .3Z"/><path fill="#5a4650" d="M301.4 173.4c-4.6 0-8.3-3.7-8.3-8.3v-8.3c0-4.6 3.7-8.3 8.3-8.3 4.6 0 8.3 3.7 8.3 8.3v8.3c0 4.6-3.7 8.3-8.3 8.3Z"/><path fill="#493c36" d="M322.1 140.4c-.7 0-1.3-.1-2-.2l-33-8.3c-4.4-1.1-7.1-5.6-6-10 1.1-4.4 5.6-7.1 10-6l33 8.3c4.4 1.1 7.1 5.6 6 10-1 3.7-4.3 6.2-8 6.2Z"/><path fill="#cba274" d="M256 470.7c-4.6 0-8.3-3.7-8.3-8.3v-49.5c0-4.6 3.7-8.3 8.3-8.3 4.6 0 8.3 3.7 8.3 8.3v49.5c0 4.6-3.7 8.3-8.3 8.3ZM289 462.5c-4.6 0-8.3-3.7-8.3-8.3v-33c0-4.6 3.7-8.3 8.3-8.3 4.6 0 8.3 3.7 8.3 8.3v33c0 4.6-3.7 8.3-8.3 8.3ZM223 462.5c-4.6 0-8.3-3.7-8.3-8.3v-33c0-4.6 3.7-8.3 8.3-8.3 4.6 0 8.3 3.7 8.3 8.3v33c-.1 4.6-3.8 8.3-8.3 8.3Z"/><path fill="#493c36" d="M280.8 44.8c-.8 0-1.5-.1-2.3-.3-15-4.2-30.1-4.2-45 0-4.3 1.2-9-1.3-10.2-5.7-1.2-4.4 1.3-9 5.7-10.2 17.9-5.1 36.1-5.1 54 0 4.4 1.2 6.9 5.8 5.7 10.2-1 3.6-4.3 6-7.9 6Z" opacity=".2"/><path fill="#493c36" d="M144.5 148.6c6.8 0 12.4-5.5 12.4-12.4v-28c0-8.2-5.6-15.9-13.7-17.2-10.3-1.7-19.3 6.3-19.3 16.3v61.9c0-11.3 9.2-20.6 20.6-20.6ZM367.5 148.6c-6.8 0-12.4-5.5-12.4-12.4v-28c0-8.2 5.6-15.9 13.7-17.2 10.3-1.7 19.3 6.3 19.3 16.3v61.9c0-11.3-9.2-20.6-20.6-20.6Z"/><path fill="#edebed" d="M165.2 363.4V340l-41.3 12.1V512h264.3V352.2L346.8 340v23.3c0 50.2-40.7 90.8-90.8 90.8-50.1 0-90.8-40.6-90.8-90.7Z" opacity=".7"/><path fill="#fff" d="M346.8 340v23.3c0 50.2-40.7 90.8-90.8 90.8-50.1 0-90.8-40.7-90.8-90.8V340l-16.5 4.9v18.5c0 59.3 48.1 107.4 107.4 107.4 59.3 0 107.4-48.1 107.4-107.4v-18.5l-16.7-4.9Z"/><path fill="#bcbbbc" d="M123.9 512c-4.6 0-8.3-3.7-8.3-8.3v-33c0-4.6 3.7-8.3 8.3-8.3 4.6 0 8.3 3.7 8.3 8.3v33c-.1 4.6-3.8 8.3-8.3 8.3ZM387.7 512c-4.6 0-8.3-3.7-8.3-8.3v-33c0-4.6 3.7-8.3 8.3-8.3 4.6 0 8.3 3.7 8.3 8.3v33c0 4.6-3.7 8.3-8.3 8.3Z" opacity=".5"/><path fill="#6e5a64" d="M301.3 231.8c-7.1-9.1-29.4-20.8-38.9-20.8h-8.8c-9.6 0-32.8 12.2-39.3 21.4-23.3-3.4-51.1-34-65.5-41.9 7.8 59 54.8 99.4 106.9 99.4 52.1 0 106.9-39.4 106.9-99.4-13.3 7.5-39.6 37.8-61.3 41.3Zm-61.5-14.3c2.4-1.3 13.8-6 21.9-6h3.4c2.7 0 23.3 6.7 25.7 7.9-20.6.7-27.7.2-28.2.2-2-.1-20.9-2.1-22.8-2.1Z" opacity=".3"/><path fill="#493c36" d="M206.2 234.3H231c13.7 0 24.8-11.1 24.8-24.8H231c-13.7 0-24.8 11.1-24.8 24.8Z"/><path fill="#493c36" d="M280.5 209.5h-24.8c0 13.7 11.1 24.8 24.8 24.8h24.8c0-13.7-11.1-24.8-24.8-24.8Z"/></svg>