<svg width="512" height="512" xmlns="http://www.w3.org/2000/svg"><defs><clipPath id="a"><path d="M90.8 512h330.3c13.7 0 24.8-11.1 24.8-24.8V448c0-21-13.2-39.7-33.1-46.7l-42.4-15c-13.2 15.4-50.7 55.4-104.7 80.3-3.1 1.4-6.5 2.2-9.8 2.2-3.4 0-6.7-.7-9.8-2.2-54-25-91.5-64.9-104.7-80.3l-42.4 15c-19.8 7-33.1 25.7-33.1 46.7v39.3c.2 13.6 11.3 24.7 24.9 24.7Z"/></clipPath></defs><path fill="#8c5f4b" d="M386.8 128C382.4 51.7 330.2 0 256 0c-74.2 0-135.6 59.5-140 135.7l-7 116.1c-5.4 87.3 62 161.1 147 161.1s139.8-80.1 134.5-167.4L386.8 128Z"/><path fill="#e3aa75" d="m412.9 401.2-85.3-30.1c-13.2-4.7-22-17.1-22-31.1v-42.7h-99.1V340c0 14-8.8 26.5-22 31.1l-85.3 30.1c-19.8 7-33.1 25.7-33.1 46.7v39.3c0 13.7 11.1 24.8 24.8 24.8h330.3c13.7 0 24.8-11.1 24.8-24.8V448c-.1-21-13.3-39.8-33.1-46.8Z"/><path fill="#f5b97d" d="M90.8 512h330.3c13.7 0 24.8-11.1 24.8-24.8V448c0-21-13.2-39.7-33.1-46.7l-42.4-15c-13.2 15.4-50.7 55.4-104.7 80.3-3.1 1.4-6.5 2.2-9.8 2.2-3.4 0-6.7-.7-9.8-2.2-54-25-91.5-64.9-104.7-80.3l-42.4 15c-19.8 7-33.1 25.7-33.1 46.7v39.3c.2 13.6 11.3 24.7 24.9 24.7Z"/><g clip-path="url(#a)"><path fill="#fff" d="M58.6 490.5h387.3v14.8H58.6Z"/><path d="M58.6 505.4h387.3v7.4H58.6Z"/><path fill="#fff" d="M58.6 470.4h387.3v14.8H58.6Z"/><path d="M58.6 485.2h387.3v7.4H58.6Z"/><path fill="#fff" d="M58.6 448.2h387.3V463H58.6Z"/><path d="M58.6 463h387.3v7.4H58.6Z"/><path fill="#fff" d="M58.6 426h387.3v14.8H58.6Z"/><path d="M58.6 440.9h387.3v7.4H58.6Z"/><path fill="#fff" d="M58.6 403.9h387.3v14.8H58.6Z"/><path d="M58.6 418.7h387.3v7.4H58.6Z"/><path fill="#fff" d="M58.6 382.3h387.3v14.8H58.6Z"/><path d="M58.6 397.1h387.3v7.4H58.6Z"/></g><path fill="#fff" d="m128.4 395.3.3.4.3.4c14.3 16.7 53.6 58.4 110.3 84.6 5.3 2.4 10.9 3.7 16.7 3.7 5.8 0 11.5-1.2 16.7-3.7 56.7-26.2 96-67.9 110.3-84.6l.3-.4.3-.4 3.2-4.2-16.4-5.8c-13.2 15.4-50.7 55.4-104.7 80.3-3.1 1.4-6.5 2.2-9.8 2.2-3.4 0-6.7-.7-9.8-2.2-54-25-91.5-64.9-104.7-80.3l-16.4 5.8 3.4 4.2Z"/><path fill="#8c5f4b" d="M305.5 333.8c0 72.9 52.7 112.1 38.5 178.2 0 0 15.2-.5 54 0 6.6-80.9-7.2-225.2-7.2-225.2l-85.3 47Zm-196.8-67.4 5.1 245.6h76.1c0-66.1 16.5-99.7 16.5-172.6v-33l-97.7-40Z"/><path fill="#5a3d30" d="m318.3 293.9-12.8 7.9c-4 118.9 52.8 144.2 38.6 210.2 0 0 21.9-8 15.2-62.9-21.4-110.5 4.2-231.5 4.2-231.5l-45.2 76.3Z"/><path fill="#d29b6e" d="M206.5 319.8c15.2 6.7 32 10.6 49.5 10.6s34.3-3.8 49.5-10.6v-22.5h-99.1l.1 22.5Z"/><path fill="#5a3d30" d="M148.6 214.7s25.6 121 4.2 231.5c-6.7 54.9 15.2 62.9 15.2 62.9-14.2-66.1 42.6-91.4 38.6-210.2l-12.8-7.9-45.2-76.3Z"/><path fill="#f5b97d" d="M322.1 63.1H189.9c-22.8 0-41.3 54.5-41.3 77.3v63c0 57.8 44.4 107.5 102.2 110.3 61.6 2.9 112.5-46.2 112.5-107.2v-66.1c.1-22.8-18.4-77.3-41.2-77.3Z"/><path fill="#b65f56" d="M256 264.3c-12.4 0-23.8-4-30.6-10.6-3.2-3.2-3.3-8.4-.1-11.7 3.2-3.3 8.4-3.3 11.7-.1 2.8 2.7 9.4 5.9 19 5.9s16.2-3.2 19-5.9c3.2-3.2 8.5-3.2 11.7.1 3.2 3.2 3.2 8.5-.1 11.7-6.8 6.6-18.2 10.6-30.6 10.6Z"/><path fill="#8c5f4b" d="M198.2 148.6c-3.7 0-7.1-2.5-8-6.3-1.1-4.4 1.6-8.9 6-10l16.5-4.1c4.4-1.1 8.9 1.6 10 6 1.1 4.4-1.6 8.9-6 10l-16.5 4.1c-.7.3-1.4.3-2 .3Zm115.6 0c-.7 0-1.3-.1-2-.2l-16.5-4.1c-4.4-1.1-7.1-5.6-6-10 1.1-4.4 5.6-7.1 10-6l16.5 4.1c4.4 1.1 7.1 5.6 6 10-.9 3.7-4.3 6.2-8 6.2Z"/><path fill="#583b2f" d="M221.5 174.5c0 4.6-4.3 8.3-9.7 8.3h-9.7c-5.3 0-9.7-3.7-9.7-8.3 0-4.6 4.3-8.3 9.7-8.3h9.7c5.4 0 9.7 3.7 9.7 8.3Zm98.4 0c0 4.6-4.3 8.3-9.7 8.3h-9.7c-5.3 0-9.7-3.7-9.7-8.3 0-4.6 4.3-8.3 9.7-8.3h9.7c5.4 0 9.7 3.7 9.7 8.3Z"/><path fill="#694738" d="M358.1 239.6c-4 118.9 42.9 173.3 28.7 239.4 0 0 23.3-62.2 16.6-117.1C381.9 251.4 441.9 7.6 263.2.2c6.2 7.2 6.5 47.3 12 54.2 115.6 144.4 82.9 185.2 82.9 185.2Z"/><path fill="#694738" d="M263.2.2c-205.9 0-137.6 251.2-159 361.7-6.7 54.9 16.5 117.1 16.5 117.1-14.2-66.1 27.9-275.5 86.3-376.1 0 0 24.5-3 58.5-37.4 9.3-9.4-16.6-57.3-2.3-65.3Z"/></svg>