<svg width="512" height="512" xmlns="http://www.w3.org/2000/svg"><path fill="#332a2f" d="M256 346.6c49.6 0 103.6-18.1 124.2-26.3 8.5-3.4 19.5-31.5 16-39.9-7.3-17.6.4-39.1.4-82v-57.9C396.6 62.9 333.6 0 256 0S115.4 62.9 115.4 140.6v57.9c0 42.8 12.7 81.4 5.4 98.9-3.5 8.4-9.5 26.5-1 29.9 20.6 8.2 86.6 19.3 136.2 19.3Z"/><path fill="#9bf22a" d="M317 77c31 21 78.4 46.3 78.4 46.3C386.9 53.8 327.8 0 256 0c0 0 30 56 61 77Z"/><path fill="#e3aa75" d="M413.1 401.1 327.7 371c-13.2-4.7-22.1-17.2-22.1-31.2v-51h-99.2v51c0 14-8.8 26.5-22.1 31.2l-85.4 30.1c-19.8 7-33.1 25.8-33.1 46.8v39.3c0 13.7 11.1 24.8 24.8 24.8h330.8c13.7 0 24.8-11.1 24.8-24.8v-39.3c0-21.1-13.3-39.8-33.1-46.8Z"/><path fill="#020001" d="M90.6 512h330.8c13.7 0 24.8-11.1 24.8-24.8v-39.3c0-21-13.3-39.8-33.1-46.8l-73.2-25.8c-12.3 19.5-40.4 56.9-81.3 69.8-1.7.5-3.5.5-5.2 0-41-12.9-69-50.4-81.3-69.8l-73.2 25.8c-19.8 7-33.1 25.8-33.1 46.8v39.3c0 13.7 11.1 24.8 24.8 24.8Z"/><path fill="#152115" d="M248.4 460.8c2.4.8 5 1.1 7.5 1.1 2.6 0 5.1-.4 7.6-1.2 48.5-15.3 80-59.6 92.3-79.9l-28.2-10c-1.3-.4-2.4-1-3.6-1.6-11.6 17.7-35.2 47.8-68.1 59.2-32.7-11.4-56.4-41.5-68.1-59.2-1.2.6-2.4 1.2-3.6 1.6l-28.2 10c12.4 20.4 44 64.8 92.4 80Z"/><path fill="#d29b6e" d="M206.4 319.5c13.5 6 28.1 9.7 43.6 10.4 2 .1 4 .1 6 .1 17.6 0 34.4-3.8 49.6-10.4v-30.9h-99.2v30.8Z"/><path fill="#332a2f" d="M185.8 333c7.3 19.6 19.3 45.6 19.3 45.6 18.6-36 5.9-93.2-23.7-102.2.1 0-2.9 37 4.4 56.6ZM324.7 285.6c-29.5 9-42.3 66.1-23.7 102.2 0 0 12-26 19.3-45.6 7.3-19.6 4.4-56.6 4.4-56.6ZM134.9 332.5c3 18.1 8.9 41.7 8.9 41.7 21.8-38.5 20.4-92.7-3.3-96.7 0 0-8.6 36.9-5.6 55Z"/><path fill="#f5b97d" d="M330.4 139.9h-13.1c-2.2 0-4.3-.9-5.8-2.4L281 107c-3.1-3.1-8.5-.9-8.5 3.5v21.1c0 4.6-3.7 8.3-8.3 8.3h-82.7c-18.3 0-33.1 14.8-33.1 33.1v30c0 57.9 44.5 107.7 102.3 110.4 61.7 2.9 112.7-46.3 112.7-107.4v-33.1c.1-18.2-14.7-33-33-33Z"/><path fill="#e3aa75" d="M330.4 139.9h-13.1c-2.2 0-4.3-.9-5.8-2.4L281 107c-3.1-3.1-8.5-.9-8.5 3.5v21.1c0 4.6-3.7 8.3-8.3 8.3h-82.7c-18.3 0-33.1 14.8-33.1 33.1v29.8c0 48.5 30.9 92.9 77.5 106.5 16.2 4.7 31.9 5.3 46.6 3-52.2-8.2-91-55.2-91-109.2v-13.5c0-18.3 14.8-33.1 33.1-33.1h99.2c9.2-.1 16.6-7.5 16.6-16.6Z"/><path fill="#423c16" d="M173.2 194.9h55.3s4.1 39.5-27.8 42.7c-33.5 3.4-27.5-42.7-27.5-42.7ZM280.3 194.9H339s4.3 41.5-29.5 44.9c-35.6 3.6-29.2-44.9-29.2-44.9Z"/><path fill="#332a2f" d="M214.7 172.9h-16.5c-4.6 0-8.3-3.7-8.3-8.3 0-4.6 3.7-8.3 8.3-8.3h16.5c4.6 0 8.3 3.7 8.3 8.3-.1 4.6-3.8 8.3-8.3 8.3ZM313.9 172.9h-16.5c-4.6 0-8.3-3.7-8.3-8.3 0-4.6 3.7-8.3 8.3-8.3h16.5c4.6 0 8.3 3.7 8.3 8.3 0 4.6-3.7 8.3-8.3 8.3ZM206.4 206.7c-4.6 0-8.3-3.7-8.3-8.3v-8.3c0-4.6 3.7-8.3 8.3-8.3 4.6 0 8.3 3.7 8.3 8.3v8.3c0 4.6-3.7 8.3-8.3 8.3ZM305.6 206.7c-4.6 0-8.3-3.7-8.3-8.3v-8.3c0-4.6 3.7-8.3 8.3-8.3 4.6 0 8.3 3.7 8.3 8.3v8.3c0 4.6-3.7 8.3-8.3 8.3Z"/><path fill="#152115" d="M140.2 512v-25.9c0-11.7-5-22.9-13.7-30.8l-46.7-42c-3.9 4-7 8.7-9.3 13.8l45 40.5c5.2 4.7 8.2 11.4 8.2 18.5V512h16.5ZM371.8 512v-25.9c0-11.7 5-22.9 13.7-30.8l46.7-42c3.9 4 7 8.7 9.3 13.8l-45 40.5c-5.2 4.7-8.2 11.4-8.2 18.5V512h-16.5Z"/><path fill="#9bf22a" d="M254-.7c-71.8 0-130.9 53.8-139.4 123.3 0 0 44.4-25.7 75.4-46.7 31-21 64-76.6 64-76.6Z"/><path fill="#9bf22a" d="M254.1.6c-40.2 26-53.7 77.7-33.2 120 0 0 9.8-34 25.3-53.6C267.1 40.3 254.1.6 254.1.6Z"/><path fill="#332a2f" d="M291.8 47.9c-40.2 26-53.7 77.7-33.2 120 0 0 9.8-34 25.3-53.6 20.9-26.7 7.9-66.4 7.9-66.4Z"/><path fill="#9bf22a" d="M281.1 73.6C299.1 97 326 127 326 127 336.2 71.4 295.4.1 251.8-.2c0 0 11.2 50.5 29.3 73.8Z"/><path fill="#6e5a64" d="M272.4 264.5h-28.7c-7.9 0-14.4-2.9-14.4-6.5s6.4-6.5 14.4-6.5h28.7c7.9 0 14.4 2.9 14.4 6.5s-6.4 6.5-14.4 6.5Z"/><path fill="#332a2f" d="M141.3 310.5c14.6 29.7 37.4 69.7 37.4 69.7 23.4-45.2-5.6-129.2-53.2-150.4 0 0 1.2 51 15.8 80.7Z"/><path fill="#332a2f" d="M113.9 320.7c-3.7 16.6-6.8 39.1-6.8 39.1 30.9-21.5 48.1-67.3 30-82.1 0 0-19.5 26.4-23.2 43ZM327.5 330.3c-5.5 20.2-11.1 48.3-11.1 48.3 36.2-18.3 59.3-72.1 40.7-96.7-.1 0-24.1 28.1-29.6 48.4ZM396.3 172.9c-31 38-22.7 120 13.8 147.4 0 0 3.4-42.9 4.1-73.8.7-30.9-17.9-73.6-17.9-73.6Z"/><path fill="#332a2f" d="M356.2 289.9c0 33.1 2.8 79 2.8 79 41-30.3 52-118.4 18.6-158.4 0 0-21.4 46.3-21.4 79.4Z"/><path fill="#198c10" d="M276.2 229c-3.9 0-7.4-2.8-8.1-6.7-1.2-6.4-6.9-11.1-13.6-11.1-6.7 0-12.4 4.7-13.6 11.1-.8 4.5-5.2 7.5-9.6 6.6-4.5-.8-7.4-5.2-6.6-9.6 2.7-14.2 15.2-24.5 29.8-24.5 14.6 0 27.2 10.3 29.8 24.5.8 4.5-2.1 8.8-6.6 9.6-.5 0-1 .1-1.5.1Z"/><path fill="#198c10" d="m160.7 224.4-5.2-36.5c-.3-2.4.4-4.8 1.9-6.6 1.6-1.8 3.8-2.8 6.2-2.8H238c2.4 0 4.7 1 6.2 2.8 1.6 1.8 2.3 4.2 1.9 6.6l-4.2 29.4c-2.9 20.2-20.5 35.5-40.9 35.5h-7.7c-16.2-.1-30.3-12.3-32.6-28.4Zm12.5-29.5L177 222c1.2 8.1 8.2 14.2 16.3 14.2h7.7c12.2 0 22.8-9.1 24.5-21.3l2.9-20h-55.2ZM315.6 252.7h-7.7c-20.4 0-38-15.2-40.9-35.5l-4.2-29.4c-.3-2.4.4-4.8 1.9-6.6 1.6-1.8 3.8-2.8 6.2-2.8h74.3c2.4 0 4.7 1 6.2 2.8 1.6 1.8 2.3 4.2 1.9 6.6l-5.2 36.5c-2.1 16.2-16.2 28.4-32.5 28.4Zm-35.1-57.8 2.9 20c1.7 12.1 12.3 21.3 24.5 21.3h7.7c8.2 0 15.2-6.1 16.3-14.2l3.9-27.1h-55.3Z"/></svg>