<svg width="512" height="512" xmlns="http://www.w3.org/2000/svg"><path fill="#8c5f4b" d="M149.5 396.4S91.2 287.7 90.6 175.8c-.2-62.4 32.5-117.8 90.2-151.1l49.5-.2 1.8 371.6-82.6.3Z"/><path fill="#a06e50" d="M363.4 388.1s66.1-107.4 66.1-214.7C429.4 77.6 351.8 0 256 0h-16.5c-41.3 0-74.3 25.9-74.3 57.8 0 18.2 14.8 33 33 33h33v297.3h132.2Z"/><path fill="#ffe17d" d="M156.9 256c0 9.1-7.4 16.5-16.5 16.5s-16.5-7.4-16.5-16.5c0-16.5 16.5-49.5 16.5-49.5s16.5 33 16.5 49.5Z"/><path fill="#ffd164" d="M140.4 206.5s-16.5 33-16.5 49.5c0 9.1 7.4 16.5 16.5 16.5v-66Z"/><path fill="#ffe17d" d="M388.1 256c0 9.1-7.4 16.5-16.5 16.5s-16.5-7.4-16.5-16.5c0-16.5 16.5-49.5 16.5-49.5s16.5 33 16.5 49.5Z"/><path fill="#ffd164" d="M371.6 206.5s-16.5 33-16.5 49.5c0 9.1 7.4 16.5 16.5 16.5v-66Z"/><path fill="#f7d291" d="m412.9 401.2-85.3-30.1c-13.2-4.7-22-17.1-22-31.1v-42.7h-99.1V340c0 14-8.8 26.5-22 31.1l-85.3 30.1c-19.8 7-33.1 25.7-33.1 46.7v39.3c0 13.7 11.1 24.8 24.8 24.8h330.3c13.7 0 24.8-11.1 24.8-24.8V448c-.1-21-13.3-39.8-33.1-46.8Z"/><path fill="#d29b6e" d="M256 330.3c17.5 0 34.3-3.8 49.5-10.6v-22.5h-99.1v22.5c15.3 6.8 32.1 10.6 49.6 10.6Z"/><path fill="#ffe1a0" d="M367.5 173.4h-4.1v-33c0-27.4-22.2-49.5-49.5-49.5H198.2c-27.4 0-49.5 22.2-49.5 49.5v33h-4.1c-11.4 0-20.6 9.2-20.6 20.6 0 11.4 9.2 20.6 20.6 20.6h4.5c4.2 55.4 50.4 99.1 106.9 99.1 56.5 0 102.7-43.7 106.9-99.1h4.5c11.4 0 20.6-9.2 20.6-20.6.1-11.3-9.1-20.6-20.5-20.6Z"/><path fill="#5a4650" d="M206.5 198.9c-4.6 0-8.3-3.7-8.3-8.3v-8.3c0-4.6 3.7-8.3 8.3-8.3 4.6 0 8.3 3.7 8.3 8.3v8.3c-.1 4.6-3.8 8.3-8.3 8.3ZM305.5 198.9c-4.6 0-8.3-3.7-8.3-8.3v-8.3c0-4.6 3.7-8.3 8.3-8.3 4.6 0 8.3 3.7 8.3 8.3v8.3c0 4.6-3.7 8.3-8.3 8.3Z"/><path fill="#b67f5f" d="M256 264.3c-12.4 0-23.8-4-30.6-10.6-3.2-3.2-3.3-8.4-.1-11.7 3.2-3.3 8.4-3.3 11.7-.1 2.8 2.7 9.4 5.9 19 5.9s16.2-3.2 19-5.9c3.2-3.2 8.5-3.2 11.7.1 3.2 3.2 3.2 8.5-.1 11.7-6.8 6.6-18.2 10.6-30.6 10.6Z"/><path fill="#f7d291" d="M148.6 140.4v33h-3c-10.8 0-20.6 7.8-21.7 18.5-1.2 12.4 8.4 22.8 20.5 22.8h4.5c4.2 55.4 50.4 99.1 106.9 99.1 5.6 0 11.2-.5 16.6-1.4-51.5-7.9-90.9-52.3-90.9-106v-66.1c0-18.2 14.8-33 33-33h90.8c9.1 0 16.5-7.4 16.5-16.5H198.2c-27.4 0-49.6 22.2-49.6 49.6Z"/><path fill="#a06e50" d="M199.8 174.1c-3 0-5.9-1.7-7.4-4.6-2-4.1-.4-9 3.7-11.1l16.5-8.2c4.1-2 9-.4 11.1 3.7 2 4.1.4 9-3.7 11.1l-16.5 8.2c-1.2.7-2.5.9-3.7.9ZM315.2 174.1c3 0 5.9-1.7 7.4-4.6 2-4.1.4-9-3.7-11.1l-16.5-8.2c-4.1-2-9-.4-11.1 3.7-2 4.1-.4 9 3.7 11.1l16.5 8.2c1.2.7 2.5.9 3.7.9Z"/><path fill="#fff" d="m412.9 400.9-74.4-26.3c-1.6 44.2-37.8 79.6-82.4 79.6-44.6 0-80.9-35.4-82.4-79.6l-74.4 26.3c-19.8 7-33.1 25.7-33.1 46.7v39.6c0 13.7 11.1 24.8 24.8 24.8h330.3c13.7 0 24.8-11.1 24.8-24.8v-39.6c-.2-21-13.4-39.7-33.2-46.7Z"/><path fill="#1d1d1b" d="M445.9 487.2H66.1c0 13.7 11.1 24.8 24.8 24.8h330.3c13.6 0 24.7-11.1 24.7-24.8ZM66.2 445.9h154c-11.9-5.8-22.2-14.3-30.1-24.8H73.8c-4.6 7.4-7.3 15.8-7.6 24.8ZM438.2 421.2H321.9c-7.9 10.5-18.2 19-30.1 24.8h154c-.3-9.1-3-17.5-7.6-24.8Z"/><path fill="#ddd8c7" d="m158.6 402.5-17.6-24-57.8 19c-17.9 7.8-29.8 28.7-29.8 52.1v34.6c0 15.3 10 27.6 22.4 27.6h89.4v-89.9c0-7.1-2.4-14.2-6.6-19.4ZM351.3 402.5l17.6-24 57.8 19c17.9 7.8 29.8 28.7 29.8 52.1v34.6c0 15.3-10 27.6-22.4 27.6h-89.4v-89.9c0-7.1 2.4-14.2 6.6-19.4Z"/></svg>