<svg width="512" height="512" xmlns="http://www.w3.org/2000/svg"><path fill="#f5b97d" d="m428.7 358-142.1-44.6H231L88.9 358c-25.9 8.1-43.3 30-43.3 54.4v74.9c0 13.7 12.5 24.7 27.8 24.7h370.8c15.4 0 27.8-11.1 27.8-24.7v-74.9c0-24.5-17.4-46.3-43.3-54.4Z"/><path fill="#e3aa75" d="M258.8 379.3c-30.7 0-55.6-22.2-55.6-49.5v-41.2h111.2v41.2c0 27.4-24.9 49.5-55.6 49.5Z"/><path fill="#d29b6e" d="M206.5 319.4c15.2 6.7 31.9 10.4 49.5 10.4s34.3-3.8 49.5-10.4v-30.8h-99v30.8Z"/><path fill="#1d1d1b" d="M177.1 147.1c.1-.9.3-1.8.3-2.8 0-10.8-4.2-20.5-11-27.8 13.4-6.2 22-21 18.4-37.5-2.7-12-12.4-21.8-24.3-24.5-21.6-4.9-40.8 11.3-40.8 32.1 0 2.5.3 5 .8 7.3 1.5 6.4-1.9 12.7-7.4 16.4-10.9 7.4-18.2 19.8-18.2 34 0 11.6 4.8 22 12.5 29.5 3.7 3.6 4.9 9 4.3 14.2-.4 3.4-.5 6.9-.1 10.5 2.3 24.8 24 44.6 49 44.7 27.5.2 49.8-22.1 49.8-49.5 0-21.5-13.9-39.9-33.3-46.6ZM333.6 147.1c-.1-.9-.3-1.8-.3-2.8 0-10.8 4.2-20.5 11-27.8-13.4-6.2-22-21-18.4-37.5 2.7-12 12.4-21.8 24.3-24.5 21.6-4.9 40.8 11.3 40.8 32.1 0 2.5-.3 5-.8 7.3-1.5 6.4 1.9 12.7 7.4 16.4 10.9 7.4 18.2 19.8 18.2 34 0 11.6-4.8 22-12.5 29.5-3.7 3.6-4.9 9-4.3 14.2.4 3.4.5 6.9.1 10.5-2.3 24.8-24 44.6-49 44.7-27.5.2-49.8-22.1-49.8-49.5 0-21.5 13.9-39.9 33.3-46.6Z"/><path fill="#f5b97d" d="M367.3 156.7h-4.1v-16.5C363.2 81 315.2 33 256 33S148.8 81 148.8 140.2v16.5h-4.1c-11.4 0-20.6 9.2-20.6 20.6 0 11.4 9.2 20.6 20.6 20.6h4.1v8.2c0 59.2 48 107.2 107.2 107.2s107.2-48 107.2-107.2v-8.2h4.1c11.4 0 20.6-9.2 20.6-20.6 0-11.4-9.2-20.6-20.6-20.6Z"/><path fill="#e3aa75" d="M181.8 206.2V62.9c-20.3 19.5-33 46.9-33 77.2v16.5h-4.1c-11.4 0-20.6 9.2-20.6 20.6 0 11.4 9.2 20.6 20.6 20.6h4.1v8.2c0 59.2 48 107.2 107.2 107.2 5.6 0 11.1-.6 16.5-1.4-51.4-7.8-90.7-52.1-90.7-105.6Z"/><path fill="#5a4650" d="M206.5 182.1c-4.6 0-8.2-3.7-8.2-8.2v-8.2c0-4.6 3.7-8.2 8.2-8.2 4.6 0 8.2 3.7 8.2 8.2v8.2c.1 4.5-3.6 8.2-8.2 8.2ZM305.5 182.1c-4.6 0-8.2-3.7-8.2-8.2v-8.2c0-4.6 3.7-8.2 8.2-8.2 4.5 0 8.2 3.7 8.2 8.2v8.2c0 4.5-3.7 8.2-8.2 8.2Z"/><path fill="#1d1d1b" d="M250 16.6C183.5 19.7 132.3 77 132.3 143.7v17.1l19.6-2.4c7.6-1 13.4-7.4 13.4-15.1 0-49.9 39.1-92.8 89-93.7 50.9-.9 92.4 40 92.4 90.7v3c0 7.7 5.7 14.2 13.4 15.1l19.6 2.4v-20.6c0-70.3-58.6-126.9-129.7-123.6Z"/><path fill="#313130" d="M346.5 52.8c-2.5-25-23.6-44.6-49.2-44.6-6.5 0-12.7 1.3-18.3 3.6C272.1 4.6 262.6 0 251.9 0c-20.5 0-37.1 16.6-37.1 37.1 0 19.5 15.1 35.3 34.2 36.8-.7 2.7-1.3 5.6-1.3 8.5 0 18.2 14.8 33 33 33 5.2 0 10-1.3 14.4-3.4 7.2 11.9 20.2 19.9 35.1 19.9 22.8 0 41.2-18.5 41.2-41.2.1-17-10.2-31.6-24.9-37.9Z"/><path fill="#6e5a64" d="M305 245.9c-7.6-10.7-31.7-24.5-41.9-24.5h-9.5c-10.4 0-35.3 14.4-42.4 25.2-25.1-4-46.6-21.2-62.1-30.5 4.7 55 50.6 98.2 106.8 98.2 56.2 0 102.2-43.2 106.8-98.2-14.4 8.8-34.4 25.7-57.7 29.8ZM233.3 259c2.4-1.3 13.8-6 21.9-6h3.4c2.7 0 23.3 6.7 25.7 7.9-20.6.7-27.7.2-28.2.2-2 0-20.9-2.1-22.8-2.1Z" opacity=".5"/><path fill="#313130" d="M275.1 217.2h-38.2c-12.6 0-23.2 9.5-24.6 22l-3.9 35.1c-1.1 10.3 4.3 20.3 13.5 24.9l23 11.5c7 3.5 15.2 3.5 22.2 0l23-11.5c9.3-4.6 14.7-14.6 13.5-24.9l-3.9-35.1c-1.4-12.5-12-22-24.6-22Z"/><path fill="#1d1d1b" d="M253.2 301.8c-9.3-5.7-14.7-18-13.5-30.7l3.9-43.3c.3-3.8 1.3-7.4 2.6-10.6h-9.3c-12.6 0-23.2 9.5-24.6 22l-3.9 35.1c-1.1 10.3 4.3 20.3 13.5 24.9l23 11.5c7 3.5 15.2 3.5 22.2 0l.3-.2-14.2-8.7Z"/><path fill="#e3aa75" d="M256 257.6c-12.5 0-24-4-30.8-10.7-3.3-3.2-3.3-8.5-.1-11.8 3.2-3.3 8.5-3.3 11.8-.1 2.8 2.7 9.4 5.9 19.1 5.9 9.7 0 16.4-3.2 19.1-5.9 3.3-3.2 8.5-3.2 11.8.1 3.2 3.3 3.2 8.5-.1 11.8-6.8 6.7-18.3 10.7-30.8 10.7Z"/><path fill="#64505a" d="M223 148.9h-24.8c-4.6 0-8.3-3.7-8.3-8.3 0-4.6 3.7-8.3 8.3-8.3H223c4.6 0 8.3 3.7 8.3 8.3-.1 4.6-3.8 8.3-8.3 8.3ZM313.8 148.9H289c-4.6 0-8.3-3.7-8.3-8.3 0-4.6 3.7-8.3 8.3-8.3h24.8c4.6 0 8.3 3.7 8.3 8.3 0 4.6-3.7 8.3-8.3 8.3Z"/><path fill="#003a55" d="m441.7 359.1-97.9-29.2-85.1 12.6-85.1-12.6-97.9 29.2c-23.7 7.1-40 29.2-40 54.2v42.2l92.9 18.8V512h260.2v-37.7l92.9-18.8v-42.2c.1-25.1-16.2-47.2-40-54.2Z"/><path fill="#103144" d="M268.1 443.1h-18.6c-5.1 0-9.3-4.2-9.3-9.3v-92.9h37.2v92.9c-.1 5.2-4.2 9.3-9.3 9.3Z"/><path fill="#103144" d="m202.3 389.4 56.5-48.4-75.1-41.8c-4.6-2.6-10.5-.8-12.8 4l-12 24c-1.4 2.8-1.3 6.1.2 8.8l29.1 51c2.8 5 9.6 6.2 14.1 2.4ZM315.3 389.4 258.8 341l75.1-41.8c4.6-2.6 10.5-.8 12.8 4l12 24c1.4 2.8 1.3 6.1-.2 8.8l-29.1 51c-2.9 5-9.7 6.2-14.1 2.4ZM128.7 474.8v-20.5c0-13.3-5.7-25.9-15.6-34.7l-55.3-49.2c-5 3.8-9.2 8.4-12.7 13.6l55.6 49.5c5.9 5.3 9.4 12.9 9.4 20.8v16.8l18.6 3.7ZM388.8 474.8v-20.5c0-13.3 5.7-25.9 15.6-34.7l55.3-49.2c5 3.8 9.2 8.4 12.7 13.6l-55.6 49.5c-5.9 5.3-9.4 12.9-9.4 20.8v16.8l-18.6 3.7Z"/></svg>