<svg width="500" height="500" xmlns="http://www.w3.org/2000/svg"><path fill="#af0015" d="M323.41 325.683s57.147-28.941 97.026-5.205c39.88 23.736 80.208 94.469 79.242 125.126-.965 30.656.322 55.067.322 55.067l-91.118-.992ZM176.159 325.188s-57.147-28.942-97.027-5.196C39.253 343.738-.958 415.602.017 446.268c.975 30.667.322 53.739.322 53.739h91.118Z"/><path fill="#f7d291" d="m408.434 350.57-84.83-25.382c-10.276-3.074-17.334-12.665-17.335-23.558v-29.02H193.495v29.02c-.001 10.893-7.059 20.484-17.336 23.558L91.33 350.57c-20.559 6.153-34.675 25.342-34.672 47.135v77.871c0 13.548 10.789 24.538 24.112 24.56h338.184c13.34 0 24.152-10.996 24.152-24.56v-77.871c.003-21.793-14.113-40.982-34.672-47.135Z"/><path fill="#066cff" d="m408.434 350.57-21.09-6.306-137.482 69.9-137.48-69.9-21.09 6.306c-20.56 6.153-34.676 25.342-34.673 47.135v77.871c0 13.564 10.813 24.56 24.151 24.56h338.184c13.34 0 24.152-10.996 24.152-24.56v-77.871c.003-21.793-14.113-40.982-34.672-47.135Z"/><path fill="#e3aa75" d="M193.495 290.932c35.181 19.301 77.553 19.301 112.735 0v-18.323H193.495Z"/><path fill="#ffe1a0" d="M358.56 149.794h-4.017V67.917H145.192v81.877h-4.027c-7.298-.163-14.11 3.702-17.806 10.102a20.772 20.772 0 0 0 0 20.734c3.695 6.4 10.508 10.266 17.806 10.102h4.426c1.326 4.958 41.03 93.15 75.556 94.747 17.678-.278 15.406-7.04 30.159-7.04 14.323 0 16.575 9.915 31.454 9.24 52.965-2.349 67.834-87.448 71.374-96.947h4.426c7.298.164 14.11-3.702 17.806-10.102a20.772 20.772 0 0 0 0-20.734c-3.696-6.4-10.508-10.265-17.806-10.102Z"/><path fill="#f7d291" d="M177.397 182.543V67.917h-32.176v81.877h-4.027c-7.297-.163-14.11 3.702-17.806 10.102a20.772 20.772 0 0 0 0 20.734c3.696 6.4 10.509 10.266 17.806 10.102h4.427c4.124 54.949 55.45 94.142 78.803 95.292 5.499.278 12.48-4.61 19.286-6.593-54.3-9.39-66.313-43.675-66.313-96.888Z"/><path fill="#e3aa75" d="M249.862 231.67c-12.08 0-23.225-3.965-29.807-10.549-2.892-3.213-2.804-8.167.2-11.273a7.958 7.958 0 0 1 11.082-.386c2.681 2.696 9.136 5.83 18.525 5.83 9.39 0 15.825-3.134 18.526-5.83a7.958 7.958 0 0 1 11.202.266c3.05 3.149 3.095 8.19.099 11.393-6.601 6.604-17.746 10.55-29.827 10.55Z"/><path fill="#af0015" d="M323.566 325.188 267.51 376.04l-30.149-5.612-61.203-45.241-63.778 19.076 137.481 69.9 137.482-69.9Z"/><path fill="#0b1299" d="m386.944 414.64 48.518-43.18a48.827 48.827 0 0 0-10.774-12.175l-48.343 43.02c-8.74 7.775-13.756 19.007-13.758 30.816v67.014h16.108v-67.014c-.002-7.082 3.005-13.82 8.249-18.481ZM112.781 414.64l-48.518-43.18a48.832 48.832 0 0 1 10.725-12.175l48.343 43.02c8.741 7.775 13.756 19.007 13.758 30.816v67.014H121.03v-67.014c.002-7.082-3.005-13.82-8.249-18.481Z"/><path fill="#f42539" d="M274.014 390.566c0 13.564-10.813 24.56-24.152 24.56-13.338 0-24.151-10.996-24.151-24.56 0-13.563 10.813-24.559 24.151-24.559 13.34 0 24.152 10.996 24.152 24.56Z"/><path fill="#89031a" d="M261.943 402.84c-8.206.034-15.863-4.186-20.314-11.197-4.45-7.01-5.081-15.844-1.673-23.435-9.81 4.473-15.526 15.004-14.02 25.828 1.505 10.824 9.87 19.33 20.514 20.861 10.644 1.531 21.001-4.282 25.4-14.257a23.7 23.7 0 0 1-9.907 2.2Z"/><path fill="#231708" d="m184.437 43.348.975 32.719s-24.152 24.57-24.152 57.318v10.103c.003 8.261-6.047 15.23-14.109 16.25l-18.067 2.3V92.477c0-27.137 25.156-50.496 55.353-49.128ZM315.288 18.789l-.975 57.308s24.161 24.569 24.161 57.318v10.103c-.003 8.26 6.048 15.23 14.11 16.25l18.057 2.27v-94.19c0-27.068-25.156-50.427-55.353-49.06Z"/><path fill="#160e04" d="M275.701 1.17c-61.067 9.42-91.488 20.464-136.018 44.28-3.062 1.636 2.028 24.38 4.329 27.256 12.831 16.082 123.645 7.476 176.775 1.269 12.09-5.612 20.125-18.372 20.573-32.937.517-16.855-10.92-31.728-25.594-37.072C304.094-.267 289.536-.96 275.7 1.17Z"/><path fill="#6e5a64" d="M201.549 183.257c-4.448 0-8.054-3.667-8.054-8.19v-8.19c.005-4.52 3.61-8.181 8.054-8.181 4.445 0 8.05 3.661 8.054 8.181v8.19c0 4.523-3.606 8.19-8.054 8.19ZM298.176 183.257c-4.448 0-8.054-3.667-8.054-8.19v-8.19c0-4.523 3.606-8.19 8.054-8.19s8.054 3.667 8.054 8.19v8.19c0 4.523-3.606 8.19-8.054 8.19Z"/><path fill="#160e04" d="M209.603 149.794h-16.108c-4.445-.005-8.046-3.67-8.046-8.19s3.601-8.185 8.046-8.19h16.108c4.445.005 8.046 3.67 8.046 8.19s-3.601 8.185-8.046 8.19ZM306.23 149.794h-16.108c-4.445-.005-8.046-3.67-8.046-8.19s3.601-8.185 8.046-8.19h16.108c4.445.005 8.046 3.67 8.046 8.19s-3.601 8.185-8.046 8.19Z"/><path fill="#f9e815" stroke="#af0015" stroke-width="18" stroke-linecap="round" stroke-linejoin="round" d="m304.163 500.314 28.744-29.2-33.152-38.37H189.741l-34.126 39.094 26.823 28.476"/><path fill="#160e04" d="M217.384 88.808c7.01 21.951 14.42 24.152 24.707 39.44.286.496.793.816 1.356.857.562.042 1.11-.2 1.462-.648 4.047-5.394 13.28-23.528-8.327-59.27-2.356-4.098-6.802-6.472-11.456-6.118-5.188.535-8.951 5.364-9.595 10.906-.39 5.021.24 10.07 1.853 14.833Z"/><path fill="#f7d291" d="M263.708 259.105a8.25 8.25 0 0 1-2.36 5.788 7.977 7.977 0 0 1-5.694 2.392H247.6c-2.942.104-5.706-1.433-7.208-4.008a8.309 8.309 0 0 1 0-8.354c1.502-2.575 4.266-4.112 7.208-4.007h8.054c4.448 0 8.054 3.666 8.054 8.19Z"/></svg>