<svg width="512" height="512" xmlns="http://www.w3.org/2000/svg"><path fill="#5a4650" d="M398.951 284.288c-14.033-17.216-36.924-40.679-52.112-53.063H165.161c-15.188 12.383-38.079 35.847-52.112 53.063-9.207 11.294-6.319 27.234 6.25 35.411 19.631 12.773 51.186 31.095 87.152 43.568h99.097c35.966-12.473 67.521-30.795 87.152-43.568 12.57-8.177 15.457-24.116 6.251-35.411Z"/><path fill="#b67f5f" d="m412.878 401.236-85.291-30.103a33.032 33.032 0 0 1-22.039-31.149v-50.952h-99.097v50.952a33.033 33.033 0 0 1-22.038 31.149l-85.291 30.103c-19.81 6.992-33.057 25.716-33.057 46.723v39.267c0 13.682 11.092 24.774 24.774 24.774h330.323c13.682 0 24.774-11.092 24.774-24.774v-39.267c-.001-21.007-13.248-39.731-33.058-46.723Z"/><path fill="#ffe17d" d="m412.878 401.236-66.039-23.308v34.975c0 13.682-11.092 24.774-24.774 24.774h-132.13c-13.682 0-24.774-11.092-24.774-24.774v-34.975l-66.039 23.308c-19.81 6.991-33.057 25.716-33.057 46.723v39.267c0 13.682 11.092 24.774 24.774 24.774h330.323c13.682 0 24.774-11.092 24.774-24.774v-39.267c-.001-21.007-13.248-39.732-33.058-46.723Z"/><path fill="#a06e50" d="M206.452 319.908c15.189 6.66 31.929 10.415 49.548 10.415 17.619 0 34.359-3.755 49.548-10.415v-30.876h-99.097l.001 30.876Z"/><path fill="#5a4650" d="M396.39 140.39c0 77.535-62.855 140.39-140.39 140.39s-140.39-62.855-140.39-140.39S178.465 0 256 0s140.39 62.855 140.39 140.39Z"/><path fill="#cd916e" d="M256 313.806c-59.291 0-107.355-48.064-107.355-107.355V165.16c0-59.29 48.064-107.355 107.355-107.355h107.355V206.45c0 59.292-48.065 107.356-107.355 107.356Z"/><path fill="#b67f5f" d="M181.677 206.452V87.806c-20.327 19.534-33.032 46.938-33.032 77.355v41.29c0 59.29 48.065 107.355 107.355 107.355 5.632 0 11.118-.564 16.516-1.4-51.428-7.962-90.839-52.296-90.839-105.954Z"/><path fill="#b67f5f" d="M206.452 181.677c10.752 0 19.833 6.924 23.253 16.516.925-2.596 1.522-5.348 1.522-8.258 0-13.661-11.113-24.774-24.774-24.774-13.661 0-24.774 11.113-24.774 24.774 0 2.91.596 5.662 1.522 8.258 3.418-9.591 12.499-16.516 23.251-16.516ZM305.548 181.677c10.751 0 19.833 6.924 23.253 16.516.925-2.596 1.522-5.348 1.522-8.258 0-13.661-11.113-24.774-24.774-24.774-13.661 0-24.774 11.113-24.774 24.774 0 2.91.596 5.662 1.522 8.258 3.419-9.591 12.5-16.516 23.251-16.516Z"/><path fill="#ffc350" d="M239.48 173.42h33.03v16.516h-33.03Z"/><path fill="#5a4650" d="M206.452 198.911a8.256 8.256 0 0 1-8.258-8.258v-8.258a8.256 8.256 0 0 1 8.258-8.258 8.256 8.256 0 0 1 8.258 8.258v8.258a8.256 8.256 0 0 1-8.258 8.258ZM305.548 198.911a8.256 8.256 0 0 1-8.258-8.258v-8.258a8.256 8.256 0 0 1 8.258-8.258 8.256 8.256 0 0 1 8.258 8.258v8.258a8.255 8.255 0 0 1-8.258 8.258Z"/><path fill="#a06e50" d="M256 264.258c-12.387 0-23.823-3.976-30.573-10.637-3.25-3.202-3.282-8.431-.081-11.677 3.202-3.246 8.444-3.282 11.677-.081 2.75 2.714 9.371 5.879 18.976 5.879 9.605 0 16.226-3.165 18.976-5.879 3.234-3.202 8.476-3.165 11.677.081 3.202 3.246 3.169 8.476-.081 11.677-6.748 6.661-18.184 10.637-30.571 10.637Z"/><path fill="#b67f5f" d="M256 57.806c-27.94 0-53.303 10.763-72.403 28.255 48.469 44.967 112.623 70.842 179.758 70.842V57.806H256Z"/><path fill="#64505a" d="M396.273 138.144C395.063 61.656 332.776 0 256 0c-36.324 0-69.317 13.913-94.243 36.551 44.936 62.838 118.456 103.836 201.598 103.836 11.168 0 22.141-.811 32.918-2.243Z"/><path fill="#ffc350" d="M181.677 173.419h-33.032a8.258 8.258 0 0 1-8.258-8.258 8.258 8.258 0 0 1 8.258-8.258h41.29l-8.258 16.516ZM330.323 173.419h33.032a8.258 8.258 0 0 0 8.258-8.258 8.258 8.258 0 0 0-8.258-8.258h-41.29l8.258 16.516Z"/><path fill="#ffe17d" d="M206.452 231.226c-22.766 0-41.29-18.524-41.29-41.29s18.524-41.29 41.29-41.29 41.29 18.524 41.29 41.29-18.524 41.29-41.29 41.29Zm0-66.065c-13.661 0-24.774 11.113-24.774 24.774 0 13.661 11.113 24.774 24.774 24.774 13.661 0 24.774-11.113 24.774-24.774 0-13.661-11.113-24.774-24.774-24.774ZM305.548 231.226c-22.766 0-41.29-18.524-41.29-41.29s18.524-41.29 41.29-41.29 41.29 18.524 41.29 41.29-18.523 41.29-41.29 41.29Zm0-66.065c-13.661 0-24.774 11.113-24.774 24.774 0 13.661 11.113 24.774 24.774 24.774 13.661 0 24.774-11.113 24.774-24.774 0-13.661-11.112-24.774-24.774-24.774Z"/><path fill="#ffc350" d="M189.94 437.68h16.516V512H189.94Z"/><path fill="#fff" d="M247.737 466.58c0 6.841-5.546 12.387-12.387 12.387s-12.387-5.546-12.387-12.387 5.546-12.387 12.387-12.387 12.387 5.546 12.387 12.387Z"/></svg>