<svg width="512" height="512" xmlns="http://www.w3.org/2000/svg"><path fill="#282125" d="M470 342c.7-47.5-15.1-55.7-23.1-83.6-8-28.1.1-47.2-9.3-78.3-8.8-28.9-24.7-33.8-29.6-74.8C399.8 35.8 324.8 0 287.7 0c-10.5 0-17.7 2.7-22.5 5.9-5.6 3.7-12.7 3.7-18.3 0-4.9-3.2-12-5.9-22.6-5.9-37.2 0-112.2 35.8-120.4 105.3-4.9 41.1-20.8 45.9-29.6 74.8-9.4 31.1-1.3 50.2-9.3 78.3-7.9 27.9-23.7 36.1-23 83.6.8 55.1-31 67.4-18.6 103.9 9.2 27.2 59.2 49.5 59.2 49.5h346.8s49.9-22.3 59.2-49.5C501 409.5 469.2 397.1 470 342Z"/><path fill="#332a2f" d="M256 8.6c-3.2 0-6.4-.9-9.1-2.8-4.9-3.1-12-5.8-22.6-5.8-37.2 0-112.2 35.8-120.4 105.3-4.9 41.1-20.8 45.9-29.6 74.8-9.4 31.1-1.3 50.2-9.3 78.3-7.9 27.9-23.7 36.1-23 83.6.8 55.1-31 67.4-18.6 103.9 9.2 27.2 59.2 49.5 59.2 49.5H256V8.6Z"/><path fill="#b67f5f" d="m412.9 401.2-85.3-30.1c-13.2-4.7-22-17.1-22-31.1v-42.7h-99.1V340c0 14-8.8 26.5-22 31.1l-85.3 30.1c-19.8 7-33.1 25.7-33.1 46.7v39.3c0 13.7 11.1 24.8 24.8 24.8h330.3c13.7 0 24.8-11.1 24.8-24.8V448c-.1-21-13.3-39.8-33.1-46.8Z"/><path fill="#990e99" d="M412.9 401.2 356 381.1c-22.4 31-48.5 49.9-84 68.9-7.2 3.9-22.8 3.9-30 0-35.5-18.9-63.6-37.9-86-68.9l-56.9 20.1c-19.8 7-33.1 25.7-33.1 46.7v39.3c0 13.7 11.1 24.8 24.8 24.8h330.3c13.7 0 24.8-11.1 24.8-24.8V448c0-21-13.2-39.8-33-46.8Z"/><path fill="#a06e50" d="M206.5 339.8c15.2 6.7 32 10.6 49.5 10.6s34.3-3.8 49.5-10.6v-22.5h-99.1l.1 22.5Z"/><path fill="#cd916e" d="M256 333c-59.3 0-107.4-51.8-107.4-115.7V66.1h214.7v151.3c.1 63.8-48 115.6-107.3 115.6Z"/><path fill="#b67f5f" d="M148.6 66.1v151.3c0 63.9 48.1 115.7 107.4 115.7 5.6 0 11.1-.6 16.5-1.5-51.4-8.6-90.8-56.3-90.8-114.2v-46.3c0-7.3 2.1-14.4 5.7-20.6 0 0 0-.1.1-.1 13.6-23.4 26.3-26.9 40.9-30.9 8.4-2.3 18.3-5 27.6-11.7 9.3 6.7 19.2 9.4 27.6 11.7 14.7 4 27.4 7.4 40.9 30.9 12.6 21.8 26.7 33.9 38.8 43.2V66.1H148.6Z"/><path fill="#5a4650" d="M206.5 206.5c-4.6 0-8.3-3.7-8.3-8.3v-8.3c0-4.6 3.7-8.3 8.3-8.3 4.6 0 8.3 3.7 8.3 8.3v8.3c-.1 4.6-3.8 8.3-8.3 8.3ZM305.5 206.5c-4.6 0-8.3-3.7-8.3-8.3v-8.3c0-4.6 3.7-8.3 8.3-8.3 4.6 0 8.3 3.7 8.3 8.3v8.3c0 4.6-3.7 8.3-8.3 8.3Z"/><path fill="#42353c" d="m126.5 446.2-42.2-36.6c-4.3 3.5-7.9 7.7-10.8 12.4l42.2 36.6c5.4 4.7 8.5 11.5 8.5 18.7V512h16.5v-34.6c.1-12-5.1-23.3-14.2-31.2ZM385.8 446.2l42.2-36.6c4.3 3.5 7.9 7.7 10.8 12.4l-42.2 36.6c-5.4 4.7-8.5 11.5-8.5 18.7V512h-16.5v-34.6c0-12 5.2-23.3 14.2-31.2Z"/><path fill="#332a2f" d="M447 258.4c-8-28.1.1-47.2-9.3-78.3-8.8-28.9-24.7-33.8-29.6-74.8C399.8 35.8 324.8 0 287.7 0c-10.5 0-17.7 2.7-22.5 5.9-2.8 1.8-6 2.8-9.1 2.8v74c21.3 26.8 53 5.5 82.6 53 25.2 40.4 56.7 39.3 67.8 71.2 3.2 9.1 1.5 18.9 2.2 28.5 4.3 53.8 45.5 78.6 64.1 134.7-1.8-8-2.9-17.1-2.7-27.9.6-47.7-15.2-55.9-23.1-83.8Z"/><path fill="#42353c" d="M65 258.4c8-28.1-.1-47.2 9.3-78.3 8.8-28.9 24.7-33.8 29.6-74.8C112.2 35.8 187.2 0 224.3 0c10.5 0 17.7 2.7 22.5 5.9 2.8 1.8 6 2.8 9.1 2.8v74c-21.3 26.8-53 5.5-82.6 53-25.2 40.4-56.7 39.3-67.8 71.2-3.2 9.1-1.5 18.9-2.2 28.5C99.1 289 57.8 313.8 39.2 370c1.8-8 2.9-17.1 2.7-27.9-.6-47.6 15.2-55.8 23.1-83.7Z"/><path fill="#fff" d="M223.4 258.2c-2.6 0-4.5 2.4-4.1 4.9 2.7 15.9 18.1 28.1 36.7 28.1s34.1-12.2 36.7-28.1c.4-2.6-1.5-4.9-4.1-4.9h-65.2Z"/><path fill="#edebed" d="M256 486.6c58.9 0 107.3-44 114.6-100.9l-40.3-14.2c-.3 40.8-33.4 73.8-74.3 73.8s-74-33-74.3-73.8l-40.3 14.2c7.3 56.8 55.7 100.9 114.6 100.9Z"/></svg>