<svg xmlns="http://www.w3.org/2000/svg" width="163.802" height="176.953"><path d="M55.045 43.792a29.64 29.64 0 1 0 29.64 29.64 29.676 29.676 0 0 0-29.64-29.64Zm0-8.468a4.232 4.232 0 0 0 4.234-4.234v-8.469a4.234 4.234 0 1 0-8.468 0v8.466a4.228 4.228 0 0 0 4.234 4.237Zm0 76.216a4.232 4.232 0 0 0-4.234 4.234v8.468a4.234 4.234 0 1 0 8.468 0v-8.468a4.235 4.235 0 0 0-4.234-4.234Zm32.926-65.053 5.987-5.987a4.234 4.234 0 0 0-5.987-5.987L81.984 40.5a4.234 4.234 0 1 0 5.987 5.987Zm-65.863 53.9-5.987 5.987a4.234 4.234 0 0 0 5.987 5.987l5.987-5.987a4.234 4.234 0 1 0-5.987-5.987Zm-5.171-26.955a4.235 4.235 0 0 0-4.237-4.234H4.234a4.234 4.234 0 1 0 0 8.468H12.7a4.232 4.232 0 0 0 4.237-4.234Zm88.919-4.234h-8.468a4.234 4.234 0 1 0 0 8.468h8.468a4.234 4.234 0 1 0 0-8.468ZM22.1 46.487a4.234 4.234 0 1 0 5.987-5.987L22.1 34.508a4.234 4.234 0 0 0-5.987 5.987Zm65.879 53.892a4.234 4.234 0 1 0-5.987 5.987l5.987 5.987a4.234 4.234 0 1 0 5.987-5.987Z" fill="#f3bb20" fill-rule="evenodd"/><path d="M149.237 87.148a134.407 134.407 0 0 0-15.975-16.266H77.569a134.386 134.386 0 0 0-15.975 16.266 7.272 7.272 0 0 0 1.916 10.855 126.961 126.961 0 0 0 26.716 13.354h30.378a126.962 126.962 0 0 0 26.716-13.356 7.272 7.272 0 0 0 1.916-10.855" fill="#5a4650"/><path d="m153.506 122.998-26.146-9.228a10.126 10.126 0 0 1-6.756-9.549V88.602H90.226v15.619a10.126 10.126 0 0 1-6.756 9.549l-26.146 9.228a15.189 15.189 0 0 0-10.133 14.323v12.037a7.6 7.6 0 0 0 7.594 7.594h101.26a7.6 7.6 0 0 0 7.594-7.594v-12.037a15.19 15.19 0 0 0-10.134-14.323" fill="#b67f5f"/><path d="m153.506 122.998-20.244-7.145v10.722a7.6 7.6 0 0 1-7.594 7.594h-40.5a7.6 7.6 0 0 1-7.594-7.594v-10.722l-20.244 7.145a15.189 15.189 0 0 0-10.139 14.327v32.037a7.688 7.688 0 0 0 5.723 7.363 7.012 7.012 0 0 0 1.871.232h101.26a7.6 7.6 0 0 0 7.594-7.594v-32.038a15.189 15.189 0 0 0-10.134-14.323" fill="#ffe17d"/><path d="M90.226 98.07a37.726 37.726 0 0 0 30.378 0v-9.465H90.226Z" fill="#a06e50"/><path d="M105.415 0a43.036 43.036 0 1 1-43.036 43.036A43.037 43.037 0 0 1 105.415 0" fill="#5a4650"/><path d="M105.416 96.197a32.909 32.909 0 0 1-32.91-32.91V50.63a32.91 32.91 0 0 1 32.91-32.91h32.91v45.567a32.91 32.91 0 0 1-32.91 32.91" fill="#cd916e"/><path d="M82.632 63.288V26.917A32.787 32.787 0 0 0 72.506 50.63v12.657a32.689 32.689 0 0 0 37.973 32.48 32.888 32.888 0 0 1-27.847-32.48" fill="#b67f5f"/><path d="M90.226 55.693a7.582 7.582 0 0 1 7.128 5.063 7.509 7.509 0 0 0 .467-2.531 7.595 7.595 0 0 0-15.189 0 7.5 7.5 0 0 0 .467 2.531 7.581 7.581 0 0 1 7.128-5.063m30.373 0a7.582 7.582 0 0 1 7.128 5.063 7.509 7.509 0 0 0 .467-2.531 7.595 7.595 0 0 0-15.189 0 7.5 7.5 0 0 0 .467 2.531 7.582 7.582 0 0 1 7.128-5.063" fill="#b67f5f"/><path d="M90.226 60.976a2.531 2.531 0 0 1-2.531-2.531v-2.531a2.531 2.531 0 1 1 5.063 0v2.531a2.531 2.531 0 0 1-2.531 2.531m30.378 0a2.531 2.531 0 0 1-2.531-2.531v-2.531a2.531 2.531 0 1 1 5.063 0v2.531a2.531 2.531 0 0 1-2.531 2.531" fill="#5a4650"/><path d="M105.415 81.008c-3.8 0-7.3-1.219-9.372-3.261a2.531 2.531 0 1 1 3.555-3.6 10.289 10.289 0 0 0 11.634 0 2.531 2.531 0 1 1 3.555 3.6c-2.069 2.042-5.574 3.261-9.372 3.261" fill="#a06e50"/><path d="M105.415 17.72a32.751 32.751 0 0 0-22.2 8.662 81.16 81.16 0 0 0 55.1 21.717V17.72Z" fill="#b67f5f"/><path d="M148.416 42.348A42.961 42.961 0 0 0 76.525 11.2a75.828 75.828 0 0 0 61.8 31.831 76.519 76.519 0 0 0 10.091-.688" fill="#64505a"/><path d="M85.165 134.17h5.063v42.783h-5.063Z" fill="#ffc350"/><path d="M99.09 139.232a3.8 3.8 0 1 1-3.8 3.8 3.8 3.8 0 0 1 3.8-3.8m0 19a3.8 3.8 0 1 1-3.8 3.8 3.8 3.8 0 0 1 3.8-3.8" fill="#fff"/><path d="M142.091 32.441a7.664 7.664 0 1 1-10.154-3.79 7.664 7.664 0 0 1 10.154 3.79" fill="#ffc350"/><path d="M147.127 18.943a8.1 8.1 0 1 1-10.726-4 8.1 8.1 0 0 1 10.726 4" fill="#ffc350"/><path d="M161.227 21.762a8.1 8.1 0 1 1-10.726-4 8.1 8.1 0 0 1 10.726 4" fill="#ffc350"/><path d="M163.069 35.159a8.1 8.1 0 1 1-10.726-4 8.1 8.1 0 0 1 10.726 4" fill="#ffc350"/><path d="M150.58 41.034a8.1 8.1 0 1 1-10.726-4 8.1 8.1 0 0 1 10.726 4" fill="#ffc350"/><path d="M154.415 29.726a7.664 7.664 0 1 1-10.154-3.79 7.664 7.664 0 0 1 10.154 3.79" fill="#ffa41b"/><path d="M97.509 47.453h7.197v4.377h-7.197z"/><path d="M104.55 47.453h7.196v4.377h-7.196zm-38.64 1.876c-1.256 4.383 1.564 20.025 15.644 21.907 16.977 2.263 19.083-23.16 19.083-23.16-20.337-12.2-34.728 1.253-34.728 1.253"/><path d="M108.663 47.768s2.111 25.413 19.088 23.15c14.082-1.872 16.895-17.521 15.641-21.9 0 0-14.391-13.452-34.728-1.249"/></svg>