<svg width="512" height="512" xmlns="http://www.w3.org/2000/svg"><path fill="#cbc5b4" d="M148.7 173.4h214.7v214.7H148.7Z"/><path fill="#ff8250" d="m412.9 393-85.3-30.1c-13.2-4.7-22-17.1-22-31.1V289h-99.1v42.7c0 14-8.8 26.5-22 31.1L99.1 393C79.3 400 66 418.7 66 439.7v47.5c0 13.7 11.1 24.8 24.8 24.8h330.3c13.7 0 24.8-11.1 24.8-24.8v-47.5c0-21-13.2-39.7-33-46.7Z"/><path fill="#5a4650" d="M256 495.5c64.8 0 117.4-51.4 119.5-115.7l-47.9-16.9c-13.2-4.7-22-17.1-22-31.1V289h-99.1v42.7c0 14-8.8 26.5-22 31.1l-47.9 16.9c2 64.3 54.6 115.8 119.4 115.8Z"/><path fill="#e3aa75" d="M256 479c57 0 103.2-46.2 103.2-103.2 0-.6-.1-1.1-.1-1.7L327.5 363c-13.2-4.7-22-17.1-22-31.1V289h-99.1v42.7c0 14-8.8 26.5-22 31.1L152.9 374c0 .6-.1 1.1-.1 1.7C152.8 432.8 199 479 256 479Z"/><path fill="#d29b6e" d="M305.5 319.9V289h-99.1v30.9c15.2 6.7 31.9 10.4 49.5 10.4s34.5-3.7 49.6-10.4Z"/><path fill="#f5b97d" d="M256 313.8c-59.3 0-107.4-48.1-107.4-107.4V99.1h214.7v107.4c.1 59.2-48 107.3-107.3 107.3Z"/><path fill="#b67f5f" d="M256 256.7c-12.4 0-23.8-4-30.6-10.6-3.2-3.2-3.3-8.4-.1-11.7 3.2-3.2 8.4-3.3 11.7-.1 2.8 2.7 9.4 5.9 19 5.9s16.2-3.2 19-5.9c3.2-3.2 8.5-3.2 11.7.1 3.2 3.2 3.2 8.5-.1 11.7-6.8 6.6-18.2 10.6-30.6 10.6Z"/><path fill="#e3aa75" d="M148.6 99.1v107.4c0 59.3 48.1 107.4 107.4 107.4 5.6 0 11.1-.6 16.5-1.4-51.4-8-90.8-52.3-90.8-106v-5.9c0-9.4 5.7-17.7 14.2-21.8 27.3-13 47.9-34.8 60.1-50.5 18.5 23.8 56.1 61.6 107.3 61.6V99.1H148.6Z"/><path fill="#ddd8c7" d="M148.6 375.5V189.1c0-8.2 5.7-15.5 13.8-16.8 43.1-6.8 73.9-44.1 86.8-62.7 1.6-2.4 4.2-3.6 6.8-3.6 2.6 0 5.1 1.2 6.8 3.6 12.9 18.6 43.7 55.8 86.8 62.7 8.1 1.3 13.8 8.6 13.8 16.8v186.4l33 11.7V140.4C396.4 62.9 333.5 0 256 0S115.6 62.9 115.6 140.4v246.8l33-11.7Z"/><path fill="#edebed" d="m359.1 374-31.6-11.1c-4.2-1.5-8-3.9-11.2-6.8L256 396.4l-60.4-40.3c-3.2 2.9-6.9 5.3-11.2 6.8L152.9 374c0 .6-.1 1.1-.1 1.7 0 57 46.2 103.2 103.2 103.2s103.2-46.2 103.2-103.2c0-.5-.1-1.1-.1-1.7Z"/><path fill="#dbd9dc" d="m352.7 371.8-25.2-8.9c-4.2-1.5-8-3.9-11.2-6.8L256 396.4l-60.4-40.3c-3.2 2.9-6.9 5.3-11.2 6.8l-25.2 8.9c.2.7.4 1.3.7 2l27 60.7c4 8.9 12.9 14.7 22.7 14.7 5.8 0 11.4-2 15.8-5.7L256 418l30.6 25.5c4.4 3.7 10.1 5.7 15.8 5.7 9.8 0 18.7-5.8 22.7-14.7l27-60.7c.2-.7.4-1.4.6-2Z"/><path fill="#fff" d="m204 344.4 52 52-41.2 34.3c-4.2 3.5-10.6 2-12.8-3L175 367c-1-2.2-.5-4.8 1.2-6.5l16.1-16.1c3.3-3.2 8.5-3.2 11.7 0ZM308 344.4l-52 52 41.2 34.3c4.2 3.5 10.6 2 12.8-3l27-60.7c1-2.2.5-4.8-1.2-6.5l-16.1-16.1c-3.3-3.2-8.5-3.2-11.7 0Z"/><path fill="#5a4650" d="m125.8 446.2-46.9-39.7c-3.7 4.2-6.7 8.9-8.9 14.1l45.1 38.2c5.6 4.7 8.8 11.6 8.8 18.9V512h16.5v-34.2c0-12.2-5.3-23.7-14.6-31.6ZM386.2 446.2l46.9-39.7c3.7 4.2 6.7 8.9 8.9 14.1l-45.1 38.2c-5.6 4.7-8.8 11.6-8.8 18.9V512h-16.5v-34.2c0-12.2 5.3-23.7 14.6-31.6ZM206.5 198.5c-4.6 0-8.3-3.7-8.3-8.3V182c0-4.6 3.7-8.3 8.3-8.3 4.6 0 8.3 3.7 8.3 8.3v8.3c-.1 4.5-3.8 8.2-8.3 8.2ZM305.5 198.5c-4.6 0-8.3-3.7-8.3-8.3V182c0-4.6 3.7-8.3 8.3-8.3 4.6 0 8.3 3.7 8.3 8.3v8.3c0 4.5-3.7 8.2-8.3 8.2Z"/><path fill="#c9c6ca" d="M181.7 179.4h-41.3c-4.6 0-8.3-3.7-8.3-8.3 0-4.6 3.7-8.3 8.3-8.3h41.3c4.6 0 8.3 3.7 8.3 8.3 0 4.6-3.8 8.3-8.3 8.3ZM371.6 179.4h-41.3c-4.6 0-8.3-3.7-8.3-8.3 0-4.6 3.7-8.3 8.3-8.3h41.3c4.6 0 8.3 3.7 8.3 8.3 0 4.6-3.7 8.3-8.3 8.3ZM272.5 196c-4.6 0-8.3-3.7-8.3-8.3 0-4.6-3.7-8.3-8.3-8.3-4.6 0-8.3 3.7-8.3 8.3 0 4.6-3.7 8.3-8.3 8.3-4.6 0-8.3-3.7-8.3-8.3 0-13.7 11.1-24.8 24.8-24.8 13.7 0 24.8 11.1 24.8 24.8.2 4.6-3.5 8.3-8.1 8.3Z"/><path fill="#c9c6ca" d="M223 212.5h-24.8c-13.7 0-24.8-11.1-24.8-24.8v-24.8c0-4.6 3.7-8.3 8.3-8.3h57.8c4.6 0 8.3 3.7 8.3 8.3v24.8c-.1 13.7-11.2 24.8-24.8 24.8Zm-33.1-41.3v16.5c0 4.6 3.7 8.3 8.3 8.3H223c4.6 0 8.3-3.7 8.3-8.3v-16.5h-41.4ZM313.8 212.5H289c-13.7 0-24.8-11.1-24.8-24.8v-24.8c0-4.6 3.7-8.3 8.3-8.3h57.8c4.6 0 8.3 3.7 8.3 8.3v24.8c0 13.7-11.1 24.8-24.8 24.8Zm-33-41.3v16.5c0 4.6 3.7 8.3 8.3 8.3h24.8c4.6 0 8.3-3.7 8.3-8.3v-16.5h-41.4Z"/></svg>