<svg width="512" height="512" xmlns="http://www.w3.org/2000/svg"><path fill="#e8131e" d="m418.6 424.8-87-25.6c-10.5-3.1-17.8-12.8-17.8-23.8v-61.6H198.2v61.6c0 11-7.2 20.7-17.8 23.8l-87 25.6c-21.1 6.2-35.6 25.6-35.6 47.5v14.9c0 13.7 11.1 24.8 24.8 24.8h346.8c13.7 0 24.8-11.1 24.8-24.8v-14.9c0-22-14.5-41.3-35.6-47.5Z"/><path fill="#3f1a21" d="M214.7 493.4h82.6c48.6 0 90.2-30.2 107.3-72.8l-73-21.5c-10.5-3.1-17.8-12.8-17.8-23.8v-61.6H198.2v61.6c0 11-7.2 20.7-17.8 23.8l-73 21.5c17.1 42.6 58.7 72.8 107.3 72.8Z"/><path fill="#e8131e" d="M346.8 328.3H165.2c-27.4 0-49.5 22.2-49.5 49.5 0 54.7 44.4 99.1 99.1 99.1h82.6c54.7 0 99.1-44.4 99.1-99.1-.1-27.3-22.3-49.5-49.7-49.5Z"/><path fill="#3f1a21" d="M344.6 353c18 0 25 23.3 10.1 33.3l-85 56.6c-8.3 5.5-19.2 5.5-27.5 0l-85-56.6c-15-10-7.9-33.3 10.1-33.3h177.3Z"/><path fill="#f7f4f2" d="m178.1 400.2 64.1 42.7c8.3 5.5 19.2 5.5 27.5 0l64.1-42.7-2.3-.7c-10.5-3.1-17.8-12.8-17.8-23.8V322H198.2v53.7c0 11-7.2 20.7-17.8 23.8l-2.3.7Z"/><path fill="#dbd9dc" d="M198.2 348.8c17.3 9.3 37 14.6 57.8 14.6 20.8 0 40.5-5.3 57.8-14.6v-26.7H198.2v26.7Z"/><path fill="#f7f4f2" d="M371.6 206.9v-33.4c0-63.8-51.8-115.6-115.6-115.6s-115.6 51.8-115.6 115.6v33.4c-9.4 1.9-16.5 10.3-16.5 20.2 0 11.4 9.3 20.6 20.6 20.6h4.5c4.2 55.4 50.4 99.1 106.9 99.1 56.5 0 102.7-43.7 106.9-99.1h4.5c11.4 0 20.6-9.3 20.6-20.6.2-9.9-6.9-18.3-16.3-20.2Z"/><path fill="#e0e0e0" d="M189.9 231.3V118.9c0-16.3-21.2-22.8-30.3-9.3-12.2 18.3-19.3 40.2-19.3 63.9v33.4c-10.5 2.2-18.2 12.4-16.2 24 1.8 10 11.1 16.9 21.3 16.9h3.6c4.2 55.4 50.4 99.1 106.9 99.1 8.4 0 16.4-1.1 24.2-2.9-51.5-11.6-90.2-57.6-90.2-112.7Z"/><path fill="#3f1a21" d="M228.8 202.9c0 6.4-5.7 11.5-12.7 11.5h-12.7c-7 0-12.7-5.1-12.7-11.5s5.7-11.5 12.7-11.5h12.7c7.1 0 12.7 5.1 12.7 11.5ZM316.6 202.9c0 6.4-5.7 11.5-12.7 11.5h-12.7c-7 0-12.7-5.1-12.7-11.5s5.7-11.5 12.7-11.5H304c7 0 12.6 5.1 12.6 11.5Z"/><path fill="#2b2729" d="M233 187.2c-.9 0-1.7-.1-2.6-.4l-24.8-8.3c-4.3-1.4-6.7-6.1-5.2-10.4 1.4-4.3 6.1-6.7 10.4-5.2l24.8 8.3c4.3 1.4 6.7 6.1 5.2 10.4-1.2 3.4-4.4 5.6-7.8 5.6ZM279 187.2c-3.5 0-6.7-2.2-7.8-5.6-1.4-4.3.9-9 5.2-10.4l24.8-8.3c4.4-1.5 9 .9 10.4 5.2 1.4 4.3-.9 9-5.2 10.4l-24.8 8.3c-.8.3-1.7.4-2.6.4Z"/><path fill="#3f1a21" d="M189.9 454.2c-4.6 0-8.3 3.7-8.3 8.3V512h16.5v-49.5c.1-4.6-3.6-8.3-8.2-8.3ZM322.1 454.2c-4.6 0-8.3 3.7-8.3 8.3V512h16.5v-49.5c0-4.6-3.7-8.3-8.2-8.3Z"/><path fill="#2b2729" d="M256 356.8c-3.4 0-6.5-3.5-7.7-8.9l-7-29.7c-1-4.4.9-9.2 3.7-9.2h22.1c2.8 0 4.7 4.8 3.7 9.2l-7 29.7c-1.3 5.4-4.4 8.9-7.8 8.9Z"/><path fill="#efd3ec" d="M201 245c0 8.284-9.402 15-21 15s-21-6.716-21-15c0-8.284 9.402-15 21-15s21 6.716 21 15ZM346 244c0 8.284-9.402 15-21 15s-21-6.716-21-15c0-8.284 9.402-15 21-15s21 6.716 21 15Z"/><path fill="#2b2729" d="M270.8 292.9c0 2.8-4.8 5.1-10.8 5.1h-10.8c-6 0-10.8-2.3-10.8-5.1s4.8-5.1 10.8-5.1H260c6-.1 10.8 2.2 10.8 5.1ZM212.2 175.2c-.5.7-1.2 1.3-1.9 1.8l-21.5 14.8c-3.7 2.6-8.9 1.6-11.5-2.1-2.6-3.8-1.7-8.9 2.1-11.5l21.5-14.8c3.7-2.6 8.9-1.6 11.5 2.1 2.1 3 1.9 6.9-.2 9.7ZM298.2 165.9c2.6-3.8 7.7-4.7 11.5-2.1l21.5 14.8c3.8 2.6 4.7 7.7 2.1 11.5s-7.7 4.7-11.5 2.1l-21.5-14.8c-.8-.5-1.4-1.1-1.9-1.8-2.1-2.8-2.3-6.7-.2-9.7ZM321.6 265.1c-1.5-2.4-6.8-1.8-11.9 1.4l-2.2 1.4-32.6-.8-8.6-9.6-.1-.1c-1.3-1.8-4.1-3-7.3-3h-8.1c-3.4 0-6.3 1.3-7.5 3.2l-.1.1-8.7 9.6-32 1.3-2.7-1.7c-5-3.2-10.4-3.8-11.9-1.4s1.3 6.9 6.4 10.1l9.1 5.8c1.1.7 2.2 1.3 3.3 1.7 1.3.8 2.9 1.3 4.5 1.2l26.1-.6c.9 0 1.8-.2 2.6-.5.9-.3 1.6-.8 2.3-1.3.5-.3.9-.6 1.2-1l11.3-12.5 11 12.2c0 .1.1.1.2.2.9 1 2 1.7 3.3 2.2.8.3 1.7.5 2.6.5l26.1.6c1.9 0 3.6-.5 5-1.5 1-.4 2-1 3-1.6l9.1-5.8c5.2-3.1 8.1-7.7 6.6-10.1Z"/><path fill="#474042" d="m338.7 90.7-186 28.8-16.3-35.7c1.7-5.3 9.7-10 19.6-11.4l122.5-31.8c9.8-1.4 18.9.8 22 5.3l38.2 44.8Z"/><path fill="#2b2729" d="M264.2 44.3 156 72.3c-32.3 4.8-71.8 60.9-10.8 65.8l43.7-24.4s65.5-67.9 75.3-69.4Z"/><path fill="#474042" d="m160.7 206.4 10.2-3.5c5.6-1.9 11-1.3 11.9 1.3.9 2.7-2.9 6.4-8.5 8.4l-10.2 3.5c-5.6 1.9-11 1.3-11.9-1.3-1-2.7 2.9-6.4 8.5-8.4Z"/><path fill="#474042" d="M152 195.3c.9-2.7 6.2-3.3 11.9-1.3l10.2 3.5c5.6 1.9 9.5 5.7 8.5 8.4-.9 2.7-6.2 3.3-11.9 1.3l-10.2-3.5c-5.6-2-9.5-5.7-8.5-8.4ZM355.7 214.8c-.9 2.7-6.2 3.3-11.9 1.3l-10.2-3.5c-5.6-1.9-9.5-5.7-8.5-8.4.9-2.7 6.2-3.3 11.9-1.3l10.2 3.5c5.6 2 9.5 5.7 8.5 8.4Z"/><path fill="#474042" d="m347.4 203.7-10.2 3.5c-5.6 1.9-11 1.3-11.9-1.3-.9-2.7 2.9-6.4 8.5-8.4L344 194c5.6-1.9 11-1.3 11.9 1.3 1 2.7-2.9 6.4-8.5 8.4Z"/></svg>