<svg width="174.888" height="175.144" xmlns="http://www.w3.org/2000/svg"><path fill="#f3bb20" fill-rule="evenodd" d="M55.045 42.004c-16.37 0-29.64 13.27-29.64 29.64s13.27 29.64 29.64 29.64 29.64-13.27 29.64-29.64c-.02-16.361-13.279-29.62-29.64-29.64Zm0-8.468a4.232 4.232 0 0 0 4.234-4.234v-8.469a4.234 4.234 0 1 0-8.468 0v8.466a4.228 4.228 0 0 0 4.234 4.237Zm0 76.216a4.232 4.232 0 0 0-4.234 4.234v8.468a4.234 4.234 0 1 0 8.468 0v-8.468a4.235 4.235 0 0 0-4.234-4.234Zm32.926-65.053 5.987-5.987a4.234 4.234 0 0 0-5.987-5.987l-5.987 5.987a4.234 4.234 0 1 0 5.987 5.987Zm-65.863 53.9-5.987 5.987a4.234 4.234 0 0 0 5.987 5.987l5.987-5.987a4.234 4.234 0 1 0-5.987-5.987Zm-5.171-26.955A4.235 4.235 0 0 0 12.7 67.41H4.234a4.234 4.234 0 0 0 0 8.468H12.7a4.232 4.232 0 0 0 4.237-4.234Zm88.919-4.234h-8.468a4.234 4.234 0 0 0 0 8.468h8.468a4.234 4.234 0 0 0 0-8.468ZM22.1 44.699a4.234 4.234 0 1 0 5.987-5.987L22.1 32.72a4.234 4.234 0 0 0-5.987 5.987Zm65.879 53.892a4.234 4.234 0 1 0-5.987 5.987l5.987 5.987a4.234 4.234 0 1 0 5.987-5.987Z"/><path fill="#64505a" d="M109.997 88.168c14.933 0 27.038 8.373 27.038 18.7s-12.105 18.7-27.038 18.7-27.038-8.373-27.038-18.7 12.105-18.7 27.038-18.7"/><path fill="#a06e50" d="M112.7 16.031h-5.408a8.064 8.064 0 0 1-8.111-8.015A8.064 8.064 0 0 1 107.292 0h5.408a8.064 8.064 0 0 1 8.111 8.015 8.064 8.064 0 0 1-8.111 8.015"/><path fill="#f7d291" d="m163.242 130.207-28.5-8.282a8.029 8.029 0 0 1-5.823-7.69v-15.38H91.07v15.377a8.029 8.029 0 0 1-5.823 7.69l-28.5 8.282a16.057 16.057 0 0 0-11.643 15.379v12.051a8.064 8.064 0 0 0 8.111 8.015h113.56a8.064 8.064 0 0 0 8.111-8.015v-12.051a16.057 16.057 0 0 0-11.644-15.376"/><path fill="#b4e6a0" d="M56.75 130.204a16.057 16.057 0 0 0-11.645 15.379v33.148a8.064 8.064 0 0 0 8.111 8.013h113.56a8.064 8.064 0 0 0 8.111-8.015v-33.146a16.057 16.057 0 0 0-11.645-15.379l-15.937-4.631H72.684Z"/><path fill="#9bdc9b" d="M153.257 128.244c0-.31-.01-.629-.024-.95l-5.924-1.722h-26.815a34.273 34.273 0 0 1-26.534 0H72.683l-5.9 1.714c-.014.32-.049.633-.049.957 0 16.084 9.044 51.109 22.363 58.4h41.795c13.32-7.3 22.364-42.321 22.364-58.4"/><path fill="#84737b" d="m137.489 113.65-.558.029c-1.052 11.118-13.9 19.909-29.639 19.909-14.257 0-26.157-7.213-29.055-16.835l-.786.041a14.328 14.328 0 0 0-5.309 11.451c.26 20.72 17.132 37.38 37.853 37.38s37.592-16.66 37.853-37.38c0-7.374-4.478-11.866-10.36-14.595"/><path fill="#f0c382" d="M91.07 110.161a40.269 40.269 0 0 0 37.853 0V98.855H91.07Z"/><path fill="#ffe1a0" d="M146.498 64.123h-1.352V37.405h-70.3v26.718h-1.351a6.68 6.68 0 1 0 0 13.359h1.488c1.6 18.145 16.798 32.06 35.013 32.06s33.412-13.915 35.013-32.06h1.488a6.68 6.68 0 1 0 0-13.359"/><path fill="#f7d291" d="M131.627 40.077v-2.672h-56.78v26.718h-1.115a6.906 6.906 0 0 0-6.751 4.869 6.718 6.718 0 0 0 6.514 8.493h1.488c1.514 18.188 16.763 32.151 35.013 32.061a35.583 35.583 0 0 0 5.425-.45c-17.025-2.51-29.667-17.074-29.759-34.283v-18.7c.036-5.937 4.878-10.722 10.815-10.687h29.742a5.376 5.376 0 0 0 5.408-5.344"/><path fill="#b67f5f" d="M116.256 82.825h-12.518a8.077 8.077 0 0 0-8.062 7.13l-1.278 11.361a8 8 0 0 0 4.434 8.054l7.536 3.724a8.2 8.2 0 0 0 7.255 0l7.536-3.724a8 8 0 0 0 4.434-8.054l-1.276-11.361a8.076 8.076 0 0 0-8.061-7.13"/><path fill="#a06e50" d="M109.072 110.2c-3.04-1.851-4.81-5.814-4.434-9.927l1.278-14c.106-1.186.395-2.348.858-3.445h-3.036a8.077 8.077 0 0 0-8.062 7.13l-1.278 11.361a8 8 0 0 0 4.434 8.054l7.536 3.724a8.2 8.2 0 0 0 7.255 0l.111-.055Zm-9.891-51.426H91.07a2.672 2.672 0 1 1 0-5.344h8.111a2.672 2.672 0 1 1 0 5.344"/><path fill="#f7d291" d="M109.996 96.184a9.177 9.177 0 0 1-7.649-3.848 2.654 2.654 0 0 1 .729-3.71 2.727 2.727 0 0 1 3.755.72c1.257 1.842 5.075 1.842 6.332 0a2.728 2.728 0 0 1 3.755-.72 2.654 2.654 0 0 1 .729 3.71 9.177 9.177 0 0 1-7.65 3.848"/><path fill="#a06e50" d="M128.923 58.774h-8.111a2.672 2.672 0 1 1 0-5.344h8.111a2.672 2.672 0 1 1 0 5.344"/><path fill="#a06e50" d="M117.53 13.359h-15.068c-21.6 0-38.088 19.068-34.719 40.15l1.7 10.613h1.753a8.052 8.052 0 0 0 8.062-8.9l-.035-.311a13.419 13.419 0 0 1 13.432-14.834h34.683a13.419 13.419 0 0 1 13.436 14.834l-.035.311a8.051 8.051 0 0 0 8.062 8.9h1.753l1.7-10.613c3.368-21.082-13.121-40.15-34.72-40.15"/><path d="M103.502 61.016h6.722v4.04h-6.722Z"/><path d="M110.078 61.016h6.722v4.04h-6.722ZM73.99 62.747c-1.174 4.045 1.461 18.483 14.613 20.22 15.858 2.089 17.824-21.376 17.824-21.376-19-11.263-32.437 1.156-32.437 1.156"/><path d="M113.92 61.306s1.971 23.456 17.829 21.367c13.153-1.728 15.78-16.171 14.609-20.214 0 0-13.442-12.416-32.438-1.153"/><path fill="#331b24" d="M95.126 72.138a2.686 2.686 0 0 1-2.7-2.672v-2.672a2.704 2.704 0 0 1 5.408 0v2.672a2.687 2.687 0 0 1-2.7 2.672m29.733 0a2.686 2.686 0 0 1-2.7-2.672v-2.672a2.704 2.704 0 0 1 5.408 0v2.672a2.686 2.686 0 0 1-2.7 2.672"/><path fill="#b67f5f" d="M117.53 13.359h-15.067a35.6 35.6 0 0 0-8.634 1.087c.646 11.427 10.13 20.345 21.575 20.287h34.577a35.137 35.137 0 0 0-32.451-21.374"/><path fill="#6e5a64" d="M109.997 125.573c-14.933 0-27.038-8.373-27.038-18.7.004-.569.046-1.137.124-1.7a17.583 17.583 0 0 0-5.529 12.385c0 11.8 13.316 21.374 29.742 21.374 16.426 0 29.742-9.569 29.742-21.374v-10.687c0 10.329-12.105 18.7-27.038 18.7"/><path fill="#6e5a64" d="M109.996 158.87c-19.19.093-35.386-14.248-37.616-33.309a16.292 16.292 0 0 0-.237 2.684c.26 20.72 17.132 37.38 37.853 37.38s37.592-16.66 37.853-37.38c0-.916-.077-1.831-.23-2.735-2.206 19.084-18.413 33.454-37.624 33.36"/></svg>