<svg width="152" height="126.6" xmlns="http://www.w3.org/2000/svg"><defs><clipPath id="a"><path d="M0 0h152v126.6H0Z"/></clipPath><clipPath id="b"><path d="M0 0h152v126.6H0Z"/></clipPath><clipPath id="c"><path d="M76 0h76v126.6H76Z"/></clipPath></defs><g clip-path="url(#a)" transform="translate(8 6) scale(.89692)"><g clip-path="url(#b)"><path fill="#fff" d="M35.7 34.9c0 9.9-8 17.8-17.8 17.8S0 44.8 0 34.9s8-17.8 17.8-17.8 17.9 8 17.9 17.8"/></g><g clip-path="url(#b)"><path fill="#d8d8d8" d="M27.6 34.9c0 5.4-4.4 9.8-9.8 9.8S8 40.3 8 34.9s4.4-9.8 9.8-9.8c5.4.1 9.8 4.4 9.8 9.8"/></g><g clip-path="url(#b)"><path fill="#fff" d="M76 0C41 0 12.7 28.4 12.7 63.3S41 126.6 76 126.6s63.3-28.3 63.3-63.3C139.3 28.4 111 0 76 0"/></g><g clip-path="url(#b)"><g clip-path="url(#c)"><path fill="#d8d8d8" d="M152 34.9c0-9.8-8-17.8-17.8-17.8-4 0-8 1.4-11.1 3.9C111.1 7.6 94 0 76 0v126.6c34.9 0 63.3-28.3 63.3-63.2 0-3.7-.3-7.5-1-11.2 8.1-1.9 13.7-9 13.7-17.3"/></g></g><g clip-path="url(#b)"><path fill="#efefef" d="M75.6 26C49 26 27.4 47.6 27.4 74.3c0 26.7 21.6 48.3 48.3 48.3 26.7 0 48.3-21.6 48.3-48.3-.1-26.7-21.7-48.3-48.4-48.3"/></g><g clip-path="url(#b)"><path fill="#b9baba" d="M76 26v96.5c26.6-.1 48.1-21.7 48.1-48.3.1-26.5-21.5-48.1-48.1-48.2Z"/></g><g clip-path="url(#b)"><path fill="#fff" d="M75.7 86h.3V59.3c-1.4 0-2.9.4-4.2 1.1-1.5.8-2.8 2.1-3.6 3.6-2.1 3.5-11.9 14-14.8 16.8-5.4 5.2-5.5 13.8-.2 19.2 5.2 5.4 13.8 5.5 19.2.2 1.7-1.7 3-3.8 3.6-6.2v-7c-.1-.3-.2-.7-.3-1Z"/></g><g clip-path="url(#b)"><path fill="#efefef" d="M76 94.1c1.5 7.3 8.7 11.4 16 9.9 7.3-1.5 12-8.7 10.5-16-.5-2.6-1.9-5-3.8-6.9-2.8-2.9-12.6-13.5-14.7-16.9-1.7-3.1-4.7-4.9-8-4.9l-.2 26.8"/></g><g clip-path="url(#b)"><path fill="#d8d8d8" d="M152 34.9c0 9.9-8 17.8-17.8 17.8s-17.8-8-17.8-17.8 8-17.8 17.8-17.8 17.8 8 17.8 17.8"/></g><g clip-path="url(#b)"><path d="M52.4 69.4c0 3.3-2.7 6.1-6.1 6.1-3.3 0-6.1-2.7-6.1-6.1 0-3.3 2.7-6.1 6.1-6.1 3.4 0 6.1 2.7 6.1 6.1"/></g><g clip-path="url(#b)"><path d="M111.7 69.4c0 3.3-2.7 6-6.1 6-3.3 0-6-2.7-6-6.1 0-3.3 2.7-6 6-6 3.4 0 6.1 2.7 6.1 6.1"/></g><g clip-path="url(#b)"><path d="M65.5 77.9c-1.8 0-3.3 1.5-3.3 3.3 0 .5.1 1 .3 1.5 6.8 12.7 20.2 12.7 26.9 0 .8-1.6.1-3.6-1.5-4.4-.5-.2-1-.3-1.5-.3H65.5Z"/></g><g clip-path="url(#b)"><path fill="#b9baba" d="M134.2 25.2c-2.1 0-4.1.7-5.7 1.9 3.8 5.2 6.8 11 8.9 17.1 3.9-1.3 6.6-4.9 6.6-9.2-.1-5.5-4.4-9.8-9.8-9.8Z"/></g></g></svg>