<svg width="152.01" height="126.65" version="1.1" xmlns="http://www.w3.org/2000/svg"><defs><clipPath id="a"><path d="M0 0h152.01v126.65H0z" fill="none"/></clipPath></defs><g transform="matrix(.86879 0 0 .86879 9.9458 8.6167)" clip-path="url(#a)"><path d="m35.675 34.925a17.838 17.838 0 1 1-17.838-17.838 17.838 17.838 0 0 1 17.838 17.838" fill="#fff"/><path d="m27.606 34.924a9.768 9.768 0 1 1-9.768-9.768 9.769 9.769 0 0 1 9.768 9.768" fill="#d8d8d8"/><path d="m152.01 34.925a17.838 17.838 0 1 1-17.838-17.838 17.838 17.838 0 0 1 17.838 17.838" fill="#fff"/><path d="m143.94 34.924a9.768 9.768 0 1 1-9.768-9.768 9.769 9.769 0 0 1 9.768 9.768" fill="#d8d8d8"/><path d="M 76.009,0 A 63.319,63.319 0 1 0 139.333,63.324 63.324,63.324 0 0 0 76.009,0" fill="#fff"/><path d="m76.007 26.065a48.275 48.275 0 1 0 48.282 48.282 48.283 48.283 0 0 0-48.282-48.282" fill="#efefef"/><path d="m52.408 69.374a6.051 6.051 0 1 1-6.05-6.05 6.051 6.051 0 0 1 6.05 6.05m59.301 0a6.05 6.05 0 1 1-6.051-6.051 6.051 6.051 0 0 1 6.051 6.051"/><path d="m98.775 80.843c-2.889-2.825-12.73-13.354-14.781-16.835a9.113 9.113 0 0 0-15.975 0c-2.051 3.481-11.892 14.01-14.781 16.835a13.564 13.564 0 1 0 22.764 12.458 13.565 13.565 0 1 0 22.768-12.458m-22.24 5.1a13.4 13.4 0 0 0-0.529 1.821 13.406 13.406 0 0 0-0.529-1.821c0.176-7e-3 0.351-0.019 0.529-0.019s0.352 0.012 0.529 0.019" fill="#fff"/><path d="m65.508 77.94a3.307 3.307 0 0 0-2.995 4.772l0.021 0.04c6.786 12.676 20.159 12.676 26.945 0l0.022-0.04a3.308 3.308 0 0 0-3-4.772z"/></g></svg>
