<svg width="178.5" height="181.37" xmlns="http://www.w3.org/2000/svg"><path fill="#f3bb20" fill-rule="evenodd" d="M57.545 29.789c-15.329 0-27.755 12.426-27.755 27.755 0 15.329 12.426 27.755 27.755 27.755 15.329 0 27.755-12.426 27.755-27.755-.019-15.32-12.434-27.736-27.755-27.755Zm0-7.93a3.963 3.963 0 0 0 3.965-3.964v-7.93a3.965 3.965 0 1 0-7.93 0v7.927a3.96 3.96 0 0 0 3.965 3.968Zm0 71.37a3.963 3.963 0 0 0-3.965 3.964v7.93a3.965 3.965 0 1 0 7.93 0v-7.93a3.966 3.966 0 0 0-3.965-3.965Zm30.832-60.916 5.606-5.607a3.965 3.965 0 0 0-5.606-5.606l-5.606 5.606a3.965 3.965 0 1 0 5.606 5.607ZM26.702 82.784l-5.606 5.607a3.965 3.965 0 0 0 5.606 5.606l5.606-5.606a3.965 3.965 0 1 0-5.606-5.607Zm-4.842-25.24a3.966 3.966 0 0 0-3.968-3.965H9.965a3.965 3.965 0 1 0 0 7.93h7.927a3.963 3.963 0 0 0 3.968-3.966Zm83.265-3.965h-7.93a3.965 3.965 0 1 0 0 7.93h7.93a3.965 3.965 0 1 0 0-7.93Zm-78.43-21.267a3.965 3.965 0 1 0 5.606-5.607l-5.606-5.61a3.965 3.965 0 0 0-5.607 5.606Zm61.69 50.465a3.965 3.965 0 1 0-5.607 5.606l5.607 5.606a3.965 3.965 0 1 0 5.606-5.606Z"/><path fill="#dc9b85" d="M103.482 57.25c-27.501 0-49.796 24.197-49.796 54.048.001 3.463.309 6.92.92 10.329 4.442 24.908 24.627 43.72 48.88 43.72 24.253 0 44.434-18.813 48.88-43.72.61-3.41.918-6.866.92-10.329-.01-29.85-22.302-54.049-49.804-54.049"/><path fill="#be7b61" d="M103.482 165.405a46.142 46.142 0 0 1-17.241-3.33 48.813 48.813 0 0 1-14.624-9.19 53.234 53.234 0 0 1-10.907-13.86 56.472 56.472 0 0 1-6.104-17.34 58.837 58.837 0 0 1-.17-19.726c.05.31.105.636.17.998a56.472 56.472 0 0 0 6.104 17.34 53.233 53.233 0 0 0 10.91 13.858 48.813 48.813 0 0 0 14.624 9.19 46.316 46.316 0 0 0 34.482 0 48.815 48.815 0 0 0 14.624-9.19 53.235 53.235 0 0 0 10.911-13.859 56.474 56.474 0 0 0 6.27-18.336 58.864 58.864 0 0 1-.168 19.725 56.475 56.475 0 0 1-6.102 17.34 53.235 53.235 0 0 1-10.91 13.858 48.815 48.815 0 0 1-14.625 9.191 46.144 46.144 0 0 1-17.244 3.33Z"/><path fill="#be7b61" d="M104.419 165.405V57.325a46.174 46.174 0 0 1 19.096 4.488A49.756 49.756 0 0 1 139.08 73.44a54.405 54.405 0 0 1 10.478 17.08 57.721 57.721 0 0 1 3.84 20.845 58.964 58.964 0 0 1-.92 10.328 56.501 56.501 0 0 1-6.003 17.163 53.307 53.307 0 0 1-10.718 13.774 48.94 48.94 0 0 1-14.372 9.235 46.157 46.157 0 0 1-16.966 3.542Z"/><path fill="#f87676" d="M125.769 126.076c-12.09-8.155-26.338-8.166-31.83-.023a12.26 12.26 0 0 0-1.496 3.09c-2.63 8.11 2.782 19.226 13.44 26.415 10.657 7.188 22.99 8.042 29.526 2.565a12.261 12.261 0 0 0 2.304-2.545c5.493-8.141.144-21.35-11.944-29.503"/><path fill="#e6b586" d="M105.355 97.047c-16.067 0-29.091 13.024-29.091 29.091s13.024 29.091 29.09 29.092c16.067 0 29.092-13.024 29.092-29.09-.001-16.067-13.025-29.091-29.091-29.093"/><path fill="#e6b586" d="M105.917 85.716c-11.18.002-20.242 9.066-20.242 20.246.001 11.18 9.065 20.243 20.245 20.243 11.18 0 20.243-9.063 20.244-20.243-.002-11.182-9.066-20.245-20.247-20.246"/><path d="M91.496 105.943c-3.492 0-5.9 2.512-4.266 4.605l.03.04a24.661 24.661 0 0 0 38.385 0l.032-.04c1.63-2.093-.774-4.605-4.267-4.605Z"/><path fill="#dc9b85" d="M64.806 28.356c3.897-1.118 18.18 10.747 21.032 20.69 2.85 9.943-4.049 21.892-8.46 23.157-4.41 1.265-16.593-5.213-19.444-15.156-2.851-9.943 2.974-27.574 6.872-28.691Z"/><path fill="#f87676" d="M76.703 54.558c2.423 8.451 2.574 15.823.337 16.464-2.237.642-6.015-5.69-8.438-14.14-2.424-8.452-2.575-15.823-.338-16.465 2.238-.641 6.016 5.69 8.439 14.141Z"/><path fill="#be7b61" d="M137.282 30.223c3.898 1.118 9.724 18.749 6.872 28.692-2.85 9.943-15.034 16.42-19.445 15.156-4.41-1.265-11.31-13.215-8.459-23.158 2.851-9.942 17.135-21.807 21.032-20.69Z"/><path fill="#f87676" d="M133.486 58.749c-2.423 8.451-6.201 14.782-8.438 14.14-2.237-.64-2.086-8.012.337-16.463s6.202-14.782 8.439-14.14c2.237.64 2.086 8.012-.338 16.463Z"/><path fill="#be7b61" d="M78.105 95.268c0 8.274-5.66 14.982-12.641 14.982-6.982 0-12.642-6.708-12.642-14.982 0-8.275 5.66-14.983 12.642-14.983 6.982 0 12.641 6.708 12.641 14.983Z"/><path fill="#dc9b85" d="M76.233 91.522c0 8.275-5.66 14.983-12.642 14.983-6.982 0-12.641-6.708-12.641-14.983S56.61 76.54 63.59 76.54c6.982 0 12.642 6.707 12.642 14.982Z"/><path d="M64.247 106.224c6.554 0 11.892-4.396 11.892-9.799 0-.837-.129-1.67-.381-2.468l-23.404 2.47c0 5.402 5.338 9.797 11.893 9.797Z"/><path fill="#efefef" d="M73.704 98.732a2.833 2.833 0 1 1-5.665 0 2.833 2.833 0 0 1 5.665 0"/><path fill="#be7b61" d="M156.764 91.522c0 8.275-5.66 14.983-12.642 14.983-6.981 0-12.641-6.708-12.641-14.983s5.66-14.982 12.641-14.982c6.982 0 12.642 6.707 12.642 14.982Z"/><path d="M143.514 106.255c-6.555 0-11.893-4.394-11.893-9.796 0-.839.129-1.672.381-2.471l23.404 2.472c0 5.403-5.337 9.795-11.892 9.795Z"/><path fill="#efefef" d="M134.018 98.694a2.833 2.833 0 1 0 5.665 0 2.833 2.833 0 0 0-5.665 0"/></svg>