<svg xmlns="http://www.w3.org/2000/svg" width="131.836" height="184.429"><path d="m116.258 126.998-19.594-5.763a17.887 17.887 0 0 1-12.839-17.16H48.053a17.887 17.887 0 0 1-12.839 17.16l-19.595 5.763a15.331 15.331 0 0 0-11.005 14.707v35.057a7.666 7.666 0 0 0 7.666 7.666h107.318a7.666 7.666 0 0 0 7.666-7.666v-35.057a15.33 15.33 0 0 0-11-14.708" fill="#317d27"/><path d="M66.144 132.312a33.674 33.674 0 0 0 18.26-5.382v-18.1h-36.52v18.1a33.677 33.677 0 0 0 18.26 5.382" fill="#f0c382"/><path d="M36.273 87.553a7.8 7.8 0 1 0-12.451 8.316 10.425 10.425 0 1 0 12.451-8.316m60.681 0a7.8 7.8 0 1 1 12.451 8.316 10.425 10.425 0 1 1-12.451-8.316" fill="#ff8250"/><path d="M101.361 72.313h-1.3V43.618H32.232v28.7h-1.3a6.522 6.522 0 0 0 0 13.043h1.436a33.879 33.879 0 0 0 67.562 0h1.436a6.522 6.522 0 0 0 0-13.043" fill="#ffe1a0"/><path d="M32.232 43.618v28.7H31.3a6.777 6.777 0 0 0-6.86 5.849 6.523 6.523 0 0 0 6.488 7.194h1.436a33.827 33.827 0 0 0 10.3 21.813V64.487a10.435 10.435 0 0 1 10.435-10.435h31.3a5.217 5.217 0 0 0 5.217-5.217v-5.217Z" fill="#f7d291"/><path d="M50.493 80.138a2.608 2.608 0 0 1-2.609-2.609V74.92a2.609 2.609 0 0 1 5.217 0v2.609a2.608 2.608 0 0 1-2.609 2.609m31.305 0a2.608 2.608 0 0 1-2.609-2.609V74.92a2.609 2.609 0 0 1 5.217 0v2.609a2.608 2.608 0 0 1-2.609 2.609" fill="#6e5a64"/><path d="M22.746 79.273a7.8 7.8 0 1 0 14.359-4.243 10.425 10.425 0 1 0-14.359 4.243m88.981.549a7.8 7.8 0 1 1-14.614-3.256 10.425 10.425 0 1 1 14.614 3.256" fill="#dc7346"/><path d="M66.144 103.617c-3.913 0-7.525-1.256-9.658-3.36a2.608 2.608 0 1 1 3.663-3.714c.869.857 2.96 1.857 5.994 1.857s5.126-1 5.994-1.857a2.608 2.608 0 1 1 3.663 3.714c-2.132 2.1-5.744 3.36-9.657 3.36" fill="#f7d291"/><path d="M53.101 69.704h-5.217a2.609 2.609 0 1 1 0-5.217h5.217a2.609 2.609 0 0 1 0 5.217m31.304 0h-5.217a2.609 2.609 0 0 1 0-5.217h5.217a2.609 2.609 0 1 1 0 5.217" fill="#dc7346"/><path d="M78.906 22.748H53.383a26.227 26.227 0 0 0-5.5.585v4.632a15.652 15.652 0 0 0 15.652 15.652h40.92a26.086 26.086 0 0 0-25.55-20.869" fill="#ff9664"/><path d="m130.876 63.27-26.42-14.837-75.941-.008L2.883 66.214c-1.665.9 15.6.48 17.49.48h109.639a1.82 1.82 0 0 0 .863-3.423m-23.292-51.296S100.567.001 66.612.001 24.659 7.486 22.773 11.73l6.723 26.612h73.953Z" fill="#317d27"/><path d="M100.977 37.998H31.4c-1.921 0-3.479 1.168-3.479 2.609v7.826h76.535v-7.825c0-1.44-1.557-2.609-3.478-2.609" fill="#8c4304"/><path d="M53.256 37.998h-13.04a2.609 2.609 0 0 0-2.609 2.609v7.826H50.65v-7.825a2.609 2.609 0 0 1 2.609-2.609" fill="#624304"/><path d="m29.31 63.263 12.248-14.838H28.515L.96 63.263a1.82 1.82 0 0 0 .863 3.423H29.7c-.856 0-1.145-2.527-.391-3.423" fill="#24420d"/><path d="M47.159 132.312H85.55l-7.564 48.967H56.422Z" fill="#f3bb20" stroke="#24420d" stroke-width="6"/><path d="M87.014 87.965H45.275c-4.322 0-7.826 5.383-7.826 12.023V104c0 24.346 12.847 44.083 28.7 44.083s28.7-19.737 28.7-44.083v-4.008c0-6.64-3.5-12.023-7.826-12.023" fill="#ff8250"/><path d="M66.139 103.628c-3.915 0-7.525-1.256-9.658-3.36a2.608 2.608 0 1 1 3.663-3.714c.869.856 2.958 1.857 5.994 1.857s5.126-1 5.994-1.857a2.608 2.608 0 1 1 3.663 3.714c-2.132 2.1-5.742 3.36-9.657 3.36" fill="#b67f5f"/><path d="M76.579 140.062c-15.848 0-28.7-19.737-28.7-44.083v-8.015H45.27c-4.322 0-7.826 5.383-7.826 12.022v4.008c0 24.346 12.847 44.083 28.7 44.083 6.724 0 12.895-3.58 17.786-9.531a19.419 19.419 0 0 1-7.352 1.516" fill="#dc7346"/><path d="M66.455 86.445a2.607 2.607 0 0 1-2.609-2.609v-2.611a2.609 2.609 0 0 1 5.218 0v2.609a2.607 2.607 0 0 1-2.609 2.609" fill="#f7d291"/><path d="M44.534 1.212c-15.71 2.373-20.365 7.217-21.745 10.323l6.723 26.612 16.934-.053" fill="#24420d"/><path d="m69.286 35.348-7.841-.317a2.616 2.616 0 0 0-2.72 2.508l-.422 10.456a2.616 2.616 0 0 0 2.508 2.719l7.841.317a7.848 7.848 0 1 0 .633-15.683m-.882 13.367-5.493-.222a1.832 1.832 0 0 1-1.757-1.9l.3-7.325a1.833 1.833 0 0 1 1.905-1.757l5.493.222a5.5 5.5 0 0 1-.444 10.987" fill="#ffe17d"/><path fill="none" d="M0 0h131.836v161.634H0z"/><path d="M22.238 149.078 7.764 133.427a20.969 20.969 0 0 0-2.937 5.557l14.044 15.185a11.288 11.288 0 0 1 2.769 7.634l.6 20.564 4.619 1.836v-22.4a18.822 18.822 0 0 0-4.619-12.725m87.495.077 14.474-15.728a21.109 21.109 0 0 1 2.937 5.584l-14.044 15.26a11.377 11.377 0 0 0-2.769 7.672v18.646l-5.217 3.613v-22.257a18.971 18.971 0 0 1 4.619-12.788" fill="#24420d"/></svg>