<svg width="512" height="512" xmlns="http://www.w3.org/2000/svg"><path fill="#f7d291" d="m418.6 377.7-87-25.6c-10.5-3.1-17.8-12.8-17.8-23.8V289H198.2v39.3c0 11-7.2 20.7-17.8 23.8l-87 25.6c-21.1 6.2-35.6 25.6-35.6 47.5v62c0 13.7 11.1 24.8 24.8 24.8h346.8c13.7 0 24.8-11.1 24.8-24.8v-62c0-22-14.5-41.3-35.6-47.5Z"/><path fill="#f0c382" d="M198.2 307.5c17.3 9.3 37 14.6 57.8 14.6 20.8 0 40.5-5.3 57.8-14.6V289H198.2v18.5Z"/><path fill="#ddd6ec" d="m419.7 379.9-38.3-14.3c-31.6 45.4-73.8 67.2-125.4 67.2-51.6 0-97.8-21.8-129.4-67.2l-34.3 14.3c-20.7 9.2-34.5 30.9-34.5 58.6v40.9c0 18 11.6 32.7 25.9 32.7h344.7c14.3 0 25.9-14.6 25.9-32.7v-40.9c-.1-27.7-13.9-49.4-34.6-58.6Z"/><path fill="#fff" d="M256 434.4c56.8 0 107.5-25.1 140.8-65.9l-16.8-5.9c-30.3 34.5-74.5 55.3-124 55.3s-93.7-21.9-124-56.3l-16.8 6.9c33.3 40.8 84 65.9 140.8 65.9Z"/><path fill="#aeb9bf" d="M177.7 385 151 352.6l-62.3 26.7c-21.1 9.1-35.2 33.3-35.2 60.5v40.1c0 17.7 11.8 32.1 26.4 32.1h105.6V407.7c-.1-8.5-2.9-16.7-7.8-22.7ZM334 385l26.7-32.4 62.3 26.7c21.1 9.1 35.2 33.3 35.2 60.5v40.1c0 17.7-11.8 32.1-26.4 32.1H326.2V407.7c0-8.5 2.8-16.7 7.8-22.7Z"/><path fill="#5a4650" d="M385.3 150.8c0-64.6-41.6-118.5-96.8-130.3-9.5-2.5-19.5-3.9-30-4.1-75.4-1.4-137.2 62.6-137.2 138 0 20.5 15.4 37.8 35.8 40.2l197.6-13.2c9.8 5.1 19.9 9.5 30.3 13.2l.3-43.8Z"/><path fill="#ffe1a0" d="M192.6 95.5c-6.8 6.6-23.7 26.3-23.7 55.4v7.9c0 8.7-7.1 15.8-15.8 15.8h-3.3c-9 0-17.4 5.7-19.8 14.4-3.5 13.2 6.4 25.2 19.1 25.2h4.4c4.1 53.1 48.3 95 102.5 95 56.8 0 102.9-46.1 102.9-102.9L339.6 95.5h-147Z"/><path fill="#f7d291" d="M192.6 95.5c-2 1.9-23.7 22.4-23.7 55.4v7.9c0 8.7-7.1 15.8-15.8 15.8h-3.3c-9 0-17.4 5.7-19.8 14.4-3.5 13.2 6.4 25.2 19.1 25.2h4.4c4.1 53.1 48.3 95 102.5 95 5.4 0 10.7-.5 15.9-1.3-49.3-7.6-87.1-50.1-87.1-101.6v-14.6c0-27.6 31.7-43.3 53.5-26.3 32.2 25.1 71.7 48.7 118 63.8 1.7-7.3 2.6-15 2.6-22.8L339.6 95.5h-147Z"/><path fill="#6e5a64" d="M208.4 199.1c-4.4 0-7.9-3.5-7.9-7.9v-7.9c0-4.4 3.5-7.9 7.9-7.9s7.9 3.5 7.9 7.9v7.9c0 4.3-3.5 7.9-7.9 7.9Z"/><path fill="#a06e50" d="M216.3 166.7h-15.8c-4.4 0-7.9-3.5-7.9-7.9s3.5-7.9 7.9-7.9h15.8c4.4 0 7.9 3.5 7.9 7.9s-3.5 7.9-7.9 7.9Z"/><path fill="#6e5a64" d="M297 199.1c-4.4 0-7.9-3.5-7.9-7.9v-7.9c0-4.4 3.5-7.9 7.9-7.9s7.9 3.5 7.9 7.9v7.9c0 4.3-3.5 7.9-7.9 7.9Z"/><path fill="#a06e50" d="M304.9 166.7h-15.8c-4.4 0-7.9-3.5-7.9-7.9s3.5-7.9 7.9-7.9h15.8c4.4 0 7.9 3.5 7.9 7.9s-3.5 7.9-7.9 7.9Z"/><path fill="#e3aa75" d="M255.9 253.8c-11.9 0-22.8-3.8-29.3-10.2-3.1-3.1-3.1-8.1-.1-11.2 3.1-3.1 8.1-3.1 11.2-.1 2.6 2.6 9 5.6 18.2 5.6s15.6-3 18.2-5.6c3.1-3.1 8.1-3 11.2.1 3.1 3.1 3 8.1-.1 11.2-6.5 6.4-17.4 10.2-29.3 10.2Z"/><path fill="#64505a" d="m364.8 194.7.3-43.9c0-72.5-52.3-131.4-117.3-132.7-22.9-.5-44.3 6.8-62.7 19.3 29.3 43.6 94.5 127.4 179.7 157.3Z"/><path fill="#6e5a64" d="m323.4 168.6.2-36.3c0-59.9-40.3-108.7-90.3-109.8-17.7-.4-34.1 5.6-48.2 16 22.5 36 72.7 105.3 138.3 130.1Z"/><path fill="#5a4650" d="M347.8 455.3c-4.6 0-8.3-3.7-8.3-8.3 0-4.6 3.7-8.3 8.2-8.3h.1c4.6 0 8.3 3.7 8.3 8.3 0 4.6-3.7 8.3-8.3 8.3ZM347.8 497.4c-4.6 0-8.3-3.7-8.3-8.3 0-4.6 3.7-8.3 8.2-8.3h.1c4.6 0 8.3 3.7 8.3 8.3 0 4.6-3.7 8.3-8.3 8.3Z"/></svg>