<svg width="512" height="512" xmlns="http://www.w3.org/2000/svg"><path fill="#ffd164" d="M256 243.8H150.3c0 62.6-32.5 98.3-16.3 178.8h122V243.8Z"/><path fill="#a5cdff" d="M413.1 401.1 327.7 371c-13.2-4.7-22.1-17.2-22.1-31.2v-51h-99.2v51c0 14-8.8 26.5-22.1 31.2l-85.4 30.1c-19.8 7-33.1 25.8-33.1 46.8v39.3c0 13.7 11.1 24.8 24.8 24.8h330.8c13.7 0 24.8-11.1 24.8-24.8v-39.3c0-21.1-13.3-39.8-33.1-46.8Z"/><path fill="#ffd164" d="M373 243.8H133.2c0 52.5-36.9 82.5-18.4 149.9h276.7c18.4-67.4-18.5-97.4-18.5-149.9Z"/><path fill="#9c969e" d="M347 297H165c-27.4 0-49.6 22.2-49.6 49.6 0 54.8 44.4 99.2 99.2 99.2h82.7c54.8 0 99.2-44.4 99.2-99.2.1-27.4-22.1-49.6-49.5-49.6Z"/><path fill="#6f6571" d="M344.8 321.8c18 0 25.1 23.3 10.1 33.3l-85.1 56.7c-8.3 5.6-19.2 5.6-27.5 0l-85.1-56.7c-15-10-7.9-33.3 10.1-33.3h177.5Z"/><path fill="#ffe1a0" d="M242.2 411.9c8.3 5.6 19.2 5.6 27.5 0l60.2-40.1-2.3-.8c-13.2-4.7-22.1-17.2-22.1-31.2v-51h-99.2v51c0 14-8.8 26.5-22.1 31.2l-2.3.8 60.3 40.1Z"/><path fill="#d29b6e" d="M206.4 319.5c13.5 6 28.1 9.7 43.6 10.4 2 .1 4 .1 6 .1 17.6 0 34.4-3.8 49.6-10.4v-30.9h-99.2v30.8Z"/><path fill="#8cb4eb" d="M140.2 512v-25.9c0-11.7-5-22.9-13.7-30.8l-46.7-42c-3.9 4-7 8.7-9.3 13.8l45 40.5c5.2 4.7 8.2 11.4 8.2 18.5V512h16.5ZM371.8 512v-25.9c0-11.7 5-22.9 13.7-30.8l46.7-42c3.9 4 7 8.7 9.3 13.8l-45 40.5c-5.2 4.7-8.2 11.4-8.2 18.5V512h-16.5ZM214.7 421c-4.6 0-8.3 3.7-8.3 8.3V512h16.5v-82.7c0-4.6-3.7-8.3-8.2-8.3ZM297.3 421c-4.6 0-8.3 3.7-8.3 8.3V512h16.5v-82.7c.1-4.6-3.6-8.3-8.2-8.3Z"/><path fill="#f0c382" d="M207.2 355.7c15 6.5 31.4 10.1 48.8 10.1s33.8-3.6 48.8-10.1v-30.6h-97.5v30.6h-.1Z"/><path fill="#ffe1a0" d="M256 349.5c-58.3 0-105.7-47.3-105.7-105.7V130h211.3v113.8c.1 58.4-47.2 105.7-105.6 105.7Z"/><path fill="#f7d291" d="M150.4 130v113.8c0 58.3 47.3 105.7 105.7 105.7 5.5 0 10.9-.6 16.3-1.4-50.6-7.8-89.4-51.5-89.4-104.3V216c0-14.5 9.6-27.3 23.6-31.2 22.5-6.4 46-14.6 65.8-24.9v1.1c0 12.8 9.4 24.4 22.2 25.6 1.2.1 2.5.1 3.8 0 8.9-.6 41-6.5 63.4-11.7V130H150.4Z"/><path fill="#ffd164" d="M304.8 365.7v-.2ZM207.2 365.5v.2Z"/><path fill="#e3aa75" d="M256 300.8c-12.2 0-23.4-3.9-30.1-10.5a8.18 8.18 0 0 1-.1-11.5c3.2-3.2 8.3-3.2 11.5-.1 2.7 2.7 9.2 5.8 18.7 5.8s16-3.1 18.7-5.8c3.2-3.2 8.3-3.1 11.5.1 3.2 3.2 3.1 8.3-.1 11.5-6.7 6.6-17.9 10.5-30.1 10.5Z"/><path fill="#6e5a64" d="M207.2 243.8c-4.5 0-8.1-3.6-8.1-8.1v-8.1c0-4.5 3.6-8.1 8.1-8.1s8.1 3.6 8.1 8.1v8.1c.1 4.5-3.6 8.1-8.1 8.1ZM304.8 243.8c-4.5 0-8.1-3.6-8.1-8.1v-8.1c0-4.5 3.6-8.1 8.1-8.1s8.1 3.6 8.1 8.1v8.1c0 4.5-3.6 8.1-8.1 8.1Z"/><path fill="#e3aa75" d="M312.9 211.3h-16.3c-4.5 0-8.1-3.6-8.1-8.1s3.6-8.1 8.1-8.1h16.3c4.5 0 8.1 3.6 8.1 8.1s-3.6 8.1-8.1 8.1ZM215.4 211.3h-16.3c-4.5 0-8.1-3.6-8.1-8.1s3.6-8.1 8.1-8.1h16.3c4.5 0 8.1 3.6 8.1 8.1s-3.6 8.1-8.1 8.1Z"/><path fill="#5a4650" d="M199.1 292.6h-65c-17.9 0-32.5-14.6-32.5-32.5V154.4C101.6 69.3 170.9 0 256 0c85.1 0 154.4 69.3 154.4 154.4v65c0 4.5-3.6 8.1-8.1 8.1s-8.1-3.6-8.1-8.1v-65c0-76.2-62-138.2-138.2-138.2-76.2 0-138.2 62-138.2 138.2v105.7c0 9 7.3 16.3 16.3 16.3h65c4.5 0 8.1 3.6 8.1 8.1 0 4.4-3.6 8.1-8.1 8.1Z"/><path fill="#ffd164" d="M250.1 40.8c-65.6 3.1-116 59.6-116 125.2v37.2h16.3v-7.4c0-7.4 4.9-13.9 12.1-15.7 31.8-8.2 83.1-23.4 114.3-41.9 5.4-3.2 12.2.8 12.2 7v16.9c0 4.7 3.9 8.4 8.6 8.1 9.7-.7 26.4-2.5 43.7-7.7 9.4-2.8 20.5 8.2 20.5 19.9v20.8h16.3v-40.6c-.2-69.3-58-125.1-128-121.8Z"/><path fill="#ffe17d" d="M250.1 40.8c-18.1.9-35.1 5.9-50.2 14 2.8 24.2 13.2 63.9 48.6 97.3 10.3-4.4 19.9-9 28.1-13.9 5.4-3.2 12.2.8 12.2 7v16.9c0 4.7 3.9 8.4 8.6 8.1 9.7-.7 26.4-2.5 43.7-7.7 9.4-2.8 20.5 8.2 20.5 19.9v20.8h16.3v-40.6c0-69.3-57.8-125.1-127.8-121.8Z"/><path fill="#6e5a64" d="M126 251.9h16.3c4.5 0 8.1-3.6 8.1-8.1V195c0-4.5-3.6-8.1-8.1-8.1H126c-9 0-16.3 7.3-16.3 16.3v32.5c0 9 7.3 16.2 16.3 16.2Z"/><path fill="#5a4650" d="M142.2 251.9h-8.1v-65h8.1c4.5 0 8.1 3.6 8.1 8.1v48.8c.1 4.5-3.6 8.1-8.1 8.1Z"/><path fill="#6e5a64" d="M386 251.9h-16.3c-4.5 0-8.1-3.6-8.1-8.1V195c0-4.5 3.6-8.1 8.1-8.1H386c9 0 16.3 7.3 16.3 16.3v32.5c0 9-7.3 16.2-16.3 16.2Z"/><path fill="#5a4650" d="M369.8 251.9h8.1v-65h-8.1c-4.5 0-8.1 3.6-8.1 8.1v48.8c0 4.5 3.6 8.1 8.1 8.1Z"/><path fill="#6e5a64" d="M199.1 292.6h-16.3v-16.3h16.3c4.5 0 8.1 3.6 8.1 8.1s-3.6 8.2-8.1 8.2Z"/></svg>