<svg width="512" height="512" xmlns="http://www.w3.org/2000/svg"><path fill="#8c5f4b" d="M165.16 165.161c-.28 0-.549.038-.828.042a41.327 41.327 0 0 0-47.751-32.45c-16.289 2.785-29.72 15.638-33.081 31.818-3.69 17.765 4.051 34.038 17.202 42.961 4.628 3.139 6.779 8.669 6.664 14.26-.118 5.717.622 11.646 2.441 17.707 6.369 21.222 24.753 37.455 46.679 40.643 35.776 5.201 66.481-22.401 66.481-57.174 0-31.926-25.881-57.807-57.807-57.807ZM346.838 165.161c.28 0 .549.038.828.042a41.327 41.327 0 0 1 47.751-32.45c16.289 2.785 29.72 15.638 33.081 31.818 3.69 17.765-4.051 34.038-17.202 42.961-4.628 3.139-6.779 8.669-6.664 14.26.118 5.717-.622 11.646-2.441 17.707-6.369 21.222-24.753 37.455-46.679 40.643-35.776 5.201-66.481-22.401-66.481-57.174 0-31.926 25.881-57.807 57.807-57.807Z"/><path fill="#8c5f4b" d="M255.999 0C183.026 0 123.87 59.156 123.87 132.129v45.42h264.258v-45.42C388.128 59.156 328.972 0 255.999 0Z"/><path fill="#e3aa75" d="m412.877 368.204-85.291-30.103a33.032 33.032 0 0 1-22.039-31.149V256H206.45v50.952a33.033 33.033 0 0 1-22.038 31.149l-85.291 30.103c-19.81 6.992-33.057 25.716-33.057 46.723v72.299c0 13.682 11.092 24.774 24.774 24.774h330.323c13.682 0 24.774-11.092 24.774-24.774v-72.299c-.001-21.008-13.248-39.732-33.058-46.723Z"/><path fill="#b4f09b" d="m412.877 368.204-85.291-30.103c-5.471-1.931-10.128-5.256-13.781-9.424v14.033c0 34.206-27.729 61.935-61.935 61.935s-61.935-27.729-61.935-61.935v-7.217c-1.747 1.011-3.569 1.919-5.522 2.608l-85.291 30.103c-19.81 6.991-33.057 25.716-33.057 46.723v72.299c0 13.682 11.092 24.774 24.774 24.774h330.323c13.682 0 24.774-11.092 24.774-24.774v-72.299c-.002-21.008-13.249-39.732-33.059-46.723Z"/><path fill="#9bdc9b" d="M160.565 416.114c7.746 18.574 25.714 30.576 45.773 30.576 4.045 0 8.096-.5 12.041-1.486l37.62-9.406 37.619 9.405a49.719 49.719 0 0 0 12.042 1.486c20.059 0 38.027-12.002 45.773-30.576 8.426-20.203 12.872-42.429 13.165-64.95l-37.013-13.064c-5.471-1.931-10.128-5.256-13.781-9.424v14.033c0 34.206-27.729 61.935-61.935 61.935s-61.935-27.729-61.935-61.935v-7.217c-1.747 1.011-3.569 1.919-5.522 2.608l-37.013 13.065c.294 22.52 4.739 44.747 13.166 64.95Z"/><path fill="#d29b6e" d="M206.451 303.587c15.198 6.584 31.957 10.219 49.548 10.219s34.35-3.636 49.548-10.219v-31.071H206.45l.001 31.071Z"/><path fill="#f5b97d" d="M367.483 156.903s-11.058-1.332-14.441-2.268c-18.762-5.195-59.382-21.416-90.152-68.842-3.242-4.997-10.54-4.997-13.782 0-30.77 47.425-71.39 63.647-90.152 68.842-3.383.936-14.441 2.268-14.441 2.268-12.104 0-21.775 10.416-20.538 22.774 1.076 10.745 10.916 18.516 21.715 18.516h3.369c4.23 55.419 50.435 99.097 106.938 99.097s102.708-43.678 106.938-99.097h3.369c10.799 0 20.64-7.771 21.715-18.516 1.237-12.358-8.434-22.774-20.538-22.774Z"/><path fill="#e3aa75" d="M353.042 154.635c-18.742-5.191-59.297-21.383-90.055-68.694-3.29-5.061-10.681-5.069-13.971-.008-21.246 32.684-47.161 50.508-67.339 60.124-9.034 4.304-16.924 6.973-22.72 8.578-3.383.936-14.441 2.268-14.441 2.268-12.104 0-21.774 10.415-20.538 22.773 1.075 10.746 10.915 18.518 21.715 18.518h3.369c4.23 55.419 50.435 99.097 106.938 99.097 5.632 0 11.118-.564 16.516-1.4-47.149-7.3-84.197-45.17-90.036-92.77-.867-7.071-.671-14.248.207-21.319.715-5.761 2.424-11.468 5.766-16.215a34.786 34.786 0 0 1 11.276-10.259c18.064-10.246 38.285-26.081 56.271-50.479 21.545 29.226 46.297 46.164 66.709 55.929 14.56 6.966 31.704 5.594 44.775-3.876-.001.001-11.06-1.33-14.442-2.267Z"/><path fill="#5a4650" d="M206.459 182.395a8.256 8.256 0 0 1-8.258-8.258v-8.258a8.256 8.256 0 0 1 8.258-8.258 8.256 8.256 0 0 1 8.258 8.258v8.258a8.256 8.256 0 0 1-8.258 8.258ZM305.555 182.395a8.256 8.256 0 0 1-8.258-8.258v-8.258a8.256 8.256 0 0 1 8.258-8.258 8.256 8.256 0 0 1 8.258 8.258v8.258a8.255 8.255 0 0 1-8.258 8.258Z"/><path fill="#b67f5f" d="M256.007 240.202c-12.387 0-23.823-3.976-30.573-10.637-3.25-3.202-3.282-8.431-.081-11.677 3.201-3.246 8.444-3.282 11.677-.081 2.75 2.714 9.371 5.879 18.976 5.879 9.605 0 16.226-3.165 18.976-5.879 3.234-3.202 8.476-3.165 11.677.081 3.202 3.246 3.169 8.476-.081 11.677-6.748 6.661-18.184 10.637-30.571 10.637Z"/><path fill="#a06e50" d="M275.2 1.551c-1.685 7.485-2.685 15.226-2.685 23.223 0 59.29 48.065 107.355 107.355 107.355 2.781 0 5.51-.208 8.237-.416C387.9 65.468 338.913 10.852 275.2 1.551Z"/><path fill="#ffd164" d="M260.128 495.484h-8.258a8.258 8.258 0 0 1-8.258-8.258v-74.323h24.774v74.323a8.258 8.258 0 0 1-8.258 8.258Z"/><path fill="#9bdc9b" d="M140.394 512v-58.597a41.205 41.205 0 0 0-14.548-31.456l-47.058-40.016c-3.736 4.172-6.701 8.955-8.848 14.152l45.213 38.448a24.709 24.709 0 0 1 8.726 18.871V512h16.515ZM371.612 512v-58.597a41.205 41.205 0 0 1 14.548-31.456l47.058-40.016c3.736 4.172 6.701 8.955 8.848 14.152l-45.213 38.448a24.709 24.709 0 0 0-8.726 18.871V512h-16.515Z"/><path fill="#ffc350" d="m243.612 438.895 12.387-3.097 12.387 3.097v-25.992h-24.774Z"/><path fill="#ffe17d" d="m305.539 313.806 31.231 10.62c6.327 2.206 10.707 8.048 11.101 14.737 1.762 29.875-4.756 53.989-11.681 70.593-6.312 15.134-22.657 23.401-38.566 19.424l-41.625-10.406-41.626 10.407c-15.908 3.977-32.254-4.29-38.566-19.424-6.925-16.604-13.444-40.718-11.681-70.593.394-6.689 4.775-12.531 11.101-14.737l31.231-10.62-.008-.266v24.774c0 27.365 22.184 49.548 49.548 49.548s49.548-22.184 49.548-49.548v-24.774"/><path fill="#ffd164" d="m305.539 313.806.008.003v-.268ZM206.451 313.541v.268l.008-.003ZM255.999 404.645c36.486 0 66.065-29.578 66.065-66.065v-19.155l-16.516-5.616v24.506c0 27.365-22.183 49.548-49.548 49.548-27.365 0-49.548-22.183-49.548-49.548v-24.506l-16.516 5.616v19.155c-.002 36.487 29.577 66.065 66.063 66.065Z"/></svg>