<svg width="512" height="512" xmlns="http://www.w3.org/2000/svg"><path fill="#fff" d="m403 547-294-2c-23 0-41-19-41-42L50.4 389c0-23 18.6-41.6 41.6-41.6h324.2c23 0 41.6 18.6 41.6 41.6L443 501c0 23-17 46-40 46Z"/><path fill="#353231" d="M429.4 83.5c0 27.338-22.162 49.5-49.5 49.5s-49.5-22.162-49.5-49.5S352.562 34 379.9 34s49.5 22.162 49.5 49.5Z"/><path fill="#fff" d="M404.7 83.5c0 13.697-11.103 24.8-24.8 24.8-13.697 0-24.8-11.103-24.8-24.8 0-13.697 11.103-24.8 24.8-24.8 13.697 0 24.8 11.103 24.8 24.8Z"/><path fill="#353231" d="M412.9 120.4c-8.8 7.9-20.3 12.7-33.1 12.7-27.4 0-49.5-22.2-49.5-49.5 0-11 3.7-21.2 9.8-29.4 29.8 15.1 55 38.1 72.8 66.2Z" opacity=".9"/><path fill="#ddd6ec" d="M398.1 100.2c-4.5 5-11 8.1-18.2 8.1-13.7 0-24.8-11.1-24.8-24.8 0-6.4 2.5-12.2 6.5-16.6 13.6 9.5 25.9 20.7 36.5 33.3Z"/><path fill="#353231" d="M181.6 83.5c0 27.338-22.162 49.5-49.5 49.5s-49.5-22.162-49.5-49.5S104.762 34 132.1 34s49.5 22.162 49.5 49.5Z"/><path fill="#fff" d="M156.9 83.5c0 13.697-11.103 24.8-24.8 24.8-13.697 0-24.8-11.103-24.8-24.8 0-13.697 11.103-24.8 24.8-24.8 13.697 0 24.8 11.103 24.8 24.8Z"/><path fill="#353231" d="M99.1 120.4c8.8 7.9 20.3 12.7 33.1 12.7 27.4 0 49.5-22.2 49.5-49.5 0-11-3.7-21.2-9.7-29.4-29.9 15.1-55.1 38.1-72.9 66.2Z" opacity=".9"/><path fill="#ddd6ec" d="M113.9 100.2c4.5 5 11 8.1 18.2 8.1 13.7 0 24.8-11.1 24.8-24.8 0-6.4-2.5-12.2-6.5-16.6-13.6 9.5-25.9 20.7-36.5 33.3Z"/><path fill="#fff" d="M425.3 219.8c0 93.502-75.798 169.3-169.3 169.3-93.502 0-169.3-75.798-169.3-169.3 0-93.502 75.798-169.3 169.3-169.3 93.502 0 169.3 75.798 169.3 169.3Z"/><path fill="#353231" d="M278.7 366.4c-93.5 0-169.3-75.8-169.3-169.3 0-41 14.6-78.5 38.8-107.8-37.6 31.1-61.5 78-61.5 130.5 0 93.5 75.8 169.3 169.3 169.3 52.5 0 99.5-23.9 130.5-61.5-29.3 24.2-66.8 38.8-107.8 38.8Z" opacity=".9"/><path fill="#353231" d="m366.4 248.3-.2.1c-12.5 7.4-32-2.4-43.3-21.7-11.3-19.3-10.4-41 2.2-48.4 12.6-7.4 32 2.4 43.3 21.7 11.5 19.7 10.5 41-2 48.3Z"/><path fill="#fff" d="M339.4 218.9h-.1c-7 0-12.7-5.7-12.7-12.7 0-7 5.7-12.7 12.7-12.7 7 0 12.7 5.7 12.7 12.7 0 7.1-5.6 12.7-12.6 12.7Z"/><path fill="#353231" d="M374.5 546c2.4-8.3 3.6-17 3.6-26 0-59.6-55.5-108-124-108s-124 48.4-124 108c0 9 1.3 17.7 3.6 26Z" opacity=".9"/><path fill="#353231" d="M156.4 198.2c11.3-19.3 30.8-29 43.3-21.7 12.5 7.3 13.5 29.1 2.2 48.4-11.3 19.3-30.8 29-43.3 21.7l-.2-.1c-12.6-7.4-13.5-28.8-2-48.3Z"/><path fill="#fff" d="M172.7 204.3c0-7 5.7-12.7 12.7-12.7 7 0 12.7 5.7 12.7 12.7 0 7-5.7 12.7-12.7 12.7h-.1c-7 0-12.6-5.6-12.6-12.7Z"/><path fill="#ddd6ec" d="M259.1 325.6h-4.2c-1.6 0-2.8-1.3-2.8-2.8v-66.5c0-1.6 1.3-2.8 2.8-2.8h4.2c1.6 0 2.8 1.3 2.8 2.8v66.5c0 1.5-1.3 2.8-2.8 2.8Z"/><path fill="#353231" d="M284.859 225.117c-6.9-5.9-17.1-4.8-23.4 1.7l-2.5 2.5-2.5-2.5c-6.3-6.5-16.5-7.6-23.4-1.7-7.9 6.7-8.3 18.8-1.2 26.1l24.2 25c1.5 1.6 4 1.6 5.6.1l.1-.1 24.3-25c7.1-7.4 6.7-19.4-1.2-26.1ZM162.816 421.85c23.964 53.234 19.67 107.066-9.591 120.238-29.261 13.172-72.408-19.304-96.371-72.538-23.964-53.233-19.67-107.065 9.591-120.237 29.26-13.172 72.408 19.304 96.371 72.537ZM443.28 350.207c29.356 13.09 33.793 67.125 9.91 120.692-23.884 53.567-67.043 86.382-96.4 73.293-29.355-13.088-33.792-67.124-9.909-120.691 23.884-53.568 67.043-86.382 96.399-73.294Z"/></svg>