<svg width="159.6" height="155.5" xmlns="http://www.w3.org/2000/svg"><defs><clipPath id="a"><path d="M2.3 9h155.2v128.8H2.3Z"/></clipPath><clipPath id="b"><path d="M2.3 9h155.2v128.8H2.3Z"/></clipPath><clipPath id="c"><path d="M2.3 9h77.6v128.8H2.3Z"/></clipPath></defs><g clip-path="url(#a)" transform="matrix(.9335 0 0 .9335 5.838 3.599)"><g clip-path="url(#b)"><path fill="#ffb6b6" d="M144.3 73.4c0 35.6-28.8 64.4-64.4 64.4-35.6 0-64.4-28.8-64.4-64.4C15.5 37.8 44.3 9 79.9 9c35.6 0 64.4 28.8 64.4 64.4"/></g><g clip-path="url(#b)" transform="translate(77.598)"><g clip-path="url(#c)"><path fill="#ffa19d" d="M74.2 43.5 45.6 25.7C33.7 14.9 18.3 9 2.3 9v128.8c35.6 0 64.4-28.8 64.4-64.4 0-1.5-.1-3-.2-4.4l8-5.3c5.5-3.7 7-11.1 3.4-16.7-.9-1.4-2.2-2.6-3.7-3.5"/></g></g><g clip-path="url(#b)"><path d="M55.9 79.6c0 3.4-2.8 6.2-6.2 6.2-3.4 0-6.2-2.8-6.2-6.2 0-3.4 2.8-6.2 6.2-6.2 3.5 0 6.2 2.8 6.2 6.2"/></g><g clip-path="url(#b)"><path d="M116.2 79.6c0 3.4-2.8 6.2-6.2 6.2-3.4 0-6.2-2.8-6.2-6.2 0-3.4 2.8-6.2 6.2-6.2 3.5 0 6.2 2.8 6.2 6.2"/></g><g clip-path="url(#b)"><path fill="#f99" d="M99.3 100.9c0 12.9-8.7 23.4-19.4 23.4s-19.4-10.5-19.4-23.4c0-12.9 8.7-16.2 19.4-16.2s19.4 3.3 19.4 16.2"/></g><g clip-path="url(#b)"><path fill="#ffdcdc" d="M99.3 105.3c-.2 10.7-9.1 19.2-19.9 19-10.4-.2-18.7-8.6-19-19 0-10.5 8.7-13.1 19.4-13.1s19.5 2.6 19.5 13.1"/></g><g clip-path="url(#b)"><path d="M76.3 108.2c.1 2.3-1.8 4.2-4 4.2-2.3.1-4.2-1.8-4.2-4-.1-2.3 1.8-4.2 4-4.2h.1c2.2-.1 4.1 1.7 4.1 4"/></g><g clip-path="url(#b)"><path d="M91.8 108.2c.1 2.3-1.8 4.2-4 4.2-2.3.1-4.2-1.8-4.2-4-.1-2.3 1.8-4.2 4-4.2h.1c2.2-.1 4.1 1.7 4.1 4"/></g><g clip-path="url(#b)"><path fill="#ffdcdc" d="M36.7 25.7 8 43.5C2.4 47 .6 54.4 4.1 60c.9 1.5 2.1 2.7 3.6 3.7l15.9 10.5c3.7 2.5 8.8 1.5 11.2-2.3.9-1.3 1.3-2.8 1.4-4.4Z"/></g><g clip-path="url(#b)"><path fill="#ffdcdc" d="m123.2 25.7 28.7 17.8c5.6 3.5 7.4 10.9 3.9 16.5-.9 1.5-2.1 2.7-3.6 3.7l-15.9 10.5c-3.7 2.5-8.8 1.5-11.2-2.3-.9-1.3-1.3-2.8-1.4-4.4Z"/></g></g><path fill="#40ac93" d="m124.609 100.492-1.165-1.165c-3.079-3.162-7.988-3.495-11.399-.832-3.578 2.912-4.077 8.07-1.165 11.648.167.25.333.416.583.666l13.312 11.981c-.083-3.411-.166-13.063-.166-22.298Z"/><path fill="#4fd8b8" d="m124.609 100.492 1.165-1.165c3.078-3.162 7.987-3.495 11.399-.832 3.578 2.912 4.077 8.07 1.165 11.648-.167.25-.333.416-.583.666l-13.063 11.898c0-3.411-.083-12.98-.083-22.215Z"/><path fill="#40ac93" d="m145.906 122.729 1.165-1.165c2.995-3.162 3.328-7.988.749-11.399-2.58-3.411-7.406-4.077-10.734-1.498-.333.25-.665.583-.915.832l-11.482 13.313c3.162 0 12.314-.083 21.217-.083Z"/><path fill="#4fd8b8" d="m145.906 122.729 1.165 1.248c2.995 3.078 3.328 7.904.749 11.399-2.58 3.328-7.406 3.994-10.734 1.414-.333-.25-.665-.582-.998-.832l-11.4-13.146c3.163 0 12.315-.083 21.218-.083Z"/><path fill="#40ac93" d="m124.587 142.3 1.165 1.082c3.245 2.746 7.905 2.995 11.482.665 3.079-1.996 3.91-6.157 1.914-9.235-.333-.583-.832-1.082-1.331-1.498l-13.23-10.567c-.083 2.912 0 11.4 0 19.553Z"/><path fill="#4fd8b8" d="m124.587 142.3-1.165 1.082c-3.245 2.746-7.904 3.078-11.399.665-3.078-1.996-3.993-6.157-1.913-9.235.332-.583.832-1.082 1.33-1.498l13.064-10.567c0 2.995.083 11.4.083 19.553Z"/><path fill="#40ac93" d="m103.641 122.741-1.081 1.165c-2.996 3.162-3.329 7.988-.832 11.4a7.547 7.547 0 0 0 10.483 1.58c.416-.25.75-.582 1.082-.998l11.316-13.313c-3.162.083-12.231.166-20.968.166Z"/><path fill="#4fd8b8" d="m103.641 122.741-1.081-1.248c-2.996-3.078-3.329-7.904-.832-11.399a7.547 7.547 0 0 1 10.483-1.58c.416.249.75.582 1.082.998l11.233 13.146c-3.162 0-12.148.083-20.885.083Z"/></svg>