<svg width="159.56" height="155.5" version="1.1" xmlns="http://www.w3.org/2000/svg"><defs><clipPath id="a"><path d="M0 0h155.196v128.818H0z" fill="none"/></clipPath></defs><g transform="matrix(.87482 0 0 .87482 12 13.464)" clip-path="url(#a)"><g clip-path="url(#a)"><path d="m142.01 64.409a64.409 64.409 0 1 1-64.409-64.409 64.409 64.409 0 0 1 64.409 64.409" fill="#ffb6b6"/><path d="m53.594 70.559a6.154 6.154 0 1 1-6.154-6.15 6.155 6.155 0 0 1 6.154 6.15m60.315 0a6.154 6.154 0 1 1-6.154-6.154 6.155 6.155 0 0 1 6.154 6.154"/><path d="m97.014 91.869c0 12.917-8.693 23.388-19.416 23.388s-19.416-10.471-19.416-23.388 8.693-16.187 19.416-16.187 19.416 3.27 19.416 16.187" fill="#f99"/><path d="m97.014 96.282a19.421 19.421 0 0 1-38.832 0c0-10.479 8.693-13.133 19.416-13.133s19.416 2.653 19.416 13.133" fill="#ffdcdc"/><path d="m74.011 99.202a4.143 4.143 0 1 1-4.142-4.048 4.1 4.1 0 0 1 4.142 4.048m15.455 0a4.143 4.143 0 1 1-4.142-4.048 4.1 4.1 0 0 1 4.142 4.048"/><path d="m34.353 16.681-28.668 17.775a12.019 12.019 0 0 0-0.312 20.229l15.89 10.544a8.114 8.114 0 0 0 12.6-6.666zm86.49 0 28.668 17.775a12.019 12.019 0 0 1 0.312 20.229l-15.89 10.544a8.114 8.114 0 0 1-12.6-6.666z" fill="#ffdcdc"/></g></g><g stroke-width=".87482"><path d="m121.35 96.023-1.2659-1.2606a9.0151 9.0151 0 0 0-11.985-0.84333 8.6923 8.6923 0 0 0-0.636 12.891l13.96 12.622c0-3.5308-0.0726-13.653-0.0726-23.409z" fill="#40ac93"/><path d="m121.36 96.023 1.2659-1.2606a9.0151 9.0151 0 0 1 11.985-0.84333 8.6923 8.6923 0 0 1 0.636 12.891l-13.826 12.576c0-3.5308-0.0612-13.607-0.0612-23.364z" fill="#4fd8b8"/><path d="m143.76 119.43 1.2055-1.2632a9.3143 9.3143 0 0 0 0.80746-11.985 8.0851 8.0851 0 0 0-12.335-0.63599l-12.083 13.96c3.3794 0 13.067-0.0752 22.405-0.0752z" fill="#40ac93"/><path d="m143.76 119.44 1.2046 1.2659a9.3151 9.3151 0 0 1 0.80659 11.985 8.0834 8.0834 0 0 1-12.335 0.636l-12.036-13.826c3.3794 0 13.023-0.0612 22.36-0.0612z" fill="#4fd8b8"/><path d="m121.34 139.99 1.265 1.1058a9.9363 9.9363 0 0 0 11.977 0.7401 7.0406 7.0406 0 0 0 0.63512-11.32l-13.95-11.082c0 3.1004 0.0726 11.989 0.0726 20.557z" fill="#40ac93"/><path d="m121.33 139.99-1.2641 1.1058a9.9363 9.9363 0 0 1-11.978 0.7401 7.0406 7.0406 0 0 1-0.63512-11.32l13.816-11.043c0 3.1012 0.0612 11.949 0.0612 20.517z" fill="#4fd8b8"/><path d="m99.305 119.44-1.1854 1.2632a9.4306 9.4306 0 0 0-0.79435 11.985 7.8734 7.8734 0 0 0 12.137 0.63599l11.882-13.96c-3.3243 0-12.853 0.0752-22.039 0.0752z" fill="#40ac93"/><path d="m99.305 119.43-1.1854-1.2659a9.4315 9.4315 0 0 1-0.79347-11.985 7.8734 7.8734 0 0 1 12.136-0.636l11.838 13.826c-3.3243 0-12.81 0.0612-21.995 0.0612z" fill="#4fd8b8"/></g></svg>
