<svg width="512" height="512" xmlns="http://www.w3.org/2000/svg"><path fill="#b67f5f" d="m418.6 361.2-87-25.6c-10.5-3.1-17.8-12.8-17.8-23.8v-47.5H198.2v47.5c0 11-7.2 20.7-17.8 23.8l-87 25.6c-21.1 6.2-35.6 25.6-35.6 47.5v78.5c0 13.7 11.1 24.8 24.8 24.8h346.8c13.7 0 24.8-11.1 24.8-24.8v-78.5c0-22-14.5-41.3-35.6-47.5Z"/><path fill="#020101" d="m418.6 361.2-73.5-21.6C337 381.4 300.2 413 256 413c-44.2 0-81-31.6-89.1-73.4l-73.5 21.6c-21.1 6.2-35.6 25.6-35.6 47.5v78.5c0 13.7 11.1 24.8 24.8 24.8h346.8c13.7 0 24.8-11.1 24.8-24.8v-78.5c0-22-14.5-41.3-35.6-47.5Z"/><path fill="#a06e50" d="M198.2 290.9c17.4 9.3 37 14.6 57.8 14.6 20.8 0 40.5-5.3 57.8-14.6v-26.7H198.2v26.7Z"/><path fill="#cd916e" d="M367.5 148.6h-4.1V99.1H148.6v49.5h-4.1c-11.4 0-20.6 9.2-20.6 20.6 0 11.4 9.2 20.6 20.6 20.6h4.5c4.2 55.4 50.4 99.1 106.9 99.1 56.5 0 102.7-43.7 106.9-99.1h4.5c11.4 0 20.6-9.2 20.6-20.6.2-11.3-9-20.6-20.4-20.6Z"/><path fill="#b67f5f" d="M346.8 132.1v-16.5H148.6v33h-3c-10.8 0-20.6 7.8-21.7 18.5-1.2 12.4 8.4 22.8 20.5 22.8h4.5c4.2 55.4 50.4 99.1 106.9 99.1 5.6 0 11.2-.5 16.6-1.4-51.5-7.9-90.9-52.3-90.9-106 0-18.2 14.8-33 33-33h115.6c9.3 0 16.7-7.3 16.7-16.5Z"/><path fill="#53687a" d="M206.5 173.4c-4.6 0-8.3-3.7-8.3-8.3v-8.3c0-4.6 3.7-8.3 8.3-8.3 4.6 0 8.3 3.7 8.3 8.3v8.3c-.1 4.6-3.8 8.3-8.3 8.3ZM305.5 173.4c-4.6 0-8.3-3.7-8.3-8.3v-8.3c0-4.6 3.7-8.3 8.3-8.3 4.6 0 8.3 3.7 8.3 8.3v8.3c0 4.6-3.7 8.3-8.3 8.3Z"/><path fill="#ffe17d" d="M267.1 461.9c-4.2 0-7.8-3.2-8.2-7.5-.4-4.5 3-8.6 7.5-9 5.1-.5 10.3-1.2 15.3-2.3 4.5-.9 8.9 1.9 9.8 6.3.9 4.4-1.9 8.9-6.3 9.8-5.7 1.2-11.5 2.1-17.3 2.6-.3.1-.6.1-.8.1Zm-32.9-1.1c-.4 0-.9 0-1.3-.1-5.8-.9-11.5-2.2-17.1-3.9-4.4-1.3-6.9-5.9-5.6-10.2 1.3-4.4 5.9-6.9 10.2-5.6 4.9 1.4 10 2.6 15.1 3.4 4.5.7 7.6 5 6.8 9.5-.6 4-4.1 6.9-8.1 6.9Zm80.3-12.3c-3 0-5.9-1.7-7.4-4.6-2-4.1-.4-9 3.7-11.1 4.6-2.3 9.1-4.9 13.4-7.8 3.8-2.6 8.9-1.5 11.5 2.3 2.5 3.8 1.5 8.9-2.3 11.5-4.9 3.3-10 6.2-15.2 8.8-1.2.6-2.5.9-3.7.9ZM187.9 444c-1.4 0-2.9-.4-4.2-1.2-5-3-9.9-6.3-14.5-9.9-3.6-2.8-4.2-8-1.4-11.6 2.8-3.6 8-4.2 11.6-1.5 4.1 3.2 8.4 6.1 12.8 8.7 3.9 2.3 5.2 7.4 2.9 11.3-1.6 2.7-4.4 4.2-7.2 4.2Zm165.7-25.4c-2 0-3.9-.7-5.5-2.1-3.4-3.1-3.7-8.3-.6-11.7 3.4-3.8 6.7-7.9 9.6-12.1 2.6-3.7 7.7-4.7 11.5-2.1s4.7 7.7 2.1 11.5c-3.3 4.8-7 9.4-10.9 13.8-1.7 1.8-3.9 2.7-6.2 2.7ZM151 411.4c-2.5 0-4.9-1.1-6.5-3.2-3.6-4.6-6.9-9.4-9.9-14.5-2.3-3.9-1.1-9 2.9-11.3 3.9-2.3 9-1.1 11.3 2.9 2.7 4.4 5.6 8.8 8.7 12.8 2.8 3.6 2.2 8.8-1.4 11.6-1.6 1.1-3.4 1.7-5.1 1.7Zm228.2-34.9c-1 0-1.9-.2-2.9-.5-4.3-1.6-6.5-6.3-4.9-10.6 1.8-4.9 3.3-9.8 4.5-14.8 1-4.4 5.5-7.2 9.9-6.1 4.4 1 7.2 5.5 6.1 9.9-1.3 5.6-3 11.3-5.1 16.8-1.1 3.2-4.3 5.3-7.6 5.3Zm-250.7-8.9c-3.6 0-6.9-2.3-7.9-5.9-.7-2.4-1.4-4.9-1.9-7.4-1-4.4 1.7-8.9 6.2-9.9 4.4-1 8.9 1.7 9.9 6.2.5 2.2 1.1 4.3 1.7 6.5 1.3 4.4-1.2 9-5.6 10.2-.9.2-1.6.3-2.4.3Zm135.3 126.6c-.9 0-1.8 0-2.6-.1-11.5-.9-23-2.2-34.2-3.9-8.8-1.3-13.8-5.9-11.2-10.2 2.6-4.4 11.7-6.9 20.5-5.6 9.8 1.4 20 2.6 30.2 3.4 9 .7 15.1 5 13.7 9.5-1.4 4-8.4 6.9-16.4 6.9Zm-6-27c0 .9 0 1.8-.1 2.6-.9 11.5-2.2 23-3.9 34.2-1.3 8.8-5.9 13.8-10.2 11.2-4.4-2.6-6.9-11.7-5.6-20.5 1.4-9.8 2.6-20 3.4-30.2.7-9 5-15.1 9.5-13.7 4 1.4 6.9 8.4 6.9 16.4Z"/><path fill="#a06e50" d="M272.5 223H256c-4.6 0-8.3-3.7-8.3-8.3 0-4.6 3.7-8.3 8.3-8.3h16.5c4.6 0 8.3 3.7 8.3 8.3 0 4.6-3.7 8.3-8.3 8.3Z"/><path fill="#3f3d3e" d="M151 344.2c10.2 48.7 53.3 85.2 105 85.2s94.8-36.5 105-85.2l-15.9-4.7c-8.1 41.8-44.9 73.4-89.1 73.4-44.2 0-81-31.6-89.1-73.4l-15.9 4.7Z"/><path fill="#5a4650" d="m163 194.1-.7-20.6c8.2-1 3.6-23.6 3.6-31.8l-6.8-32.5-32.9-4.2 22.8 85 14 4.1Z"/><path fill="#cd916e" d="M342.7 49.5c-6.8 0-12.4 5.5-12.4 12.4s5.5 12.4 12.4 12.4h17.4c-2.3-8.8-5.7-17.1-10.1-24.8h-7.3Z"/><path fill="#6e5a64" d="M372.1 99.1C337.4-3 308 31 253 31c-53.6 0-100.5 29.6-126.7 73.9v2.4c25.2 11.9 69.3 29.8 117.4 36.4 4.1.6 7.4-3.8 5.8-7.9l-5-12.9c-1.6-4.2 1.8-8.6 6.1-7.8 22 3.9 76.9 17.8 119.8 62.2l1.7-78.2Z"/><path fill="#aa0e2c" d="M74 82.6c-4.6 0-8.3 3.7-8.3 8.3 0 4.6 3.7 8.3 8.3 8.3h82.6V82.6H74Z"/><path fill="#ce243d" d="M330 61.9c0-6.8 5.5-12.4 12.4-12.4h7.7c3.5 0 5.5-4 3.5-6.9C335.7 16.9 305.9 0 272.2 0h-33c-51.7 0-94.1 39.5-98.7 90-.4 4.9 3.4 9.1 8.3 9.1h213.9c4.9 0 8.7-4.2 8.3-9.1-.2-2.6-.6-5.2-1-7.7-.8-4.6-4.8-8-9.6-8h-17.9c-7 0-12.5-5.5-12.5-12.4Z"/><path fill="#aa0e2c" d="M198.6 90c4.2-46.3 40.3-83.3 86.1-89.1-4.1-.5-8.3-.9-12.6-.9h-33c-51.7 0-94.1 39.5-98.7 90-.4 4.9 3.4 9.1 8.3 9.1h58.2c-4.9 0-8.7-4.2-8.3-9.1Z"/></svg>