<svg xmlns="http://www.w3.org/2000/svg" width="122.649" height="178.422"><defs><clipPath id="a"><path fill="none" d="M0 0h122.649v178.422H0z"/></clipPath></defs><g clip-path="url(#a)"><path d="m111.644 110.992-19.594-5.763a17.887 17.887 0 0 1-12.839-17.16H43.439a17.887 17.887 0 0 1-12.839 17.16l-19.595 5.763A15.331 15.331 0 0 0 0 125.699v45.057a7.666 7.666 0 0 0 7.666 7.666h107.318a7.666 7.666 0 0 0 7.666-7.666v-45.057a15.33 15.33 0 0 0-11-14.708" fill="#112921"/><path d="M97.097 58.769c0 20.582-13.048 33.017-24.561 43.987a104.822 104.822 0 0 0-11.212 11.776 104.822 104.822 0 0 0-11.212-11.776C38.6 91.785 25.551 79.356 25.551 58.769V40.883a35.773 35.773 0 0 1 71.545 0Z" fill="#112921"/><path d="m68.99 109.873-7.666 7.666-7.666-7.666v-23h15.331Z" fill="#c9c6ca"/><path fill="#dbd9dc" d="M53.66 94.543h15.331v5.11H53.66zM53.66 104.763h15.331v5.11H53.66zM35.773 61.325v13.522a10.22 10.22 0 0 0 6.425 9.49l12.484 4.994a17.886 17.886 0 0 0 13.286 0l12.484-4.994a10.221 10.221 0 0 0 6.425-9.49V61.325Z"/><path d="m35.773 68.415 5.9 1.968a10.237 10.237 0 0 0 9.428 6.273h20.442a10.237 10.237 0 0 0 9.428-6.273l5.9-1.968v-7.09h-51.1Z" fill="#c9c6ca"/><path d="M60.75 10.226c-16.88.309-30.085 14.791-30.085 31.674v13.9a7.666 7.666 0 0 0 5.242 7.272l7.407 2.469a5.081 5.081 0 0 1 3.077 2.866 5.112 5.112 0 0 0 4.716 3.139 2.555 2.555 0 1 0 5.11 0h2.548a2.555 2.555 0 1 0 5.11 0h2.555a2.555 2.555 0 1 0 5.11 0 5.112 5.112 0 0 0 4.716-3.139 5.081 5.081 0 0 1 3.077-2.866l7.406-2.469a7.666 7.666 0 0 0 5.242-7.273V40.884a30.662 30.662 0 0 0-31.236-30.657" fill="#edebed"/><path d="M61.325 63.88a2.554 2.554 0 0 1-2.555-2.555V58.77a2.555 2.555 0 1 1 5.11 0v2.555a2.554 2.554 0 0 1-2.555 2.555" fill="#dc4655"/><path d="M45.994 40.888a30.646 30.646 0 0 1 23-29.659 30.67 30.67 0 0 0-8.245-1c-16.878.306-30.084 14.788-30.084 31.671v13.9a7.666 7.666 0 0 0 5.242 7.272l7.406 2.469a5.051 5.051 0 0 1 2.683 2.149Z" fill="#dbd9dc"/><path d="M48.553 40.882a7.666 7.666 0 1 1-7.666 7.666 7.666 7.666 0 0 1 7.666-7.666" fill="#e6646e"/><path d="M48.553 45.993a7.643 7.643 0 0 1 7.2 5.11 7.666 7.666 0 1 0-14.392 0 7.643 7.643 0 0 1 7.2-5.11" fill="#dc4655"/><path d="M74.101 40.882a7.666 7.666 0 1 1-7.666 7.666 7.666 7.666 0 0 1 7.666-7.666" fill="#e6646e"/><path d="M74.101 45.993a7.643 7.643 0 0 1 7.2 5.11 7.666 7.666 0 1 0-14.392 0 7.643 7.643 0 0 1 7.2-5.11" fill="#dc4655"/><path d="M59.349.047c-21.99 1.035-38.907 19.977-38.907 41.991V58.77c0 30.312 25.562 44.643 36.257 58.158a9.931 9.931 0 0 1 2.071 6.177v55.317h5.11v-55.317a9.93 9.93 0 0 1 2.071-6.177c10.694-13.516 36.257-27.846 36.257-58.158V40.884A40.885 40.885 0 0 0 59.349.047M97.098 58.77c0 20.582-13.048 33.017-24.561 43.987a104.822 104.822 0 0 0-11.212 11.776 104.821 104.821 0 0 0-11.212-11.776C38.601 91.786 25.552 79.352 25.552 58.77V40.883a35.773 35.773 0 0 1 71.545 0ZM21.263 137.12 4.157 115.262a24.469 24.469 0 0 0-2.831 6.207l16.543 21.143a13.538 13.538 0 0 1 2.573 8.232v26.462h5.11v-26.461a22.573 22.573 0 0 0-4.289-13.724M101.391 137.12l17.1-21.858a24.47 24.47 0 0 1 2.831 6.207l-16.541 21.143a13.538 13.538 0 0 0-2.573 8.232v26.462h-5.11v-26.461a22.573 22.573 0 0 1 4.293-13.725" fill="#011505"/></g></svg>