<svg width="512" height="512" xmlns="http://www.w3.org/2000/svg"><path fill="#e3aa75" d="m416 379.8-85.7-25.2c-10.4-3.1-17.5-12.6-17.5-23.4v-38.6H199.1v38.6c0 10.8-7.1 20.3-17.5 23.4L96 379.8c-20.8 6.1-35 25.1-35 46.8v61c0 13.5 10.9 24.4 24.4 24.4h341.3c13.5 0 24.4-10.9 24.4-24.4v-61c-.1-21.7-14.3-40.7-35.1-46.8Z"/><path fill="#6e5a64" d="m416 379.8-85.7-25.2c-1.4-.4-2.8-1-4.1-1.7 0 0-45.7 62.1-70.3 61.4-24.6-.7-70.3-61.4-70.3-61.4-1.3.7-2.7 1.2-4.1 1.7L96 379.8c-20.8 6.1-35 25.1-35 46.8v61c0 13.5 10.9 24.4 24.4 24.4h341.3c13.5 0 24.4-10.9 24.4-24.4v-61c-.1-21.7-14.3-40.7-35.1-46.8Z"/><path fill="#d29b6e" d="M199.1 310.7c17.1 9.1 36.4 14.4 56.9 14.4s39.8-5.3 56.9-14.4v-18.1H199.1v18.1Z"/><path fill="#f5b97d" d="M365.7 170.7h-4.1V81.3H150.3v89.4h-4.1c-11.2 0-20.3 9.1-20.3 20.3 0 11.2 9.1 20.3 20.3 20.3h4.5c4.2 54.5 49.6 97.5 105.2 97.5s101.1-43 105.2-97.5h4.5c11.2 0 20.3-9.1 20.3-20.3.1-11.2-9-20.3-20.2-20.3Z"/><path fill="#e3aa75" d="M361.7 81.3H150.3v89.4h-2.9c-10.6 0-20.3 7.6-21.4 18.2-1.2 12.2 8.3 22.4 20.2 22.4h4.5c4.2 54.5 49.6 97.5 105.2 97.5 5.6 0 11-.5 16.3-1.4-50.6-7.8-89.4-51.5-89.4-104.3v-58.4c0-10.6 9.9-18.3 20.2-15.7 13.2 3.2 27 6 41.1 7.8 1 .1 1.9.2 2.9.2 7.3 0 14.1-3.6 18.2-9.7 3.1-4.5 4.3-10 3.6-15.3 24.6 6.4 61.6 20.4 92.8 49.5l.1-80.2Z"/><path fill="#5a4650" d="M231.4 183.6c0 4.5-4.2 8.1-9.4 8.1h-9.4c-5.2 0-9.4-3.6-9.4-8.1s4.2-8.1 9.4-8.1h9.4c5.2-.1 9.4 3.6 9.4 8.1ZM308.9 183.6c0 4.5-4.2 8.1-9.4 8.1H290c-5.2 0-9.4-3.6-9.4-8.1s4.2-8.1 9.4-8.1h9.4c5.3-.1 9.5 3.6 9.5 8.1ZM134.1 174.5l18.2-2.1c8.2-1 14.4-7.9 14.4-16.1v-75h-32.5v93.2ZM377.9 174.5l-18.2-2.1c-8.2-1-14.4-7.9-14.4-16.1v-75h32.5v93.2Z"/><path fill="#6e5a64" d="M389.5 85.1c-26.7-46-76.4-77-133.5-77-55.7 0-104.4 29.6-131.6 73.9v2.4c26.2 11.9 72 29.8 121.9 36.4 4.3.6 7.7-3.8 6-7.9l-5.2-12.9c-1.7-4.2 1.9-8.6 6.3-7.8 22.8 3.9 79.9 17.8 124.4 62.2l11.7-69.3Z"/><path fill="#64505a" d="M256 8.1c-55.7 0-104.4 29.6-131.6 73.9v2.4c6.1 2.8 13.4 5.9 21.5 9.2 23-36.6 63.7-61 110-61 60.6 0 111.6 41.8 125.9 98l7.6-45.4C362.7 39.1 313 8.1 256 8.1Z"/><path fill="#5a4650" d="M256 426.3c-8.9 0-16.3 7.3-16.3 16.3v16.3c0 8.9 7.3 16.3 16.3 16.3 8.9 0 16.3-7.3 16.3-16.3v-16.3c0-8.9-7.4-16.3-16.3-16.3ZM128.6 439.3 75.4 392c-3.9 3.9-7.1 8.4-9.4 13.3l51.9 46.1c5.2 4.6 8.2 11.3 8.2 18.2V512h16.3v-42.3c-.2-11.6-5.1-22.7-13.8-30.4ZM383.4 439.3l53.2-47.3c3.9 3.9 7.1 8.4 9.4 13.3l-51.9 46.1c-5.2 4.6-8.2 11.3-8.2 18.2V512h-16.3v-42.3c.2-11.6 5.1-22.7 13.8-30.4Z"/><path fill="#f5b97d" d="M264.3 284.8h-16.5c-4.6 0-8.3-3.7-8.3-8.3 0-4.6 3.7-8.3 8.3-8.3h16.5c4.6 0 8.3 3.7 8.3 8.3-.1 4.6-3.8 8.3-8.3 8.3Z"/><path fill="#6e5a64" d="M305 241.1c-7.6-10.7-31.7-24.5-41.9-24.5h-9.5c-10.4 0-35.3 14.4-42.4 25.2-25.1-4-46.6-21.2-62.1-30.5 4.7 55 50.6 98.2 106.8 98.2 56.2 0 102.2-43.2 106.8-98.2-14.4 8.8-34.4 25.7-57.7 29.8Zm-71.7 13.1c2.4-1.3 13.8-6 21.9-6h3.4c2.7 0 23.3 6.7 25.7 7.9-20.6.7-27.7.2-28.2.2-2-.1-20.9-2.1-22.8-2.1Z" opacity=".5"/><path fill="#b67f5f" d="M256 272.9c-12.2 0-23.4-3.9-30.1-10.5a8.18 8.18 0 0 1-.1-11.5c3.1-3.2 8.3-3.2 11.5-.1 2.7 2.7 9.2 5.8 18.7 5.8s16-3.1 18.7-5.8c3.2-3.2 8.3-3.1 11.5.1 3.2 3.2 3.1 8.3-.1 11.5-6.7 6.6-17.9 10.5-30.1 10.5Z"/><path fill="#5a4650" d="M249.4 442.2c2.4.8 5 1.1 7.5 1.1 2.6 0 5.1-.4 7.6-1.2 48.5-15.3 80-59.6 92.3-79.9l-28.2-10c-1.3-.4-2.4-1-3.6-1.6-11.6 17.7-35.2 47.8-68.1 59.2-32.7-11.4-56.4-41.5-68.1-59.2-1.2.6-2.4 1.2-3.6 1.6l-28.2 10c12.4 20.4 43.9 64.7 92.4 80Z"/><path fill="#6e5a64" d="M198.3 168.6c-3 0-5.9-1.7-7.4-4.6-2-4.1-.4-9 3.7-11.1l16.5-8.2c4.1-2 9-.4 11.1 3.7 2 4.1.4 9-3.7 11.1l-16.5 8.2c-1.2.7-2.5.9-3.7.9ZM313.7 168.6c3 0 5.9-1.7 7.4-4.6 2-4.1.4-9-3.7-11.1l-16.5-8.2c-4.1-2-9-.4-11.1 3.7-2 4.1-.4 9 3.7 11.1l16.5 8.2c1.2.7 2.5.9 3.7.9Z"/></svg>