<svg xmlns="http://www.w3.org/2000/svg" width="163.676" height="168.404"><path d="M55.045 34.094a29.64 29.64 0 1 0 29.64 29.64 29.676 29.676 0 0 0-29.64-29.64Zm0-8.468a4.232 4.232 0 0 0 4.234-4.234v-8.469a4.234 4.234 0 1 0-8.468 0v8.466a4.228 4.228 0 0 0 4.234 4.237Zm0 76.216a4.232 4.232 0 0 0-4.234 4.234v8.468a4.234 4.234 0 1 0 8.468 0v-8.468a4.235 4.235 0 0 0-4.234-4.234Zm32.926-65.053 5.987-5.987a4.234 4.234 0 0 0-5.987-5.987l-5.987 5.987a4.234 4.234 0 1 0 5.987 5.987Zm-65.863 53.9-5.987 5.987a4.234 4.234 0 0 0 5.987 5.987l5.987-5.987a4.234 4.234 0 1 0-5.987-5.987Zm-5.171-26.955A4.235 4.235 0 0 0 12.7 59.5H4.234a4.234 4.234 0 1 0 0 8.468H12.7a4.232 4.232 0 0 0 4.237-4.234Zm88.919-4.234h-8.468a4.234 4.234 0 1 0 0 8.468h8.468a4.234 4.234 0 1 0 0-8.468ZM22.1 36.789a4.234 4.234 0 1 0 5.987-5.987L22.1 24.81a4.234 4.234 0 0 0-5.987 5.987Zm65.879 53.892a4.234 4.234 0 1 0-5.987 5.987l5.987 5.987a4.234 4.234 0 1 0 5.987-5.987Z" fill="#f3bb20" fill-rule="evenodd"/><path d="m151.977 124.221-28.627-8.42a8.149 8.149 0 0 1-5.849-7.818V95.067H79.474v12.916a8.149 8.149 0 0 1-5.849 7.818l-28.627 8.42a16.3 16.3 0 0 0-11.7 15.635v20.4a8.149 8.149 0 0 0 8.149 8.149h114.08a8.149 8.149 0 0 0 8.149-8.149v-20.4a16.3 16.3 0 0 0-11.699-15.635Z" fill="#f7d291"/><path d="M79.479 101.128a40.031 40.031 0 0 0 38.026 0v-6.061H79.479Z" fill="#f0c382"/><path d="M135.156 54.323h-1.358V24.446H63.176v29.877h-1.358a6.79 6.79 0 0 0 0 13.581h1.5a35.276 35.276 0 0 0 70.347 0h1.491a6.791 6.791 0 0 0 0-13.581Z" fill="#ffe1a0"/><path d="M122.933 35.311V24.446H63.177v29.877h-.971a7.057 7.057 0 0 0-7.143 6.09 6.792 6.792 0 0 0 6.755 7.491h1.5a35.059 35.059 0 0 0 40.623 32.137 35.287 35.287 0 0 1-29.9-34.853v-13.58a10.865 10.865 0 0 1 10.865-10.865H117.5a5.433 5.433 0 0 0 5.433-5.432Z" fill="#f7d291"/><path d="M144.634 12.7C144.176 5.453 137.765 0 130.505 0H79.038a21.729 21.729 0 0 0-21.622 23.892l3.043 30.432h2.716a5.432 5.432 0 0 0 5.432-5.432V35.31h59.758v13.581a5.432 5.432 0 0 0 5.432 5.432h2.717l2.26-29.383-.182-.054a13.56 13.56 0 0 0 6.042-12.186Z" fill="#b67f5f"/><path d="M90.338 0h-11.3a21.729 21.729 0 0 0-21.622 23.892l3.043 30.432h2.716a5.432 5.432 0 0 0 5.432-5.432V21.729A21.729 21.729 0 0 1 90.338 0Z" fill="#a06e50"/><g fill="#6e5a64"><path d="M82.189 62.473a2.715 2.715 0 0 1-2.716-2.716v-2.716a2.716 2.716 0 1 1 5.432 0v2.716a2.715 2.715 0 0 1-2.716 2.716ZM114.783 62.473a2.715 2.715 0 0 1-2.716-2.716v-2.716a2.716 2.716 0 1 1 5.432 0v2.716a2.715 2.715 0 0 1-2.716 2.716Z"/></g><path d="M98.486 81.486c-4.074 0-7.836-1.308-10.056-3.5a2.716 2.716 0 1 1 3.814-3.867c.9.893 3.082 1.934 6.241 1.934s5.337-1.041 6.241-1.934a2.716 2.716 0 1 1 3.814 3.867c-2.218 2.193-5.98 3.5-10.054 3.5Z" fill="#e3aa75"/><g fill="#a06e50"><path d="M84.906 51.607h-5.432a2.716 2.716 0 1 1 0-5.432h5.432a2.716 2.716 0 1 1 0 5.432ZM117.5 51.607h-5.432a2.716 2.716 0 1 1 0-5.432h5.432a2.716 2.716 0 1 1 0 5.432Z"/></g><path d="M71.325 122.229v-5.752l-13.581 3.994v47.933h81.486v-47.933l-13.581-3.994v5.752a27.162 27.162 0 1 1-54.324 0Z" fill="#f7f7f7"/><path d="m137.975 35.311.8-10.37-.182-.054a13.674 13.674 0 0 0 3.315-3.158h-84.59c0 .715.027 1.435.1 2.162L58.56 35.31h79.417Z" fill="#fe8250"/><path d="M112.067 32.594a13.455 13.455 0 0 0 8.576-3.13 18.967 18.967 0 0 0 17.651 1.7l.479-6.228-.182-.054a13.675 13.675 0 0 0 3.315-3.158H98.76a13.584 13.584 0 0 0 13.307 10.87Z" fill="#fa723b"/><path d="M98.752 21.729h8.149v-5.432h-2.716a5.433 5.433 0 0 0-5.433 5.432Z" fill="#a06e50"/><g transform="translate(103.919)" fill="#b67f5f"><circle cx="13.581" cy="13.581" r="13.581" transform="translate(13.582)"/><circle cx="8.149" cy="8.149" r="8.149" transform="translate(0 10.865)"/></g><path d="M57.317 21.73c0 .715.027 1.435.1 2.162l1.142 11.419h10.05V21.73Z" fill="#fa723b"/><path d="M125.649 116.477v5.752a27.162 27.162 0 1 1-54.324 0v-5.752l-5.432 1.6v4.154a32.594 32.594 0 1 0 65.189 0v-4.154Z" fill="#e4e4e4"/><path d="M57.739 149.391v19.013H49.59V157.54a8.148 8.148 0 0 1 8.149-8.149Z" fill="#f0c382"/><path d="M57.744 168.404h5.432v-13.581a5.432 5.432 0 0 0-5.432-5.432Z" fill="#e4e4e4"/><path d="M139.23 149.391v19.013h8.149V157.54a8.148 8.148 0 0 0-8.149-8.149Z" fill="#f0c382"/><path d="M139.229 168.404h-5.432v-13.581a5.432 5.432 0 0 1 5.432-5.432Z" fill="#e4e4e4"/><path d="M106.35 71.347H93.785a8.15 8.15 0 0 0-8.091 7.236l-1.283 11.545a8.2 8.2 0 0 0 4.44 8.19l7.565 3.783a8.151 8.151 0 0 0 7.3 0l7.565-3.783a8.1 8.1 0 0 0 4.44-8.19l-1.283-11.545a8.15 8.15 0 0 0-8.088-7.236Z" fill="#b67f5f"/><path d="M99.147 99.173c-3.059-1.875-4.835-5.92-4.44-10.1l1.283-14.242a11.785 11.785 0 0 1 .855-3.486h-3.059a8.15 8.15 0 0 0-8.091 7.236l-1.283 11.545a8.2 8.2 0 0 0 4.44 8.19l7.565 3.783a8.151 8.151 0 0 0 7.3 0l.1-.066Z" fill="#a06e50"/><path d="M100.396 87.662c-4.013 0-7.7-1.283-9.9-3.454a2.675 2.675 0 1 1 3.75-3.815c.888.888 3.026 1.908 6.151 1.908s5.263-1.02 6.151-1.908a2.675 2.675 0 1 1 3.75 3.815c-2.205 2.171-5.889 3.454-9.902 3.454Z" fill="#f9b7bd"/><path d="M121.55 47.012a4.47 4.47 0 0 1-.116-1.259c.082-2.273 1.495-5.112 2.34-7.37 1.705 1.337 4.282 3.23 5.47 5.13a4.542 4.542 0 0 1 .529 1.141 4.267 4.267 0 0 1-2.937 5.272 4.143 4.143 0 0 1-5.287-2.914ZM64.01 61.118a4.472 4.472 0 0 1 .72-1.039c1.526-1.69 4.434-2.956 6.535-4.144.446 2.121 1.204 5.23.892 7.451a4.544 4.544 0 0 1-.328 1.214 4.27 4.27 0 0 1-5.642 2.152 4.145 4.145 0 0 1-2.178-5.634Z" fill="#6ec6ed"/></svg>