<svg xmlns="http://www.w3.org/2000/svg" width="173.004" height="169.465"><path d="M55.045 38.316a29.64 29.64 0 1 0 29.64 29.64 29.676 29.676 0 0 0-29.64-29.64Zm0-8.468a4.232 4.232 0 0 0 4.234-4.234v-8.469a4.234 4.234 0 1 0-8.468 0v8.466a4.228 4.228 0 0 0 4.234 4.237Zm0 76.216a4.232 4.232 0 0 0-4.234 4.234v8.468a4.234 4.234 0 1 0 8.468 0v-8.468a4.235 4.235 0 0 0-4.234-4.234Zm32.926-65.053 5.987-5.987a4.234 4.234 0 0 0-5.987-5.987l-5.987 5.987a4.234 4.234 0 1 0 5.987 5.987Zm-65.863 53.9-5.987 5.987a4.234 4.234 0 0 0 5.987 5.987l5.987-5.987a4.234 4.234 0 1 0-5.987-5.987Zm-5.171-26.955a4.235 4.235 0 0 0-4.237-4.234H4.234a4.234 4.234 0 1 0 0 8.468H12.7a4.232 4.232 0 0 0 4.237-4.234Zm88.919-4.234h-8.468a4.234 4.234 0 1 0 0 8.468h8.468a4.234 4.234 0 1 0 0-8.468ZM22.1 41.011a4.234 4.234 0 1 0 5.987-5.987L22.1 29.032a4.234 4.234 0 0 0-5.987 5.987Zm65.879 53.892a4.234 4.234 0 1 0-5.987 5.987l5.987 5.987a4.234 4.234 0 1 0 5.987-5.987Z" fill="#f3bb20" fill-rule="evenodd"/><g transform="translate(-4006.084 -9475)"><path d="M4115.228 9475c-19.624 0-35.533 6.119-35.533 13.667v13.666h71.067v-13.666c0-7.548-15.911-13.667-35.534-13.667Z" fill="#ffe17d"/><ellipse cx="57.4" cy="35.535" rx="57.4" ry="35.535" transform="translate(4057.828 9491.397)" fill="#ffd164"/><path d="M4163.028 9580.06a2.748 2.748 0 0 0 1.241-3.614 81.947 81.947 0 0 1-7.048-30.382v-27.333l-41-5.465-39.814 16.027-1.186 16.771a81.948 81.948 0 0 1-7.048 30.382 2.748 2.748 0 0 0 1.241 3.614l8.541 4.27-9.03 11.288a2.736 2.736 0 0 0 .662 4.026 88.7 88.7 0 0 0 93.267.005 2.736 2.736 0 0 0 .662-4.026l-9.03-11.288Z" fill="#ff8250"/><path d="m4168.145 9607.803-28.23-9.964a10.933 10.933 0 0 1-7.295-10.31v-14.131h-32.8v14.131a10.933 10.933 0 0 1-7.294 10.31l-28.23 9.964a16.4 16.4 0 0 0-10.942 15.465v13a8.2 8.2 0 0 0 8.2 8.2h109.336a8.2 8.2 0 0 0 8.2-8.2v-13a16.4 16.4 0 0 0-10.945-15.465Z" fill="#f7d291"/><path d="m4168.145 9607.8-27.941-9.861a24.582 24.582 0 0 1-47.967 0l-27.941 9.861a16.4 16.4 0 0 0-10.941 15.465v13a8.2 8.2 0 0 0 8.2 8.2h109.334a8.2 8.2 0 0 0 8.2-8.2v-13a16.4 16.4 0 0 0-10.944-15.465Z" fill="#edebed"/><path d="M4116.22 9628.065a35.515 35.515 0 0 0 34.323-26.474l-10.339-3.649a24.583 24.583 0 0 1-47.968 0l-10.34 3.649a35.515 35.515 0 0 0 34.324 26.474Z" fill="#a5cdff"/><path d="M4099.82 9580.834a40.464 40.464 0 0 0 32.8.05v-7.486h-32.8v7.436Z" fill="#f0c382"/><path d="M4080.687 9516.906v15.492h-1.371a6.834 6.834 0 0 0 0 13.667h1.5a35.516 35.516 0 0 0 70.929-2.733v-30.067h-71.058Z" fill="#ffe1a0"/><path d="M4080.687 9511.243v19.819h-.977a7.184 7.184 0 0 0-7.188 6.348c-.41 4.237 1.609 8.66 5.615 8.66h2.688c.011.152-.019.44 0 .666a35.186 35.186 0 0 0 35.4 32.459 34.394 34.394 0 0 0 5.467-.48c-17.022-2.73-30.067-17.93-30.067-36.328v-8.014a14 14 0 0 1 12.687-14.132q3.593-.292 7.337-.406c17.427 8.306 32.391 20.941 39.723 27.689a38.226 38.226 0 0 0 .386-5.136v-31.145Z" fill="#f7d291"/><g fill="#6e5a64"><path d="M4099.821 9540.836a2.733 2.733 0 0 1-2.733-2.733v-2.734a2.733 2.733 0 0 1 5.467 0v2.73a2.733 2.733 0 0 1-2.734 2.737ZM4132.621 9540.836a2.733 2.733 0 0 1-2.733-2.733v-2.734a2.733 2.733 0 1 1 5.467 0v2.73a2.732 2.732 0 0 1-2.734 2.737Z"/></g><g fill="#ff8250"><path d="M4102.554 9529.665h-5.467a2.733 2.733 0 1 1 0-5.467h5.467a2.733 2.733 0 1 1 0 5.467ZM4135.354 9529.665h-5.467a2.733 2.733 0 0 1 0-5.467h5.467a2.733 2.733 0 0 1 0 5.467Z"/></g><path d="M4105.415 9554.789a1.392 1.392 0 0 0-1.357 1.635c.888 5.263 6 9.3 12.163 9.3s11.275-4.035 12.164-9.3a1.392 1.392 0 0 0-1.357-1.635Z" fill="#fff"/><path d="m4078.967 9533.293-3.746.466 5.36-14.442 5.573-3.32v9.158a8.2 8.2 0 0 1-7.187 8.138Z" fill="#ff8250"/><path d="M4098.398 9507.5c25.593 1.233 50.723 31.252 58.824 38.709v-.144a25.557 25.557 0 0 0-2.664-26.933c-10.131-13.844-56.16-11.632-56.16-11.632Z" fill="#fe8250"/><path d="M4115.902 9502.919c-17.225 0-33.428 9.611-45.04 14.3a2.707 2.707 0 0 0-1.4 3.641v.01a2.751 2.751 0 0 0 3.555 1.372c10.954-4.4 26.377-13.853 42.883-13.853s31.928 9.45 42.883 13.853a2.751 2.751 0 0 0 3.555-1.372v-.01a2.707 2.707 0 0 0-1.4-3.641c-11.608-4.689-27.811-14.3-45.036-14.3Z" fill="#ffd164"/><path d="M4116.221 9511.465c25.663 0 43.749 11.121 43.749 24.707v-6.485c0-13.586-18.086-24.707-43.749-24.707s-39.844 11.541-39.844 25.127a29.741 29.741 0 0 0 2.585-3.589c5.718-8.541 18.346-15.053 37.259-15.053Z" fill="#fe8250"/><g fill="#a5cdff"><path d="M4179.088 9636.074h-126.053a8.21 8.21 0 0 0 8.221 8.2h109.614a8.21 8.21 0 0 0 8.218-8.2ZM4053.078 9622.407h50.973a27.358 27.358 0 0 1-9.96-8.2h-38.48a16.318 16.318 0 0 0-2.533 8.2ZM4176.511 9614.207h-38.479a27.361 27.361 0 0 1-9.96 8.2h50.973a16.322 16.322 0 0 0-2.534-8.2Z"/></g><path d="M4113.79 9529.311h9.322v6.229h-9.322Zm6.674 2.648h-4.026v.933h4.026Z" fill="#707070"/><path d="M4101.323 9551.529a14.578 14.578 0 0 1-1.885-.128 15.21 15.21 0 0 1-11-6.951c-3.1-4.732-3.56-10.344-2.9-12.647l.1-.352.267-.25a23.763 23.763 0 0 1 15.372-5.567 28.323 28.323 0 0 1 14.622 4.374l.706.424-.068.821c-.063.827-1.829 20.276-15.214 20.276Zm-13.314-18.643a16.216 16.216 0 0 0 2.648 10.114 12.471 12.471 0 0 0 9.131 5.776 11.617 11.617 0 0 0 1.534.1c9.6 0 12.022-13.53 12.487-17.03a25.338 25.338 0 0 0-12.527-3.569 21.539 21.539 0 0 0-13.273 4.609Z" fill="#707070"/><g fill="#8cb4eb"><path d="M4086.682 9533.041c-1.013 3.533 1.26 16.141 12.61 17.658 13.69 1.824 15.39-18.667 15.39-18.667-16.4-9.836-28 1.009-28 1.009M4121.146 9531.783s1.7 20.484 15.385 18.66c11.35-1.509 13.617-14.122 12.607-17.653 0 0-11.6-10.843-27.992-1.007" opacity=".581"/></g><path d="M4135.693 9551.269c-13.384 0-15.154-19.441-15.223-20.268l-.068-.821.706-.424a28.327 28.327 0 0 1 14.624-4.375 23.768 23.768 0 0 1 15.37 5.565l.268.25.1.353c.66 2.307.194 7.926-2.906 12.658a15.189 15.189 0 0 1-10.987 6.934 14.237 14.237 0 0 1-1.884.128Zm-12.49-19.671c.469 3.5 2.9 17.022 12.488 17.023a11.048 11.048 0 0 0 1.536-.105 12.451 12.451 0 0 0 9.121-5.76 16.23 16.23 0 0 0 2.654-10.122 21.689 21.689 0 0 0-13.272-4.6 25.341 25.341 0 0 0-12.527 3.564ZM4101.323 9551.529a14.578 14.578 0 0 1-1.885-.128 15.21 15.21 0 0 1-11-6.951c-3.1-4.732-3.56-10.344-2.9-12.647l.1-.352.267-.25a23.763 23.763 0 0 1 15.372-5.567 28.323 28.323 0 0 1 14.622 4.374l.706.424-.068.821c-.063.827-1.829 20.276-15.214 20.276Zm-13.314-18.643a16.216 16.216 0 0 0 2.648 10.114 12.471 12.471 0 0 0 9.131 5.776 11.617 11.617 0 0 0 1.534.1c9.6 0 12.022-13.53 12.487-17.03a25.338 25.338 0 0 0-12.527-3.569 21.539 21.539 0 0 0-13.273 4.609Z" fill="#707070"/></g></svg>