<svg width="512" height="512" xmlns="http://www.w3.org/2000/svg"><path fill="#f7d291" d="m418.6 377.7-87-25.6c-10.5-3.1-17.8-12.8-17.8-23.8V289H198.2v39.3c0 11-7.2 20.7-17.8 23.8l-87 25.6c-21.1 6.2-35.6 25.6-35.6 47.5v62c0 13.7 11.1 24.8 24.8 24.8h346.8c13.7 0 24.8-11.1 24.8-24.8v-62c0-22-14.5-41.3-35.6-47.5Z"/><path fill="#f0c382" d="M198.2 317.5c17.3 9.3 37 14.6 57.8 14.6 15.8 0 45.4-8 57.8-14.6V299H198.2v18.5Z"/><path fill="#ffe1a0" d="M367.5 165.2h-4.1V74.3H148.6v90.8h-4.1c-11.4 0-20.6 9.2-20.6 20.6 0 11.4 9.2 20.6 20.6 20.6l4.5 10c4.2 55.4 50.4 99.1 106.9 99.1 56.5 0 102.7-43.7 106.9-99.1l4.5-10c11.4 0 20.6-9.2 20.6-20.6.2-11.3-9-20.5-20.4-20.5Z"/><path fill="#f7d291" d="M310.4 126.8c-10.4-20.9 60-52.5 60-52.5H148.6v90.8h-3c-10.8 0-20.6 7.8-21.7 18.5-1.2 12.4 8.4 22.8 20.5 22.8h4.5c4.2 55.4 39 108 95.5 108 5.6 0 11.2-.5 16.6-1.4-51.5-7.9-79.5-61.1-79.5-114.8v-31.3c0-18.2 14.8-13 33-13l70.4-9.1c9.3-.1 28.1-12.7 25.5-18Z"/><path fill="#6e5a64" d="M237 206.6c0 4.6-4.8 8.3-10.8 8.3h-10.8c-6 0-10.8-3.7-10.8-8.3 0-4.6 4.8-8.3 10.8-8.3h10.8c5.9 0 10.8 3.7 10.8 8.3ZM313 206.6c0 4.6-4.8 8.3-10.8 8.3h-10.8c-6 0-10.8-3.7-10.8-8.3 0-4.6 4.8-8.3 10.8-8.3h10.8c6 0 10.8 3.7 10.8 8.3Z"/><path fill="#dba265" d="M232.8 186.6h-21.6c-6 0-10.8-3.7-10.8-8.3 0-4.6 4.8-8.3 10.8-8.3h21.6c6 0 10.8 3.7 10.8 8.3 0 4.6-4.8 8.3-10.8 8.3ZM310.2 186.6h-21.6c-6 0-10.8-3.7-10.8-8.3 0-4.6 4.8-8.3 10.8-8.3h21.6c6 0 10.8 3.7 10.8 8.3 0 4.6-4.8 8.3-10.8 8.3Z"/><path fill="#a5cdff" d="M173.4 371.6v-17.5l-41.3 12.1V512h247.7V366.3l-41.3-12.1v17.5c0 45.6-37 82.6-82.6 82.6-45.6 0-82.5-37.1-82.5-82.7Z"/><path fill="#8cb4eb" d="M338.6 354.1v17.5c0 45.6-37 82.6-82.6 82.6-45.6 0-82.6-37-82.6-82.6v-17.5l-16.5 4.9v12.6c0 54.7 44.4 99.1 99.1 99.1 54.7 0 99.1-44.4 99.1-99.1V359l-16.5-4.9Z"/><path fill="#212338" d="m418.6 369.4-87-25.6c-1.5-.4 8.3 3.7 7 3L256 371.6l-82.6-24.8c-1.3.7 8.5-3.5 7-3l-87 25.6c-21.1 6.2-35.6 25.6-35.6 47.5v70.3c0 13.7 11.1 24.8 24.8 24.8h346.8c13.7 0 24.8-11.1 24.8-24.8v-70.3c0-21.9-14.5-41.3-35.6-47.5Z"/><path fill="#a5cdff" d="m335.7 360.5-9.8-9.8-69.9 12.7-69.9-12.7-9.8 9.8c-12.4 12.4-19.4 29.2-19.4 46.7V512h198.2V407.2c0-17.5-7-34.3-19.4-46.7Z"/><path fill="#8cb4eb" d="m335.7 360.5-9.8-9.8-69.9 12.7-69.9-12.7-9.8 9.8c-4.1 4.1-7.5 8.6-10.3 13.5l30.5 34.9c4.7 5.4 11.5 8.5 18.6 8.5 6.6 0 12.8-2.6 17.5-7.3l23.4-23.4 23.4 23.4c4.7 4.7 10.9 7.3 17.5 7.3 7.1 0 13.9-3.1 18.6-8.5L346 374c-2.8-4.9-6.2-9.4-10.3-13.5Z"/><path fill="#a50f36" d="M244.1 404.6 231.2 512h49.6l-12.9-107.4Z"/><path fill="#c90d36" d="M266.6 412.9h-21.1c-3.6 0-6.7-2.3-7.8-5.6L223 363.4h66l-14.6 43.9c-1.1 3.3-4.3 5.6-7.8 5.6Z"/><path fill="#a5cdff" d="m192.7 328.2-21.8 26.4 38 43.4c3.1 3.6 8.7 3.8 12.1.4l35-35-63.3-35.2ZM319.3 328.2l21.8 26.4-38 43.4c-3.1 3.6-8.7 3.8-12.1.4l-35-35 63.3-35.2Z"/><path fill="#353a59" d="m115.6 512-14.5-57.2c-1.2-5.5.5-11.3 4.4-15.3l26.6-26.6-12.2-18.4c-2.9-4.3-3.5-9.8-1.9-14.7 19.7-59.2 80.2-74.3 80.2-74.3v15.9c0 11-4.4 21.5-12.1 29.2l-9.8 9.8c-12.4 12.4-19.4 29.2-19.4 46.7V512M396.4 512l14.5-57.2c1.2-5.5-.5-11.3-4.4-15.3l-26.6-26.6 12.2-18.4c2.9-4.3 3.5-9.8 1.9-14.7-19.7-59.2-80.2-74.3-80.2-74.3v15.9c0 11 4.4 21.5 12.1 29.2l9.8 9.8c12.4 12.4 19.4 29.2 19.4 46.7V512"/><path fill="#cad0d8" d="M386.4 458.3h-10.6c-2.9 0-5.3-3.7-5.3-8.3 0-4.6 2.4-8.3 5.3-8.3h10.6c2.9 0 5.3 3.7 5.3 8.3 0 4.6-2.4 8.3-5.3 8.3Z"/><path fill="#a06e50" d="M278.9 275.2h-36.1c-10 0-18.1-5.3-18.1-11.9 0-6.6 8.1-11.9 18.1-11.9h36.1c10 0 18.1 5.3 18.1 11.9 0 6.5-8.1 11.9-18.1 11.9Z"/><path fill="#e2af93" d="M279.2 259.4h-37c-10.2 0-18.5-3.6-18.5-7.9 0-4.4 8.3-7.9 18.5-7.9h37c10.2 0 18.5 3.6 18.5 7.9 0 4.3-8.3 7.9-18.5 7.9ZM276.4 283.7h-29.9c-8.3 0-15-3.6-15-7.9 0-4.3 6.7-7.9 15-7.9h29.9c8.3 0 15 3.6 15 7.9 0 4.3-6.8 7.9-15 7.9Z"/><path fill="#cc8a1f" d="M184.8 54.9c16.7 11.1 14.2 44-5.5 73.5s-28.3 20.7-45 9.6-14.2-44 5.5-73.5 28.3-20.7 45-9.6Z"/><path fill="#cc8a1f" d="M144.1 165.9c6.8 0 12.4-5.5 12.4-12.4v-28c0-8.2-5.6-15.9-13.7-17.2-10.3-1.7-19.3 6.3-19.3 16.3v61.9c-.1-11.3 9.2-20.6 20.6-20.6ZM367 165.9c-6.8 0-12.4-5.5-12.4-12.4l-27.7-72c0-8.2 8.3-3.9 16.4-5.2 10.3-1.7 30.6 6.9 30.6 17l7.3 77.4c-3.2-4-7.7-4.7-14.2-4.8Z"/><path fill="#cc8a1f" d="M248.1 9C393.9-3.8 407.9 108.3 383 97.8c-84-35.3-82 17.6-89 20.5-56.4 24-158.6 9.6-163.8-33.2-5-42.7 56.9-70.7 117.9-76.1ZM335.2 181.1l8.1-60.3c1.4-10.5 6.4 4.4 14.8 5.5 8.4 1.1 14 10.5 12.6 21l-5.2 37.9c-1.4 10.5-9.4 18-17.8 16.9-8.2-1.1-13.9-10.5-12.5-21Z"/><path fill="#f0c382" d="M297 317.7c0 12.868-16.52 23.3-36.9 23.3s-36.9-10.432-36.9-23.3 16.52-23.3 36.9-23.3 36.9 10.432 36.9 23.3Z"/><path fill="#ffe1a0" d="M297 307.7c0 12.868-16.52 23.3-36.9 23.3s-36.9-10.432-36.9-23.3 16.52-23.3 36.9-23.3 36.9 10.432 36.9 23.3Z"/><path fill="#f7d291" d="M267.1 308.3h-11.3c-3.1 0-5.7-3.6-5.7-7.9 0-4.3 2.5-7.9 5.7-7.9h11.3c3.1 0 5.7 3.6 5.7 7.9 0 4.3-2.6 7.9-5.7 7.9Z"/><path fill="#cc8a1f" d="m151.3 191-8.9-37.2c-2.5-10.3 2.6-20.3 11.2-22.4 8.6-2.1 17.7 4.6 20.1 14.9l8.9 37.2c2.5 10.3-2.6 20.3-11.2 22.4-8.6 2-17.6-4.7-20.1-14.9Z"/></svg>